<?xml version="1.0" encoding="UTF-8"?>
<svg xmlns="http://www.w3.org/2000/svg"
     width="3200" height="800"
     viewBox="0 0 3200 800">
  <path d="M 0.00,350.00 L 12.28,350.17 L 24.56,350.52 L 36.84,351.23 L 49.12,352.28 L 61.40,354.10 L 73.68,356.71 L 85.96,359.72 L 98.24,364.05 L 110.52,369.36 L 122.80,374.81 L 135.08,381.90 L 147.36,389.85 L 159.64,397.39 L 171.92,406.56 L 184.20,416.10 L 196.48,424.60 L 208.76,434.26 L 221.04,443.60 L 233.32,451.31 L 245.60,459.32 L 257.88,466.23 L 270.16,471.16 L 282.44,475.30 L 294.72,477.64 L 307.00,478.04 L 319.28,476.51 L 331.56,472.73 L 343.84,467.53 L 356.12,459.41 L 368.40,449.00 L 380.68,438.09 L 392.96,423.68 L 405.24,407.38 L 417.52,391.77 L 429.80,372.62 L 442.08,352.39 L 454.36,334.08 L 466.64,312.80 L 478.92,291.52 L 491.20,270.64 L 503.48,253.03 L 515.76,234.00 L 528.04,216.51 L 540.32,202.76 L 552.60,189.11 L 564.88,177.93 L 577.16,170.37 L 589.44,164.45 L 601.72,161.54 L 614.00,161.54 L 626.28,164.45 L 638.56,170.43 L 650.84,178.10 L 663.12,189.50 L 675.40,203.51 L 687.68,217.70 L 699.96,235.83 L 712.24,255.68 L 724.52,274.16 L 736.80,296.18 L 749.08,318.76 L 761.36,338.64 L 773.64,361.14 L 785.92,382.99 L 798.20,401.28 L 810.48,420.91 L 822.76,438.86 L 835.04,452.96 L 847.32,467.04 L 859.60,478.75 L 871.88,486.95 L 884.16,493.90 L 896.44,498.25 L 908.72,499.95 L 921.00,499.54 L 933.28,496.75 L 945.56,492.50 L 957.84,485.76 L 970.12,477.25 L 982.40,468.57 L 994.68,457.51 L 1006.96,445.51 L 1019.24,432.90 L 1031.52,421.59 L 1043.80,408.64 L 1056.08,395.92 L 1068.36,385.19 L 1080.64,373.57 L 1092.92,362.84 L 1105.20,354.30 L 1117.48,345.61 L 1129.76,338.14 L 1142.04,332.62 L 1154.32,327.49 L 1166.60,323.55 L 1178.88,321.01 L 1191.16,319.06 L 1203.44,317.97 L 1215.72,317.59 L 1228.00,317.65 L 1240.28,318.06 L 1252.56,318.55 L 1264.84,319.07 L 1277.12,319.38 L 1289.40,319.34 L 1301.68,318.82 L 1313.96,317.66 L 1326.24,316.06 L 1338.52,313.50 L 1350.80,310.15 L 1363.08,306.58 L 1375.36,301.81 L 1387.64,296.40 L 1399.92,291.25 L 1412.20,285.02 L 1424.48,278.60 L 1436.76,273.00 L 1449.04,266.82 L 1461.32,261.11 L 1473.60,256.69 L 1485.88,252.52 L 1498.16,249.52 L 1510.44,247.91 L 1522.72,247.78 L 1535.00,249.27 L 1547.28,252.61 L 1559.56,257.14 L 1571.84,264.19 L 1584.12,273.24 L 1596.40,282.76 L 1608.68,295.40 L 1620.96,309.76 L 1633.24,323.60 L 1645.52,340.66 L 1657.80,358.79 L 1670.08,375.27 L 1682.36,394.52 L 1694.64,413.86 L 1706.92,430.57 L 1719.20,449.06 L 1731.48,466.56 L 1743.76,480.76 L 1756.04,495.39 L 1768.32,508.01 L 1780.60,517.17 L 1792.88,525.26 L 1805.16,530.60 L 1817.44,532.90 L 1829.72,532.72 L 1842.00,529.51 L 1854.28,524.22 L 1866.56,515.41 L 1878.84,503.77 L 1891.12,491.42 L 1903.40,475.06 L 1915.68,456.56 L 1927.96,438.90 L 1940.24,417.35 L 1952.52,394.73 L 1964.80,374.39 L 1977.08,350.91 L 1989.36,327.58 L 2001.64,304.85 L 2013.92,285.76 L 2026.20,265.21 L 2038.48,246.37 L 2050.76,231.52 L 2063.04,216.68 L 2075.32,204.33 L 2087.60,195.70 L 2099.88,188.43 L 2112.16,183.98 L 2124.44,182.41 L 2136.72,183.21 L 2149.00,186.68 L 2161.28,191.79 L 2173.56,199.80 L 2185.84,209.89 L 2198.12,220.21 L 2210.40,233.43 L 2222.68,247.85 L 2234.96,261.18 L 2247.24,276.94 L 2259.52,292.91 L 2271.80,306.81 L 2284.08,322.33 L 2296.36,337.18 L 2308.64,349.42 L 2320.92,362.36 L 2333.20,374.00 L 2345.48,383.02 L 2357.76,391.91 L 2370.04,399.23 L 2382.32,404.36 L 2394.60,408.79 L 2406.88,411.77 L 2419.16,413.28 L 2431.44,413.88 L 2443.72,413.45 L 2456.00,412.37 L 2468.28,410.53 L 2480.56,408.23 L 2492.84,405.71 L 2505.12,403.46 L 2517.40,401.03 L 2529.68,398.91 L 2541.96,397.42 L 2554.24,396.26 L 2566.52,395.75 L 2578.80,395.87 L 2591.08,396.69 L 2603.36,398.20 L 2615.64,400.05 L 2627.92,402.67 L 2640.20,405.73 L 2652.48,408.63 L 2664.76,412.04 L 2677.04,415.37 L 2689.32,418.04 L 2701.60,420.63 L 2713.88,422.50 L 2726.16,423.40 L 2738.44,423.38 L 2750.72,422.09 L 2763.00,419.79 L 2775.28,415.72 L 2787.56,410.03 L 2799.84,403.68 L 2812.12,394.85 L 2824.40,384.41 L 2836.68,374.00 L 2848.96,360.78 L 2861.24,346.32 L 2873.52,332.82 L 2885.80,316.66 L 2898.08,299.99 L 2910.36,285.23 L 2922.64,268.48 L 2934.92,252.17 L 2947.20,238.56 L 2959.48,224.06 L 2971.76,211.01 L 2984.04,199.74 L 2996.32,191.58 L 3008.60,184.41 L 3020.88,179.77 L 3033.16,177.92 L 3045.44,178.44 L 3057.72,181.83 L 3070.00,187.17 L 3082.28,195.95 L 3094.56,207.47 L 3106.84,219.68 L 3119.12,235.87 L 3131.40,254.19 L 3143.68,271.72 L 3155.96,293.17 L 3168.24,315.74 L 3180.52,336.10 L 3192.80,359.67 L 3200.00,373.44 M 0.00,373.44 L 5.08,383.16 L 17.36,403.30 L 29.64,425.46 L 41.92,446.33 L 54.20,463.22 L 66.48,480.66 L 78.76,495.81 L 91.04,506.99 L 103.32,517.20 L 115.60,524.54 L 127.88,528.53 L 140.16,530.27 L 152.44,529.04 L 164.72,525.58 L 177.00,519.05 L 189.28,509.94 L 201.56,500.05 L 213.84,486.78 L 226.12,471.74 L 238.40,457.39 L 250.68,439.95 L 262.96,421.76 L 275.24,403.20 L 287.52,386.94 L 299.80,368.65 L 312.08,351.01 L 324.36,336.34 L 336.64,320.69 L 348.92,306.48 L 361.20,295.35 L 373.48,284.28 L 385.76,275.06 L 398.04,268.54 L 410.32,262.86 L 422.60,259.05 L 434.88,257.16 L 447.16,256.56 L 459.44,257.46 L 471.72,259.34 L 484.00,262.53 L 496.28,266.63 L 508.56,270.78 L 520.84,275.94 L 533.12,281.34 L 545.40,286.07 L 557.68,291.32 L 569.96,296.21 L 582.24,300.08 L 594.52,303.93 L 606.80,307.09 L 619.08,309.23 L 631.36,310.97 L 643.64,311.98 L 655.92,312.31 L 668.20,312.14 L 680.48,311.51 L 692.76,310.70 L 705.04,309.64 L 717.32,308.60 L 729.60,307.79 L 741.88,307.43 L 754.16,307.60 L 766.44,308.55 L 778.72,310.17 L 791.00,313.05 L 803.28,317.14 L 815.56,321.77 L 827.84,328.33 L 840.12,336.23 L 852.40,344.21 L 864.68,354.51 L 876.96,365.93 L 889.24,376.72 L 901.52,389.78 L 913.80,403.41 L 926.08,415.58 L 938.36,429.52 L 950.64,443.20 L 962.92,454.69 L 975.20,467.01 L 987.48,478.15 L 999.76,486.68 L 1012.04,494.78 L 1024.32,500.87 L 1036.60,504.38 L 1048.88,506.13 L 1061.16,505.34 L 1073.44,502.48 L 1085.72,496.70 L 1098.00,488.25 L 1110.28,478.72 L 1122.56,465.50 L 1134.84,449.97 L 1147.12,434.66 L 1159.40,415.46 L 1171.68,394.74 L 1183.96,375.64 L 1196.24,353.07 L 1208.52,330.08 L 1220.80,307.10 L 1233.08,287.34 L 1245.36,265.53 L 1257.64,244.94 L 1269.92,228.23 L 1282.20,210.96 L 1294.48,195.94 L 1306.76,184.87 L 1319.04,174.79 L 1331.32,167.63 L 1343.60,163.84 L 1355.88,162.41 L 1368.16,164.08 L 1380.44,168.02 L 1392.72,175.26 L 1405.00,185.25 L 1417.28,196.08 L 1429.56,210.58 L 1441.84,227.05 L 1454.12,242.81 L 1466.40,262.03 L 1478.68,282.16 L 1490.96,300.20 L 1503.24,320.97 L 1515.52,341.50 L 1527.80,358.98 L 1540.08,378.08 L 1552.36,395.95 L 1564.64,410.35 L 1576.92,425.16 L 1589.20,438.03 L 1601.48,447.59 L 1613.76,456.48 L 1626.04,463.15 L 1638.32,467.16 L 1650.60,469.72 L 1662.88,470.20 L 1675.16,469.03 L 1687.44,466.04 L 1699.72,461.49 L 1712.00,455.60 L 1724.28,449.55 L 1736.56,441.85 L 1748.84,433.57 L 1761.12,426.06 L 1773.40,417.40 L 1785.68,408.88 L 1797.96,401.71 L 1810.24,394.01 L 1822.52,386.99 L 1834.80,381.48 L 1847.08,376.01 L 1859.36,371.44 L 1871.64,368.19 L 1883.92,365.30 L 1896.20,363.22 L 1908.48,361.98 L 1920.76,361.11 L 1933.04,360.67 L 1945.32,360.51 L 1957.60,360.41 L 1969.88,360.22 L 1982.16,359.82 L 1994.44,358.94 L 2006.72,357.44 L 2019.00,355.51 L 2031.28,352.46 L 2043.56,348.45 L 2055.84,344.08 L 2068.12,338.09 L 2080.40,331.06 L 2092.68,324.09 L 2104.96,315.28 L 2117.24,305.69 L 2129.52,296.80 L 2141.80,286.24 L 2154.08,275.48 L 2166.36,266.11 L 2178.64,255.69 L 2190.92,245.85 L 2203.20,236.88 L 2215.48,229.97 L 2227.76,223.40 L 2240.04,218.48 L 2252.32,215.71 L 2264.60,214.47 L 2276.88,215.46 L 2289.16,218.23 L 2301.44,223.65 L 2313.72,231.48 L 2326.00,240.29 L 2338.28,252.51 L 2350.56,266.91 L 2362.84,281.13 L 2375.12,299.04 L 2387.40,318.43 L 2399.68,336.36 L 2411.96,357.64 L 2424.24,379.39 L 2436.52,398.49 L 2448.80,420.03 L 2461.08,440.87 L 2473.36,458.21 L 2485.64,476.64 L 2497.92,493.26 L 2510.20,506.04 L 2522.48,518.37 L 2534.76,528.02 L 2547.04,534.12 L 2559.32,538.27 L 2571.60,539.33 L 2583.88,537.69 L 2596.16,532.92 L 2608.44,525.16 L 2620.72,516.02 L 2633.00,503.08 L 2645.28,487.72 L 2657.56,472.55 L 2669.84,453.52 L 2682.12,433.05 L 2694.40,411.54 L 2706.68,392.19 L 2718.96,369.84 L 2731.24,347.65 L 2743.52,328.68 L 2755.80,307.86 L 2768.08,288.31 L 2780.36,272.49 L 2792.64,256.14 L 2804.92,241.88 L 2817.20,231.27 L 2829.48,221.39 L 2841.76,214.00 L 2854.04,209.59 L 2866.32,206.90 L 2878.60,206.64 L 2890.88,208.31 L 2903.16,212.23 L 2915.44,218.11 L 2927.72,224.68 L 2940.00,233.56 L 2952.28,243.65 L 2964.56,253.22 L 2976.84,264.76 L 2989.12,276.64 L 3001.40,287.10 L 3013.68,298.86 L 3025.96,310.20 L 3038.24,319.60 L 3050.52,329.57 L 3062.80,338.58 L 3075.08,345.60 L 3087.36,352.55 L 3099.64,358.35 L 3111.92,362.48 L 3124.20,366.17 L 3136.48,368.85 L 3148.76,370.46 L 3161.04,371.58 L 3173.32,372.10 L 3185.60,372.20 L 3197.88,372.09 L 3200.00,372.06 M 0.00,372.06 L 10.16,371.92 L 22.44,371.89 L 34.72,372.11 L 47.00,372.80 L 59.28,374.09 L 71.56,375.80 L 83.84,378.49 L 96.12,382.02 L 108.40,385.79 L 120.68,390.87 L 132.96,396.71 L 145.24,402.35 L 157.52,409.30 L 169.80,416.60 L 182.08,423.12 L 194.36,430.54 L 206.64,437.68 L 218.92,443.51 L 231.20,449.46 L 243.48,454.40 L 255.76,457.71 L 268.04,460.12 L 280.32,460.88 L 292.60,460.06 L 304.88,457.28 L 317.16,452.46 L 329.44,446.52 L 341.72,437.75 L 354.00,426.92 L 366.28,415.82 L 378.56,401.41 L 390.84,385.34 L 403.12,370.11 L 415.40,351.61 L 427.68,332.24 L 439.96,314.86 L 452.24,294.81 L 464.52,274.95 L 476.80,255.67 L 489.08,239.57 L 501.36,222.40 L 513.64,206.90 L 525.92,194.97 L 538.20,183.46 L 550.48,174.49 L 562.76,168.89 L 575.04,165.22 L 587.32,164.56 L 599.60,166.50 L 611.88,171.58 L 624.16,179.66 L 636.44,189.08 L 648.72,202.39 L 661.00,218.17 L 673.28,233.78 L 685.56,253.39 L 697.84,274.54 L 710.12,293.99 L 722.40,316.94 L 734.68,340.23 L 746.96,360.56 L 759.24,383.36 L 771.52,405.28 L 783.80,423.45 L 796.08,442.72 L 808.36,460.09 L 820.64,473.51 L 832.92,486.61 L 845.20,497.14 L 857.48,504.16 L 869.76,509.59 L 882.04,512.26 L 894.32,512.37 L 906.60,510.03 L 918.88,505.20 L 931.16,499.10 L 943.44,490.17 L 955.72,479.44 L 968.00,467.18 L 980.28,455.47 L 992.56,441.24 L 1004.84,426.44 L 1017.12,413.27 L 1029.40,398.28 L 1041.68,383.62 L 1053.96,371.29 L 1066.24,357.98 L 1078.52,345.72 L 1090.80,335.98 L 1103.08,326.10 L 1115.36,317.64 L 1127.64,311.43 L 1139.92,305.70 L 1152.20,301.39 L 1164.48,298.72 L 1176.76,296.83 L 1189.04,296.02 L 1201.32,296.07 L 1213.60,296.84 L 1225.88,298.16 L 1238.16,299.61 L 1250.44,301.42 L 1262.72,303.19 L 1275.00,304.58 L 1287.28,305.82 L 1299.56,306.56 L 1311.84,306.71 L 1324.12,306.24 L 1336.40,305.05 L 1348.68,303.42 L 1360.96,300.89 L 1373.24,297.74 L 1385.52,294.55 L 1397.80,290.52 L 1410.08,286.26 L 1422.36,282.48 L 1434.64,278.29 L 1446.92,274.45 L 1459.20,271.19 L 1471.48,269.00 L 1483.76,267.43 L 1496.04,267.06 L 1508.32,267.87 L 1520.60,270.23 L 1532.88,274.23 L 1545.16,279.16 L 1557.44,286.45 L 1569.72,295.51 L 1582.00,304.86 L 1594.28,317.09 L 1606.56,330.82 L 1618.84,343.93 L 1631.12,359.96 L 1643.40,376.86 L 1655.68,392.11 L 1667.96,409.80 L 1680.24,427.43 L 1692.52,442.52 L 1704.80,459.05 L 1717.08,474.49 L 1729.36,486.81 L 1741.64,499.25 L 1753.92,509.63 L 1766.20,516.82 L 1778.48,522.66 L 1790.76,525.78 L 1803.04,526.17 L 1815.32,523.88 L 1827.60,518.65 L 1839.88,511.68 L 1852.16,501.07 L 1864.44,487.78 L 1876.72,474.13 L 1889.00,456.43 L 1901.28,436.79 L 1913.56,418.29 L 1925.84,395.99 L 1938.12,372.84 L 1950.40,349.26 L 1962.68,328.61 L 1974.96,305.40 L 1987.24,283.01 L 1999.52,264.40 L 2011.80,244.61 L 2024.08,226.73 L 2036.36,212.89 L 2048.64,199.38 L 2060.92,188.54 L 2073.20,181.36 L 2085.48,175.89 L 2097.76,173.36 L 2110.04,173.57 L 2122.32,176.48 L 2134.60,182.13 L 2146.88,189.19 L 2159.16,199.44 L 2171.44,211.79 L 2183.72,224.06 L 2196.00,239.48 L 2208.28,256.03 L 2220.56,271.17 L 2232.84,288.89 L 2245.12,306.70 L 2257.40,322.10 L 2269.68,339.17 L 2281.96,355.41 L 2294.24,368.72 L 2306.52,382.68 L 2318.80,395.15 L 2331.08,404.71 L 2343.36,414.01 L 2355.64,421.52 L 2367.92,426.62 L 2380.20,430.81 L 2392.48,433.32 L 2404.76,434.24 L 2417.04,433.97 L 2429.32,432.46 L 2441.60,429.91 L 2453.88,427.00 L 2466.16,423.10 L 2478.44,418.82 L 2490.72,414.93 L 2503.00,410.51 L 2515.28,406.30 L 2527.56,402.93 L 2539.84,399.56 L 2552.12,396.80 L 2564.40,394.96 L 2576.68,393.53 L 2588.96,392.83 L 2601.24,392.79 L 2613.52,393.32 L 2625.80,394.38 L 2638.08,395.62 L 2650.36,397.27 L 2662.64,398.99 L 2674.92,400.39 L 2687.20,401.69 L 2699.48,402.48 L 2711.76,402.58 L 2724.04,401.87 L 2736.32,400.09 L 2748.60,397.56 L 2760.88,393.43 L 2773.16,387.91 L 2785.44,381.89 L 2797.72,373.66 L 2810.00,364.02 L 2822.28,354.50 L 2834.56,342.47 L 2846.84,329.38 L 2859.12,317.23 L 2871.40,302.76 L 2883.68,287.92 L 2895.96,274.86 L 2908.24,260.16 L 2920.52,245.98 L 2932.80,232.68 L 2945.08,222.02 L 2957.36,211.22 L 2969.64,202.21 L 2981.92,195.99 L 2994.20,191.01 L 3006.48,188.48 L 3018.76,188.41 L 3031.04,190.86 L 3043.32,196.06 L 3055.60,202.86 L 3067.88,213.16 L 3080.16,226.02 L 3092.44,239.25 L 3104.72,256.42 L 3117.00,275.51 L 3129.28,293.54 L 3141.56,315.33 L 3153.84,338.04 L 3166.12,358.32 L 3178.40,381.59 L 3190.68,404.56 L 3200.00,419.36 M 0.00,419.36 L 2.96,424.06 L 15.24,445.30 L 27.52,465.04 L 39.80,480.79 L 52.08,496.75 L 64.36,510.26 L 76.64,519.88 L 88.92,528.19 L 101.20,533.51 L 113.48,535.66 L 125.76,535.23 L 138.04,531.78 L 150.32,526.36 L 162.60,517.57 L 174.88,506.23 L 187.16,494.40 L 199.44,478.99 L 211.72,461.88 L 224.00,443.43 L 236.28,426.50 L 248.56,406.58 L 260.84,386.44 L 273.12,368.95 L 285.40,349.43 L 297.68,330.74 L 309.96,315.33 L 322.24,299.04 L 334.52,284.40 L 346.80,273.09 L 359.08,262.02 L 371.36,253.02 L 383.64,246.88 L 395.92,241.85 L 408.20,238.90 L 420.48,237.94 L 432.76,238.57 L 445.04,240.90 L 457.32,244.15 L 469.60,249.08 L 481.88,255.04 L 494.16,260.92 L 506.44,268.15 L 518.72,275.69 L 531.00,282.36 L 543.28,289.84 L 555.56,296.99 L 567.84,302.83 L 580.12,308.89 L 592.40,314.22 L 604.68,318.20 L 616.96,321.96 L 629.24,324.87 L 641.52,326.76 L 653.80,328.23 L 666.08,329.08 L 678.36,329.41 L 690.64,329.47 L 702.92,329.36 L 715.20,329.27 L 727.48,329.35 L 739.76,329.82 L 752.04,330.84 L 764.32,332.34 L 776.60,334.86 L 788.88,338.37 L 801.16,342.32 L 813.44,347.90 L 825.72,354.62 L 838.00,361.42 L 850.28,370.20 L 862.56,379.94 L 874.84,389.14 L 887.12,400.27 L 899.40,411.86 L 911.68,422.17 L 923.96,433.93 L 936.24,445.38 L 948.52,454.91 L 960.80,464.97 L 973.08,473.87 L 985.36,480.49 L 997.64,486.46 L 1009.92,490.51 L 1022.20,492.31 L 1034.48,492.23 L 1046.76,489.75 L 1059.04,485.54 L 1071.32,478.38 L 1083.60,468.74 L 1095.88,458.33 L 1108.16,444.31 L 1120.44,428.19 L 1132.72,412.55 L 1145.00,393.17 L 1157.28,372.51 L 1169.56,353.65 L 1181.84,331.55 L 1194.12,309.26 L 1206.40,287.20 L 1218.68,268.40 L 1230.96,247.88 L 1243.24,228.76 L 1255.52,213.47 L 1267.80,197.96 L 1280.08,184.84 L 1292.36,175.52 L 1304.64,167.53 L 1316.92,162.53 L 1329.20,160.68 L 1341.48,161.50 L 1353.76,165.41 L 1366.04,171.32 L 1378.32,180.77 L 1390.60,192.91 L 1402.88,205.56 L 1415.16,222.05 L 1427.44,240.39 L 1439.72,257.68 L 1452.00,278.50 L 1464.28,300.06 L 1476.56,319.21 L 1488.84,341.05 L 1501.12,362.46 L 1513.40,380.53 L 1525.68,400.10 L 1537.96,418.21 L 1550.24,432.63 L 1562.52,447.26 L 1574.80,459.72 L 1587.08,468.74 L 1599.36,476.81 L 1611.64,482.44 L 1623.92,485.39 L 1636.20,486.56 L 1648.48,485.49 L 1660.76,482.83 L 1673.04,478.00 L 1685.32,471.48 L 1697.60,463.52 L 1709.88,455.60 L 1722.16,445.71 L 1734.44,435.19 L 1746.72,425.71 L 1759.00,414.80 L 1771.28,404.06 L 1783.56,394.98 L 1795.84,385.17 L 1808.12,376.12 L 1820.40,368.94 L 1832.68,361.67 L 1844.96,355.46 L 1857.24,350.90 L 1869.52,346.67 L 1881.80,343.45 L 1894.08,341.37 L 1906.36,339.75 L 1918.64,338.78 L 1930.92,338.33 L 1943.20,338.12 L 1955.48,338.04 L 1967.76,337.93 L 1980.04,337.58 L 1992.32,336.84 L 2004.60,335.74 L 2016.88,333.83 L 2029.16,331.15 L 2041.44,328.09 L 2053.72,323.76 L 2066.00,318.52 L 2078.28,313.23 L 2090.56,306.44 L 2102.84,298.96 L 2115.12,291.97 L 2127.40,283.64 L 2139.68,275.13 L 2151.96,267.73 L 2164.24,259.54 L 2176.52,251.90 L 2188.80,245.07 L 2201.08,239.96 L 2213.36,235.35 L 2225.64,232.27 L 2237.92,230.99 L 2250.20,231.32 L 2262.48,233.69 L 2274.76,237.53 L 2287.04,243.97 L 2299.32,252.62 L 2311.60,261.97 L 2323.88,274.61 L 2336.16,289.19 L 2348.44,303.39 L 2360.72,321.05 L 2373.00,339.98 L 2385.28,357.32 L 2397.56,377.73 L 2409.84,398.40 L 2422.12,416.39 L 2434.40,436.50 L 2446.68,455.74 L 2458.96,471.55 L 2471.24,488.12 L 2483.52,502.74 L 2495.80,513.70 L 2508.08,523.88 L 2520.36,531.32 L 2532.64,535.46 L 2544.92,537.35 L 2557.20,536.17 L 2569.48,532.59 L 2581.76,525.66 L 2594.04,515.80 L 2606.32,504.91 L 2618.60,490.07 L 2630.88,472.96 L 2643.16,456.36 L 2655.44,435.87 L 2667.72,414.11 L 2680.00,391.51 L 2692.28,371.37 L 2704.56,348.33 L 2716.84,325.66 L 2729.12,306.45 L 2741.40,285.57 L 2753.68,266.19 L 2765.96,250.70 L 2778.24,234.95 L 2790.52,221.50 L 2802.80,211.76 L 2815.08,203.07 L 2827.36,197.06 L 2839.64,194.00 L 2851.92,193.00 L 2864.20,194.57 L 2876.48,197.94 L 2888.76,203.91 L 2901.04,211.92 L 2913.32,220.41 L 2925.60,231.52 L 2937.88,243.86 L 2950.16,255.41 L 2962.44,269.17 L 2974.72,283.24 L 2987.00,295.55 L 2999.28,309.35 L 3011.56,322.62 L 3023.84,333.61 L 3036.12,345.26 L 3048.40,355.79 L 3060.68,363.99 L 3072.96,372.12 L 3085.24,378.90 L 3097.52,383.71 L 3109.80,387.98 L 3122.08,391.02 L 3134.36,392.75 L 3146.64,393.80 L 3158.92,394.02 L 3171.20,393.59 L 3183.48,392.85 L 3195.76,391.76 L 3200.00,391.36 M 0.00,391.36 L 8.04,390.60 L 20.32,389.68 L 32.60,388.89 L 44.88,388.54 L 57.16,388.69 L 69.44,389.48 L 81.72,390.99 L 94.00,392.92 L 106.28,395.83 L 118.56,399.45 L 130.84,403.13 L 143.12,407.82 L 155.40,412.88 L 167.68,417.48 L 179.96,422.75 L 192.24,427.82 L 204.52,431.92 L 216.80,436.00 L 229.08,439.22 L 241.36,441.14 L 253.64,442.13 L 265.92,441.66 L 278.20,439.91 L 290.48,436.27 L 302.76,430.80 L 315.04,424.48 L 327.32,415.48 L 339.60,404.65 L 351.88,393.74 L 364.16,379.76 L 376.44,364.34 L 388.72,349.84 L 401.00,332.38 L 413.28,314.26 L 425.56,298.10 L 437.84,279.63 L 450.12,261.50 L 462.40,244.08 L 474.68,229.71 L 486.96,214.61 L 499.24,201.26 L 511.52,191.25 L 523.80,181.98 L 536.08,175.27 L 548.36,171.64 L 560.64,170.18 L 572.92,171.69 L 585.20,175.47 L 597.48,182.56 L 609.76,192.54 L 622.04,203.53 L 634.32,218.47 L 646.60,235.73 L 658.88,252.49 L 671.16,273.23 L 683.44,295.30 L 695.72,315.39 L 708.00,338.86 L 720.28,362.45 L 732.56,382.86 L 744.84,405.52 L 757.12,427.09 L 769.40,444.77 L 781.68,463.27 L 793.96,479.66 L 806.24,492.07 L 818.52,503.82 L 830.80,512.83 L 843.08,518.39 L 855.36,522.02 L 867.64,522.76 L 879.92,521.08 L 892.20,516.62 L 904.48,509.61 L 916.76,501.56 L 929.04,490.38 L 941.32,477.39 L 953.60,462.91 L 965.88,449.28 L 978.16,432.92 L 990.44,416.07 L 1002.72,401.20 L 1015.00,384.38 L 1027.28,368.03 L 1039.56,354.35 L 1051.84,339.67 L 1064.12,326.22 L 1076.40,315.60 L 1088.68,304.91 L 1100.96,295.86 L 1113.24,289.32 L 1125.52,283.42 L 1137.80,279.16 L 1150.08,276.73 L 1162.36,275.31 L 1174.64,275.20 L 1186.92,276.05 L 1199.20,277.91 L 1211.48,280.51 L 1223.76,283.24 L 1236.04,286.65 L 1248.32,290.19 L 1260.60,293.23 L 1272.88,296.46 L 1285.16,299.29 L 1297.44,301.33 L 1309.72,303.08 L 1322.00,304.14 L 1334.28,304.47 L 1346.56,304.19 L 1358.84,303.25 L 1371.12,301.95 L 1383.40,300.01 L 1395.68,297.73 L 1407.96,295.60 L 1420.24,293.16 L 1432.52,290.92 L 1444.80,289.10 L 1457.08,288.00 L 1469.36,287.51 L 1481.64,288.02 L 1493.92,289.42 L 1506.20,292.24 L 1518.48,296.49 L 1530.76,301.44 L 1543.04,308.54 L 1555.32,317.20 L 1567.60,326.01 L 1579.88,337.41 L 1592.16,350.12 L 1604.44,362.16 L 1616.72,376.81 L 1629.00,392.14 L 1641.28,405.90 L 1653.56,421.75 L 1665.84,437.42 L 1678.12,450.71 L 1690.40,465.11 L 1702.68,478.34 L 1714.96,488.71 L 1727.24,498.90 L 1739.52,507.03 L 1751.80,512.27 L 1764.08,515.93 L 1776.36,516.94 L 1788.64,515.56 L 1800.92,511.34 L 1813.20,504.31 L 1825.48,495.89 L 1837.76,483.77 L 1850.04,469.15 L 1862.32,454.49 L 1874.60,435.82 L 1886.88,415.43 L 1899.16,396.45 L 1911.44,373.81 L 1923.72,350.54 L 1936.00,327.07 L 1948.28,306.72 L 1960.56,284.04 L 1972.84,262.40 L 1985.12,244.63 L 1997.40,225.98 L 2009.68,209.43 L 2021.96,196.90 L 2034.24,185.04 L 2046.52,176.00 L 2058.80,170.50 L 2071.08,167.05 L 2083.36,166.64 L 2095.64,168.74 L 2107.92,173.88 L 2120.20,181.78 L 2132.48,190.81 L 2144.76,203.30 L 2157.04,217.84 L 2169.32,231.99 L 2181.60,249.47 L 2193.88,267.99 L 2206.16,284.74 L 2218.44,304.17 L 2230.72,323.55 L 2243.00,340.17 L 2255.28,358.47 L 2267.56,375.74 L 2279.84,389.77 L 2292.12,404.37 L 2304.40,417.25 L 2316.68,426.98 L 2328.96,436.26 L 2341.24,443.53 L 2353.52,448.24 L 2365.80,451.77 L 2378.08,453.41 L 2390.36,453.40 L 2402.64,451.87 L 2414.92,448.93 L 2427.20,444.78 L 2439.48,440.34 L 2451.76,434.58 L 2464.04,428.30 L 2476.32,422.59 L 2488.60,416.02 L 2500.88,409.60 L 2513.16,404.27 L 2525.44,398.64 L 2537.72,393.64 L 2550.00,389.86 L 2562.28,386.27 L 2574.56,383.47 L 2586.84,381.68 L 2599.12,380.32 L 2611.40,379.61 L 2623.68,379.44 L 2635.96,379.63 L 2648.24,380.06 L 2660.52,380.49 L 2672.80,380.88 L 2685.08,380.96 L 2697.36,380.64 L 2709.64,379.64 L 2721.92,377.81 L 2734.20,375.41 L 2746.48,371.65 L 2758.76,366.72 L 2771.04,361.40 L 2783.32,354.16 L 2795.60,345.71 L 2807.88,337.38 L 2820.16,326.88 L 2832.44,315.48 L 2844.72,304.93 L 2857.00,292.39 L 2869.28,279.60 L 2881.56,268.41 L 2893.84,255.88 L 2906.12,243.94 L 2918.40,234.22 L 2930.68,224.20 L 2942.96,215.63 L 2955.24,208.80 L 2967.52,204.44 L 2979.80,201.50 L 2992.08,200.90 L 3004.36,202.42 L 3016.64,206.55 L 3028.92,213.27 L 3041.20,221.26 L 3053.48,232.73 L 3065.76,246.57 L 3078.04,260.48 L 3090.32,278.23 L 3102.60,297.67 L 3114.88,315.83 L 3127.16,337.55 L 3139.44,359.96 L 3151.72,379.80 L 3164.00,402.36 L 3176.28,424.40 L 3188.56,442.92 L 3200.00,461.50 M 0.00,461.50 L 0.84,462.86 L 13.12,481.12 L 25.40,495.44 L 37.68,509.63 L 49.96,521.24 L 62.24,529.11 L 74.52,535.32 L 86.80,538.47 L 99.08,538.68 L 111.36,536.00 L 123.64,530.30 L 135.92,522.92 L 148.20,511.93 L 160.48,498.43 L 172.76,484.79 L 185.04,467.40 L 197.32,448.42 L 209.60,430.83 L 221.88,409.93 L 234.16,388.59 L 246.44,367.22 L 258.72,348.80 L 271.00,328.42 L 283.28,309.08 L 295.56,293.29 L 307.84,276.77 L 320.12,262.13 L 332.40,251.01 L 344.68,240.36 L 356.96,232.01 L 369.24,226.61 L 381.52,222.63 L 393.80,220.91 L 406.08,221.18 L 418.36,223.39 L 430.64,227.44 L 442.92,232.32 L 455.20,239.21 L 467.48,247.25 L 479.76,255.00 L 492.04,264.43 L 504.32,274.21 L 516.60,282.85 L 528.88,292.58 L 541.16,301.95 L 553.44,309.69 L 565.72,317.86 L 578.00,325.20 L 590.28,330.86 L 602.56,336.40 L 614.84,340.96 L 627.12,344.15 L 639.40,346.94 L 651.68,348.91 L 663.96,350.07 L 676.24,350.87 L 688.52,351.28 L 700.80,351.47 L 713.08,351.65 L 725.36,351.98 L 737.64,352.66 L 749.92,353.66 L 762.20,355.41 L 774.48,357.94 L 786.76,360.88 L 799.04,365.11 L 811.32,370.31 L 823.60,375.65 L 835.88,382.62 L 848.16,390.43 L 860.44,397.85 L 872.72,406.87 L 885.00,416.27 L 897.28,424.64 L 909.56,434.14 L 921.84,443.34 L 934.12,450.91 L 946.40,458.78 L 958.68,465.55 L 970.96,470.37 L 983.24,474.39 L 995.52,476.61 L 1007.80,476.93 L 1020.08,475.30 L 1032.36,471.43 L 1044.64,466.17 L 1056.92,458.00 L 1069.20,447.55 L 1081.48,436.61 L 1093.76,422.19 L 1106.04,405.90 L 1118.32,390.30 L 1130.60,371.18 L 1142.88,350.99 L 1155.16,332.74 L 1167.44,311.53 L 1179.72,290.33 L 1192.00,272.11 L 1204.28,252.03 L 1216.56,233.11 L 1228.84,215.75 L 1241.12,202.12 L 1253.40,188.60 L 1265.68,177.57 L 1277.96,170.14 L 1290.24,164.37 L 1302.52,161.61 L 1314.80,161.74 L 1327.08,164.80 L 1339.36,170.92 L 1351.64,178.72 L 1363.92,190.25 L 1376.20,204.39 L 1388.48,218.67 L 1400.76,236.92 L 1413.04,256.86 L 1425.32,275.42 L 1437.60,297.51 L 1449.88,320.15 L 1462.16,340.08 L 1474.44,362.60 L 1486.72,384.48 L 1499.00,402.77 L 1511.28,422.38 L 1523.56,440.31 L 1535.84,454.38 L 1548.12,468.40 L 1560.40,480.05 L 1572.68,488.18 L 1584.96,495.04 L 1597.24,499.29 L 1609.52,500.88 L 1621.80,500.35 L 1634.08,497.44 L 1646.36,493.07 L 1658.64,486.18 L 1670.92,477.53 L 1683.20,468.72 L 1695.48,457.50 L 1707.76,445.36 L 1720.04,432.59 L 1732.32,421.16 L 1744.60,408.07 L 1756.88,395.22 L 1769.16,384.37 L 1781.44,372.63 L 1793.72,361.79 L 1806.00,353.15 L 1818.28,344.38 L 1830.56,336.83 L 1842.84,331.26 L 1855.12,326.07 L 1867.40,322.09 L 1879.68,319.53 L 1891.96,317.57 L 1904.24,316.48 L 1916.52,316.12 L 1928.80,316.22 L 1941.08,316.68 L 1953.36,317.22 L 1965.64,317.81 L 1977.92,318.21 L 1990.20,318.26 L 2002.48,317.85 L 2014.76,316.81 L 2027.04,315.32 L 2039.32,312.90 L 2051.60,309.68 L 2063.88,306.24 L 2076.16,301.62 L 2088.44,296.36 L 2100.72,291.34 L 2113.00,285.25 L 2125.28,278.98 L 2137.56,273.51 L 2149.84,267.47 L 2162.12,261.89 L 2174.40,257.58 L 2186.68,253.53 L 2198.96,250.63 L 2211.24,249.11 L 2223.52,249.06 L 2235.80,250.61 L 2248.08,254.02 L 2260.36,258.58 L 2272.64,265.66 L 2284.92,274.72 L 2297.20,284.25 L 2309.48,296.87 L 2321.76,311.21 L 2334.04,325.01 L 2346.32,342.01 L 2358.60,360.06 L 2370.88,376.47 L 2383.16,395.63 L 2395.44,414.87 L 2407.72,431.47 L 2420.00,449.85 L 2432.28,467.21 L 2444.56,481.29 L 2456.84,495.78 L 2469.12,508.25 L 2481.40,517.28 L 2493.68,525.21 L 2505.96,530.41 L 2518.24,532.58 L 2530.52,532.26 L 2542.80,528.90 L 2555.08,523.49 L 2567.36,514.55 L 2579.64,502.80 L 2591.92,490.36 L 2604.20,473.89 L 2616.48,455.31 L 2628.76,437.58 L 2641.04,415.97 L 2653.32,393.30 L 2665.60,372.93 L 2677.88,349.43 L 2690.16,326.10 L 2702.44,303.37 L 2714.72,284.30 L 2727.00,263.79 L 2739.28,245.00 L 2751.56,230.21 L 2763.84,215.45 L 2776.12,203.19 L 2788.40,194.64 L 2800.68,187.48 L 2812.96,183.16 L 2825.24,181.70 L 2837.52,182.64 L 2849.80,186.25 L 2862.08,191.48 L 2874.36,199.64 L 2886.64,209.88 L 2898.92,220.34 L 2911.20,233.70 L 2923.48,248.27 L 2935.76,261.73 L 2948.04,277.62 L 2960.32,293.73 L 2972.60,307.73 L 2984.88,323.36 L 2997.16,338.31 L 3009.44,350.64 L 3021.72,363.66 L 3034.00,375.37 L 3046.28,384.43 L 3058.56,393.36 L 3070.84,400.71 L 3083.12,405.85 L 3095.40,410.28 L 3107.68,413.24 L 3119.96,414.72 L 3132.24,415.27 L 3144.52,414.78 L 3156.80,413.64 L 3169.08,411.71 L 3181.36,409.32 L 3193.64,406.68 L 3200.00,405.47 M 0.00,405.47 L 5.92,404.33 L 18.20,401.78 L 30.48,399.52 L 42.76,397.92 L 55.04,396.61 L 67.32,395.95 L 79.60,395.94 L 91.88,396.61 L 104.16,397.97 L 116.44,399.69 L 128.72,402.17 L 141.00,405.09 L 153.28,407.87 L 165.56,411.16 L 177.84,414.37 L 190.12,416.95 L 202.40,419.44 L 214.68,421.23 L 226.96,422.06 L 239.24,421.98 L 251.52,420.65 L 263.80,418.32 L 276.08,414.23 L 288.36,408.54 L 300.64,402.20 L 312.92,393.40 L 325.20,383.00 L 337.48,372.64 L 349.76,359.49 L 362.04,345.11 L 374.32,331.69 L 386.60,315.63 L 398.88,299.07 L 411.16,284.42 L 423.44,267.80 L 435.72,251.63 L 448.00,238.14 L 460.28,223.79 L 472.56,210.89 L 484.84,199.78 L 497.12,191.74 L 509.40,184.72 L 521.68,180.23 L 533.96,178.50 L 546.24,179.15 L 558.52,182.68 L 570.80,188.12 L 583.08,197.01 L 595.36,208.63 L 607.64,220.92 L 619.92,237.18 L 632.20,255.57 L 644.48,273.15 L 656.76,294.63 L 669.04,317.22 L 681.32,337.59 L 693.60,361.15 L 705.88,384.62 L 718.16,404.73 L 730.44,426.84 L 742.72,447.64 L 755.00,464.47 L 767.28,481.82 L 779.56,496.87 L 791.84,507.96 L 804.12,518.05 L 816.40,525.26 L 828.68,529.12 L 840.96,530.73 L 853.24,529.35 L 865.52,525.77 L 877.80,519.08 L 890.08,509.83 L 902.36,499.80 L 914.64,486.39 L 926.92,471.21 L 939.20,456.73 L 951.48,439.16 L 963.76,420.85 L 976.04,402.17 L 988.32,385.82 L 1000.60,367.44 L 1012.88,349.71 L 1025.16,334.98 L 1037.44,319.29 L 1049.72,305.03 L 1062.00,293.88 L 1074.28,282.80 L 1086.56,273.57 L 1098.84,267.07 L 1111.12,261.42 L 1123.40,257.65 L 1135.68,255.82 L 1147.96,255.29 L 1160.24,256.27 L 1172.52,258.23 L 1184.80,261.53 L 1197.08,265.75 L 1209.36,270.01 L 1221.64,275.30 L 1233.92,280.84 L 1246.20,285.70 L 1258.48,291.09 L 1270.76,296.13 L 1283.04,300.14 L 1295.32,304.14 L 1307.60,307.43 L 1319.88,309.71 L 1332.16,311.59 L 1344.44,312.73 L 1356.72,313.17 L 1369.00,313.12 L 1381.28,312.60 L 1393.56,311.88 L 1405.84,310.89 L 1418.12,309.93 L 1430.40,309.26 L 1442.68,308.87 L 1454.96,309.06 L 1467.24,310.04 L 1479.52,311.66 L 1491.80,314.53 L 1504.08,318.59 L 1516.36,323.19 L 1528.64,329.69 L 1540.92,337.52 L 1553.20,345.44 L 1565.48,355.64 L 1577.76,366.96 L 1590.04,377.65 L 1602.32,390.60 L 1614.60,404.09 L 1626.88,416.14 L 1639.16,429.94 L 1651.44,443.47 L 1663.72,454.84 L 1676.00,467.01 L 1688.28,477.99 L 1700.56,486.39 L 1712.84,494.35 L 1725.12,500.30 L 1737.40,503.69 L 1749.68,505.31 L 1761.96,504.40 L 1774.24,501.44 L 1786.52,495.55 L 1798.80,487.01 L 1811.08,477.41 L 1823.36,464.13 L 1835.64,448.55 L 1847.92,433.21 L 1860.20,413.98 L 1872.48,393.25 L 1884.76,374.16 L 1897.04,351.60 L 1909.32,328.65 L 1921.60,308.57 L 1933.88,286.01 L 1946.16,264.27 L 1958.44,243.77 L 1970.72,227.15 L 1983.00,209.99 L 1995.28,195.09 L 2007.56,184.13 L 2019.84,174.18 L 2032.12,167.16 L 2044.40,163.50 L 2056.68,162.22 L 2068.96,164.03 L 2081.24,168.11 L 2093.52,175.50 L 2105.80,185.64 L 2118.08,196.59 L 2130.36,211.23 L 2142.64,227.83 L 2154.92,243.70 L 2167.20,263.04 L 2179.48,283.27 L 2191.76,301.40 L 2204.04,322.24 L 2216.32,342.85 L 2228.60,360.38 L 2240.88,379.53 L 2253.16,397.42 L 2265.44,411.83 L 2277.72,426.64 L 2290.00,439.51 L 2302.28,449.04 L 2314.56,457.89 L 2326.84,464.50 L 2339.12,468.45 L 2351.40,470.92 L 2363.68,471.31 L 2375.96,470.06 L 2388.24,466.95 L 2400.52,462.27 L 2412.80,457.06 L 2425.08,450.08 L 2437.36,442.24 L 2449.64,433.81 L 2461.92,426.17 L 2474.20,417.36 L 2486.48,408.69 L 2498.76,401.39 L 2511.04,393.54 L 2523.32,386.38 L 2535.60,380.76 L 2547.88,375.16 L 2560.16,370.47 L 2572.44,367.13 L 2584.72,364.14 L 2597.00,361.96 L 2609.28,360.66 L 2621.56,359.73 L 2633.84,359.24 L 2646.12,359.05 L 2658.40,358.93 L 2670.68,358.73 L 2682.96,358.34 L 2695.24,357.48 L 2707.52,356.02 L 2719.80,354.13 L 2732.08,351.15 L 2744.36,347.21 L 2756.64,342.92 L 2768.92,337.04 L 2781.20,330.12 L 2793.48,323.26 L 2805.76,314.57 L 2818.04,305.12 L 2830.32,296.35 L 2842.60,285.93 L 2854.88,275.33 L 2867.16,266.08 L 2879.44,255.81 L 2891.72,246.12 L 2904.00,238.35 L 2916.28,230.52 L 2928.56,224.08 L 2940.84,219.29 L 2953.12,216.63 L 2965.40,215.51 L 2977.68,216.59 L 2989.96,219.45 L 3002.24,224.94 L 3014.52,232.84 L 3026.80,241.70 L 3039.08,253.96 L 3051.36,268.38 L 3063.64,282.62 L 3075.92,300.52 L 3088.20,319.89 L 3100.48,337.80 L 3112.76,359.03 L 3125.04,380.72 L 3137.32,399.76 L 3149.60,421.22 L 3161.88,441.96 L 3174.16,459.20 L 3186.44,477.52 L 3198.72,494.01 L 3200.00,495.33 M 0.00,495.33 L 11.00,506.67 L 23.28,518.86 L 35.56,528.37 L 47.84,534.34 L 60.12,538.34 L 72.40,539.25 L 84.68,537.48 L 96.96,532.57 L 109.24,524.65 L 121.52,515.39 L 133.80,502.32 L 146.08,486.84 L 158.36,471.56 L 170.64,452.42 L 182.92,431.86 L 195.20,413.01 L 207.48,390.85 L 219.76,368.44 L 232.04,346.21 L 244.32,327.21 L 256.60,306.38 L 268.88,286.82 L 281.16,271.01 L 293.44,254.69 L 305.72,240.47 L 318.00,229.91 L 330.28,220.09 L 342.56,212.78 L 354.84,208.46 L 367.12,205.88 L 379.40,205.73 L 391.68,207.50 L 403.96,211.56 L 416.24,217.58 L 428.52,224.26 L 440.80,233.29 L 453.08,243.53 L 465.36,253.24 L 477.64,264.93 L 489.92,276.96 L 502.20,287.54 L 514.48,299.44 L 526.76,310.92 L 539.04,320.43 L 551.32,330.52 L 563.60,339.65 L 575.88,346.75 L 588.16,353.79 L 600.44,359.66 L 612.72,363.85 L 625.00,367.60 L 637.28,370.31 L 649.56,371.94 L 661.84,373.07 L 674.12,373.58 L 686.40,373.66 L 698.68,373.52 L 710.96,373.30 L 723.24,373.21 L 735.52,373.36 L 747.80,373.97 L 760.08,375.15 L 772.36,376.77 L 784.64,379.34 L 796.92,382.73 L 809.20,386.39 L 821.48,391.33 L 833.76,397.02 L 846.04,402.54 L 858.32,409.33 L 870.60,416.48 L 882.88,422.88 L 895.16,430.15 L 907.44,437.15 L 919.72,442.85 L 932.00,448.67 L 944.28,453.48 L 956.56,456.69 L 968.84,459.00 L 981.12,459.67 L 993.40,458.77 L 1005.68,455.93 L 1017.96,451.05 L 1030.24,445.07 L 1042.52,436.28 L 1054.80,425.43 L 1067.08,414.33 L 1079.36,399.94 L 1091.64,383.90 L 1103.92,368.71 L 1116.20,350.26 L 1128.48,330.97 L 1140.76,313.66 L 1153.04,293.71 L 1165.32,273.95 L 1177.60,257.14 L 1189.88,238.80 L 1202.16,221.76 L 1214.44,206.40 L 1226.72,194.59 L 1239.00,183.23 L 1251.28,174.41 L 1263.56,168.95 L 1275.84,165.42 L 1288.12,164.91 L 1300.40,166.97 L 1312.68,172.20 L 1324.96,180.41 L 1337.24,189.94 L 1349.52,203.37 L 1361.80,219.26 L 1374.08,234.95 L 1386.36,254.65 L 1398.64,275.87 L 1410.92,295.38 L 1423.20,318.37 L 1435.48,341.70 L 1447.76,362.05 L 1460.04,384.85 L 1472.32,406.76 L 1484.60,424.90 L 1496.88,444.14 L 1509.16,461.46 L 1521.44,474.82 L 1533.72,487.84 L 1546.00,498.28 L 1558.28,505.20 L 1570.56,510.53 L 1582.84,513.08 L 1595.12,513.07 L 1607.40,510.59 L 1619.68,505.63 L 1631.96,499.39 L 1644.24,490.32 L 1656.52,479.43 L 1668.80,468.65 L 1681.08,455.18 L 1693.36,440.81 L 1705.64,425.86 L 1717.92,412.58 L 1730.20,397.46 L 1742.48,382.68 L 1754.76,370.25 L 1767.04,356.84 L 1779.32,344.49 L 1791.60,334.68 L 1803.88,324.74 L 1816.16,316.22 L 1828.44,309.98 L 1840.72,304.23 L 1853.00,299.91 L 1865.28,297.24 L 1877.56,295.36 L 1889.84,294.59 L 1902.12,294.69 L 1914.40,295.51 L 1926.68,296.91 L 1938.96,298.43 L 1951.24,300.34 L 1963.52,302.22 L 1975.80,303.71 L 1988.08,305.07 L 2000.36,305.95 L 2012.64,306.22 L 2024.92,305.90 L 2037.20,304.86 L 2049.48,303.35 L 2061.76,300.98 L 2074.04,297.98 L 2086.32,294.92 L 2098.60,291.04 L 2110.88,286.91 L 2123.16,283.25 L 2135.44,279.18 L 2147.72,275.46 L 2160.00,272.66 L 2172.28,270.19 L 2184.56,268.70 L 2196.84,268.41 L 2209.12,269.27 L 2221.40,271.67 L 2233.68,275.70 L 2245.96,280.64 L 2258.24,287.93 L 2270.52,296.98 L 2282.80,306.31 L 2295.08,318.49 L 2307.36,332.17 L 2319.64,345.22 L 2331.92,361.17 L 2344.20,377.97 L 2356.48,393.13 L 2368.76,410.71 L 2381.04,428.21 L 2393.32,443.18 L 2405.60,459.58 L 2417.88,474.87 L 2430.16,487.07 L 2442.44,499.36 L 2454.72,509.59 L 2467.00,516.65 L 2479.28,522.33 L 2491.56,525.31 L 2503.84,525.58 L 2516.12,523.16 L 2528.40,517.80 L 2540.68,510.72 L 2552.96,500.00 L 2565.24,486.62 L 2577.52,472.88 L 2589.80,455.11 L 2602.08,435.41 L 2614.36,416.87 L 2626.64,394.53 L 2638.92,371.35 L 2651.20,350.72 L 2663.48,327.13 L 2675.76,303.94 L 2688.04,281.59 L 2700.32,263.02 L 2712.60,243.30 L 2724.88,225.49 L 2737.16,211.73 L 2749.44,198.33 L 2761.72,187.60 L 2774.00,180.52 L 2786.28,175.18 L 2798.56,172.79 L 2810.84,173.12 L 2823.12,176.18 L 2835.40,181.98 L 2847.68,189.16 L 2859.96,199.57 L 2872.24,212.07 L 2884.52,224.47 L 2896.80,240.03 L 2909.08,256.72 L 2921.36,271.97 L 2933.64,289.81 L 2945.92,307.74 L 2958.20,323.22 L 2970.48,340.39 L 2982.76,356.71 L 2995.04,370.07 L 3007.32,384.09 L 3019.60,396.60 L 3031.88,406.18 L 3044.16,415.49 L 3056.44,423.00 L 3068.72,428.09 L 3081.00,432.25 L 3093.28,434.72 L 3105.56,435.58 L 3117.84,435.24 L 3130.12,433.64 L 3142.40,431.37 L 3154.68,427.99 L 3166.96,423.98 L 3179.24,419.57 L 3191.52,415.56 L 3200.00,412.42 M 0.00,412.42 L 3.80,411.00 L 16.08,406.65 L 28.36,403.15 L 40.64,399.63 L 52.92,396.72 L 65.20,394.75 L 77.48,393.17 L 89.76,392.33 L 102.04,392.16 L 114.32,392.56 L 126.60,393.49 L 138.88,394.64 L 151.16,396.18 L 163.44,397.80 L 175.72,399.13 L 188.00,400.35 L 200.28,401.08 L 212.56,401.15 L 224.84,400.40 L 237.12,398.61 L 249.40,396.07 L 261.68,391.95 L 273.96,386.46 L 286.24,380.48 L 298.52,372.30 L 310.80,362.73 L 323.08,353.27 L 335.36,341.34 L 347.64,328.36 L 359.92,316.31 L 372.20,301.95 L 384.48,287.24 L 396.76,274.31 L 409.04,259.74 L 421.32,245.72 L 433.60,234.15 L 445.88,222.03 L 458.16,211.39 L 470.44,202.52 L 482.72,196.43 L 495.00,191.59 L 507.28,189.20 L 519.56,189.24 L 531.84,191.81 L 544.12,197.12 L 556.40,204.01 L 568.68,214.40 L 580.96,227.34 L 593.24,240.62 L 605.52,257.84 L 617.80,276.97 L 630.08,295.02 L 642.36,316.82 L 654.64,339.52 L 666.92,359.78 L 679.20,383.02 L 691.48,405.94 L 703.76,425.39 L 716.04,446.55 L 728.32,466.20 L 740.60,481.86 L 752.88,497.71 L 765.16,511.10 L 777.44,520.61 L 789.72,528.79 L 802.00,533.97 L 814.28,535.99 L 826.56,535.41 L 838.84,531.81 L 851.12,526.26 L 863.40,517.33 L 875.68,505.83 L 887.96,493.88 L 900.24,478.33 L 912.52,461.09 L 924.80,444.90 L 937.08,425.48 L 949.36,405.46 L 961.64,385.23 L 973.92,367.66 L 986.20,348.07 L 998.48,329.33 L 1010.76,313.88 L 1023.04,297.56 L 1035.32,282.91 L 1047.60,271.60 L 1059.88,260.55 L 1072.16,251.58 L 1084.44,245.48 L 1096.72,240.51 L 1109.00,237.62 L 1121.28,236.73 L 1133.56,237.47 L 1145.84,239.90 L 1158.12,243.26 L 1170.40,248.30 L 1182.68,254.40 L 1194.96,260.40 L 1207.24,267.77 L 1219.52,275.46 L 1231.80,282.26 L 1244.08,289.89 L 1256.36,297.19 L 1268.64,303.16 L 1280.92,309.37 L 1293.20,314.83 L 1305.48,318.93 L 1317.76,322.82 L 1330.04,325.85 L 1342.32,327.83 L 1354.60,329.40 L 1366.88,330.34 L 1379.16,330.73 L 1391.44,330.86 L 1403.72,330.80 L 1416.00,330.74 L 1428.28,330.84 L 1440.56,331.31 L 1452.84,332.32 L 1465.12,333.80 L 1477.40,336.28 L 1489.68,339.74 L 1501.96,343.63 L 1514.24,349.13 L 1526.52,355.76 L 1538.80,362.47 L 1551.08,371.13 L 1563.36,380.75 L 1575.64,389.84 L 1587.92,400.84 L 1600.20,412.28 L 1612.48,422.47 L 1624.76,434.08 L 1637.04,445.37 L 1649.32,454.77 L 1661.60,464.69 L 1673.88,473.44 L 1686.16,479.93 L 1698.44,485.77 L 1710.72,489.69 L 1723.00,491.38 L 1735.28,491.19 L 1747.56,488.61 L 1759.84,484.32 L 1772.12,477.08 L 1784.40,467.37 L 1796.68,456.92 L 1808.96,442.85 L 1821.24,426.71 L 1833.52,411.06 L 1845.80,391.69 L 1858.08,371.04 L 1870.36,352.21 L 1882.64,330.16 L 1894.92,307.94 L 1907.20,288.67 L 1919.48,267.22 L 1931.76,246.80 L 1944.04,227.78 L 1956.32,212.60 L 1968.60,197.22 L 1980.88,184.23 L 1993.16,175.03 L 2005.44,167.19 L 2017.72,162.33 L 2030.00,160.62 L 2042.28,161.59 L 2054.56,165.65 L 2066.84,171.69 L 2079.12,181.28 L 2091.40,193.57 L 2103.68,206.32 L 2115.96,222.94 L 2128.24,241.40 L 2140.52,258.78 L 2152.80,279.70 L 2165.08,301.34 L 2177.36,320.55 L 2189.64,342.45 L 2201.92,363.90 L 2214.20,382.00 L 2226.48,401.59 L 2238.76,419.70 L 2251.04,434.10 L 2263.32,448.70 L 2275.60,461.13 L 2287.88,470.10 L 2300.16,478.09 L 2312.44,483.65 L 2324.72,486.52 L 2337.00,487.58 L 2349.28,486.39 L 2361.56,483.62 L 2373.84,478.66 L 2386.12,472.01 L 2398.40,464.99 L 2410.68,455.86 L 2422.96,445.82 L 2435.24,435.15 L 2447.52,425.54 L 2459.80,414.48 L 2472.08,403.59 L 2484.36,394.39 L 2496.64,384.44 L 2508.92,375.27 L 2521.20,367.99 L 2533.48,360.61 L 2545.76,354.29 L 2558.04,349.65 L 2570.32,345.35 L 2582.60,342.06 L 2594.88,339.95 L 2607.16,338.29 L 2619.44,337.30 L 2631.72,336.84 L 2644.00,336.64 L 2656.28,336.58 L 2668.56,336.50 L 2680.84,336.21 L 2693.12,335.53 L 2705.40,334.49 L 2717.68,332.68 L 2729.96,330.09 L 2742.24,327.13 L 2754.52,322.92 L 2766.80,317.81 L 2779.08,312.64 L 2791.36,305.99 L 2803.64,298.66 L 2815.92,291.80 L 2828.20,283.61 L 2840.48,275.25 L 2852.76,267.98 L 2865.04,259.95 L 2877.32,252.45 L 2889.60,246.54 L 2901.88,240.76 L 2914.16,236.27 L 2926.44,233.30 L 2938.72,232.11 L 2951.00,232.54 L 2963.28,234.99 L 2975.56,238.88 L 2987.84,245.38 L 3000.12,254.08 L 3012.40,263.45 L 3024.68,276.10 L 3036.96,290.67 L 3049.24,304.86 L 3061.52,322.49 L 3073.80,341.37 L 3086.08,358.66 L 3098.36,379.00 L 3110.64,399.58 L 3122.92,417.49 L 3135.20,437.50 L 3147.48,456.62 L 3159.76,472.32 L 3172.04,488.75 L 3184.32,503.24 L 3196.60,514.07 L 3200.00,516.85 M 0.00,516.85 L 8.88,524.10 L 21.16,531.39 L 33.44,535.40 L 45.72,537.14 L 58.00,535.81 L 70.28,532.11 L 82.56,525.04 L 94.84,515.04 L 107.12,504.04 L 119.40,489.09 L 131.68,471.86 L 143.96,455.18 L 156.24,434.60 L 168.52,412.78 L 180.80,392.98 L 193.08,369.94 L 205.36,346.86 L 217.64,324.17 L 229.92,304.96 L 242.20,284.10 L 254.48,264.74 L 266.76,249.29 L 279.04,233.59 L 291.32,220.21 L 303.60,210.54 L 315.88,201.94 L 328.16,196.03 L 340.44,193.07 L 352.72,192.20 L 365.00,193.90 L 377.28,197.39 L 389.56,203.50 L 401.84,211.66 L 414.12,220.27 L 426.40,231.53 L 438.68,244.02 L 450.96,255.70 L 463.24,269.61 L 475.52,283.82 L 487.80,296.25 L 500.08,310.18 L 512.36,323.57 L 524.64,334.66 L 536.92,346.41 L 549.20,357.03 L 561.48,365.30 L 573.76,373.50 L 586.04,380.32 L 598.32,385.17 L 610.60,389.46 L 622.88,392.51 L 635.16,394.23 L 647.44,395.26 L 659.72,395.45 L 672.00,395.06 L 684.28,394.18 L 696.56,393.01 L 708.84,391.76 L 721.12,390.75 L 733.40,389.85 L 745.68,389.38 L 757.96,389.42 L 770.24,390.08 L 782.52,391.44 L 794.80,393.25 L 807.08,396.02 L 819.36,399.48 L 831.64,403.03 L 843.92,407.57 L 856.20,412.49 L 868.48,416.96 L 880.76,422.09 L 893.04,427.03 L 905.32,431.02 L 917.60,434.99 L 929.88,438.10 L 942.16,439.94 L 954.44,440.85 L 966.72,440.30 L 979.00,438.51 L 991.28,434.83 L 1003.56,429.33 L 1015.84,422.99 L 1028.12,414.00 L 1040.40,403.18 L 1052.68,392.30 L 1064.96,378.35 L 1077.24,362.99 L 1089.52,348.56 L 1101.80,331.18 L 1114.08,313.15 L 1126.36,297.09 L 1138.64,278.73 L 1150.92,260.72 L 1163.20,245.54 L 1175.48,229.19 L 1187.76,214.23 L 1200.04,201.03 L 1212.32,191.15 L 1224.60,182.03 L 1236.88,175.47 L 1249.16,171.97 L 1261.44,170.66 L 1273.72,172.31 L 1286.00,176.20 L 1298.28,183.42 L 1310.56,193.52 L 1322.84,204.60 L 1335.12,219.65 L 1347.40,236.99 L 1359.68,253.81 L 1371.96,274.62 L 1384.24,296.74 L 1396.52,316.86 L 1408.80,340.34 L 1421.08,363.94 L 1433.36,384.34 L 1445.64,406.98 L 1457.92,428.51 L 1470.20,446.14 L 1482.48,464.58 L 1494.76,480.89 L 1507.04,493.22 L 1519.32,504.87 L 1531.60,513.77 L 1543.88,519.22 L 1556.16,522.72 L 1568.44,523.32 L 1580.72,521.52 L 1593.00,516.92 L 1605.28,509.76 L 1617.56,501.57 L 1629.84,490.25 L 1642.12,477.11 L 1654.40,464.38 L 1666.68,448.72 L 1678.96,432.23 L 1691.24,415.25 L 1703.52,400.28 L 1715.80,383.34 L 1728.08,366.89 L 1740.36,353.13 L 1752.64,338.37 L 1764.92,324.85 L 1777.20,314.19 L 1789.48,303.46 L 1801.76,294.38 L 1814.04,287.83 L 1826.32,281.93 L 1838.60,277.70 L 1850.88,275.29 L 1863.16,273.92 L 1875.44,273.88 L 1887.72,274.78 L 1900.00,276.73 L 1912.28,279.43 L 1924.56,282.25 L 1936.84,285.79 L 1949.12,289.45 L 1961.40,292.60 L 1973.68,295.98 L 1985.96,298.95 L 1998.24,301.12 L 2010.52,303.02 L 2022.80,304.22 L 2035.08,304.69 L 2047.36,304.56 L 2059.64,303.76 L 2071.92,302.58 L 2084.20,300.77 L 2096.48,298.62 L 2108.76,296.59 L 2121.04,294.26 L 2133.32,292.12 L 2145.60,290.57 L 2157.88,289.34 L 2170.16,288.91 L 2182.44,289.46 L 2194.72,290.89 L 2207.00,293.73 L 2219.28,297.98 L 2231.56,302.92 L 2243.84,309.99 L 2256.12,318.60 L 2268.40,327.36 L 2280.68,338.70 L 2292.96,351.32 L 2305.24,363.29 L 2317.52,377.83 L 2329.80,393.05 L 2342.08,406.70 L 2354.36,422.42 L 2366.64,437.95 L 2378.92,451.11 L 2391.20,465.36 L 2403.48,478.45 L 2415.76,488.69 L 2428.04,498.72 L 2440.32,506.71 L 2452.60,511.82 L 2464.88,515.34 L 2477.16,516.21 L 2489.44,514.72 L 2501.72,510.39 L 2514.00,503.24 L 2526.28,494.73 L 2538.56,482.53 L 2550.84,467.83 L 2563.12,453.11 L 2575.40,434.40 L 2587.68,413.97 L 2599.96,394.97 L 2612.24,372.32 L 2624.52,349.06 L 2636.80,328.54 L 2649.08,305.29 L 2661.36,282.67 L 2673.64,261.09 L 2685.92,243.38 L 2698.20,224.82 L 2710.48,208.37 L 2722.76,195.94 L 2735.04,184.21 L 2747.32,175.29 L 2759.60,169.91 L 2771.88,166.60 L 2784.16,166.33 L 2796.44,168.57 L 2808.72,173.86 L 2821.00,181.91 L 2833.28,191.06 L 2845.56,203.70 L 2857.84,218.39 L 2870.12,232.66 L 2882.40,250.27 L 2894.68,268.91 L 2906.96,285.76 L 2919.24,305.30 L 2931.52,324.77 L 2943.80,341.46 L 2956.08,359.83 L 2968.36,377.15 L 2980.64,391.22 L 2992.92,405.85 L 3005.20,418.74 L 3017.48,428.47 L 3029.76,437.73 L 3042.04,444.97 L 3054.32,449.64 L 3066.60,453.11 L 3078.88,454.68 L 3091.16,454.59 L 3103.44,452.97 L 3115.72,449.92 L 3128.00,446.24 L 3140.28,441.11 L 3152.56,435.21 L 3164.84,428.80 L 3177.12,422.96 L 3189.40,416.24 L 3200.00,410.57 M 0.00,410.57 L 1.68,409.67 L 13.96,404.21 L 26.24,398.43 L 38.52,393.28 L 50.80,389.37 L 63.08,385.64 L 75.36,382.72 L 87.64,380.81 L 99.92,379.33 L 112.20,378.52 L 124.48,378.26 L 136.76,378.36 L 149.04,378.72 L 161.32,379.10 L 173.60,379.44 L 185.88,379.49 L 198.16,379.15 L 210.44,378.15 L 222.72,376.33 L 235.00,373.95 L 247.28,370.23 L 259.56,365.36 L 271.84,360.10 L 284.12,352.94 L 296.40,344.58 L 308.68,336.34 L 320.96,325.95 L 333.24,314.68 L 345.52,304.24 L 357.80,291.84 L 370.08,279.18 L 382.36,268.12 L 394.64,255.75 L 406.92,243.96 L 419.20,234.36 L 431.48,224.49 L 443.76,216.07 L 456.04,209.38 L 468.32,205.14 L 480.60,202.33 L 492.88,201.85 L 505.16,203.47 L 517.44,207.70 L 529.72,214.51 L 542.00,222.56 L 554.28,234.10 L 566.56,247.99 L 578.84,261.94 L 591.12,279.71 L 603.40,299.16 L 615.68,317.31 L 627.96,339.02 L 640.24,361.39 L 652.52,381.18 L 664.80,403.68 L 677.08,425.64 L 689.36,444.09 L 701.64,463.94 L 713.92,482.09 L 726.20,496.30 L 738.48,510.37 L 750.76,521.84 L 763.04,529.58 L 775.32,535.65 L 787.60,538.65 L 799.88,538.73 L 812.16,535.91 L 824.44,530.05 L 836.72,522.54 L 849.00,511.41 L 861.28,497.77 L 873.56,484.02 L 885.84,466.50 L 898.12,447.41 L 910.40,429.72 L 922.68,408.73 L 934.96,387.31 L 947.24,365.87 L 959.52,347.40 L 971.80,326.97 L 984.08,307.61 L 996.36,291.80 L 1008.64,275.29 L 1020.92,260.66 L 1033.20,249.56 L 1045.48,238.96 L 1057.76,230.66 L 1070.04,225.33 L 1082.32,221.43 L 1094.60,219.80 L 1106.88,220.17 L 1119.16,222.49 L 1131.44,226.67 L 1143.72,231.66 L 1156.00,238.69 L 1168.28,246.87 L 1180.56,254.75 L 1192.84,264.33 L 1205.12,274.27 L 1217.40,283.03 L 1229.68,292.91 L 1241.96,302.42 L 1254.24,310.29 L 1266.52,318.60 L 1278.80,326.06 L 1291.08,331.82 L 1303.36,337.48 L 1315.64,342.13 L 1327.92,345.39 L 1340.20,348.26 L 1352.48,350.30 L 1364.76,351.50 L 1377.04,352.33 L 1389.32,352.77 L 1401.60,352.96 L 1413.88,353.13 L 1426.16,353.44 L 1438.44,354.07 L 1450.72,355.03 L 1463.00,356.72 L 1475.28,359.17 L 1487.56,362.03 L 1499.84,366.16 L 1512.12,371.25 L 1524.40,376.48 L 1536.68,383.32 L 1548.96,390.99 L 1561.24,398.29 L 1573.52,407.16 L 1585.80,416.41 L 1598.08,424.65 L 1610.36,434.01 L 1622.64,443.05 L 1634.92,450.50 L 1647.20,458.23 L 1659.48,464.86 L 1671.76,469.57 L 1684.04,473.46 L 1696.32,475.57 L 1708.60,475.79 L 1720.88,474.07 L 1733.16,470.13 L 1745.44,464.81 L 1757.72,456.58 L 1770.00,446.10 L 1782.28,435.14 L 1794.56,420.70 L 1806.84,404.41 L 1819.12,388.83 L 1831.40,369.74 L 1843.68,349.60 L 1855.96,331.40 L 1868.24,310.26 L 1880.52,289.15 L 1892.80,271.02 L 1905.08,251.04 L 1917.36,232.25 L 1929.64,215.01 L 1941.92,201.49 L 1954.20,188.12 L 1966.48,177.23 L 1978.76,169.93 L 1991.04,164.31 L 2003.32,161.70 L 2015.60,161.96 L 2027.88,165.17 L 2040.16,171.44 L 2052.44,179.35 L 2064.72,191.02 L 2077.00,205.28 L 2089.28,219.67 L 2101.56,238.02 L 2113.84,258.06 L 2126.12,276.68 L 2138.40,298.85 L 2150.68,321.55 L 2162.96,341.52 L 2175.24,364.07 L 2187.52,385.96 L 2199.80,404.26 L 2212.08,423.86 L 2224.36,441.76 L 2236.64,455.79 L 2248.92,469.76 L 2261.20,481.34 L 2273.48,489.39 L 2285.76,496.16 L 2298.04,500.31 L 2310.32,501.80 L 2322.60,501.15 L 2334.88,498.10 L 2347.16,493.61 L 2359.44,486.59 L 2371.72,477.79 L 2384.00,468.85 L 2396.28,457.48 L 2408.56,445.18 L 2420.84,432.27 L 2433.12,420.71 L 2445.40,407.48 L 2457.68,394.49 L 2469.96,383.53 L 2482.24,371.67 L 2494.52,360.72 L 2506.80,352.00 L 2519.08,343.13 L 2531.36,335.51 L 2543.64,329.88 L 2555.92,324.64 L 2568.20,320.63 L 2580.48,318.05 L 2592.76,316.08 L 2605.04,315.00 L 2617.32,314.66 L 2629.60,314.80 L 2641.88,315.30 L 2654.16,315.90 L 2666.44,316.57 L 2678.72,317.05 L 2691.00,317.19 L 2703.28,316.89 L 2715.56,315.97 L 2727.84,314.59 L 2740.12,312.31 L 2752.40,309.23 L 2764.68,305.91 L 2776.96,301.44 L 2789.24,296.34 L 2801.52,291.45 L 2813.80,285.51 L 2826.08,279.39 L 2838.36,274.04 L 2850.64,268.14 L 2862.92,262.69 L 2875.20,258.49 L 2887.48,254.55 L 2899.76,251.76 L 2912.04,250.33 L 2924.32,250.35 L 2936.60,251.97 L 2948.88,255.43 L 2961.16,260.03 L 2973.44,267.13 L 2985.72,276.21 L 2998.00,285.73 L 3010.28,298.34 L 3022.56,312.65 L 3034.84,326.41 L 3047.12,343.36 L 3059.40,361.33 L 3071.68,377.67 L 3083.96,396.73 L 3096.24,415.86 L 3108.52,432.36 L 3120.80,450.61 L 3133.08,467.84 L 3145.36,481.80 L 3157.64,496.15 L 3169.92,508.47 L 3182.20,517.37 L 3194.48,525.15 L 3200.00,527.42 M 0.00,527.42 L 6.76,530.20 L 19.04,532.24 L 31.32,531.77 L 43.60,528.28 L 55.88,522.75 L 68.16,513.69 L 80.44,501.81 L 92.72,489.28 L 105.00,472.71 L 117.28,454.05 L 129.56,436.25 L 141.84,414.58 L 154.12,391.86 L 166.40,371.47 L 178.68,347.94 L 190.96,324.61 L 203.24,301.89 L 215.52,282.85 L 227.80,262.38 L 240.08,243.64 L 252.36,228.91 L 264.64,214.22 L 276.92,202.05 L 289.20,193.60 L 301.48,186.56 L 313.76,182.35 L 326.04,181.01 L 338.32,182.08 L 350.60,185.84 L 362.88,191.20 L 375.16,199.51 L 387.44,209.90 L 399.72,220.48 L 412.00,234.00 L 424.28,248.71 L 436.56,262.29 L 448.84,278.32 L 461.12,294.56 L 473.40,308.67 L 485.68,324.41 L 497.96,339.46 L 510.24,351.86 L 522.52,364.96 L 534.80,376.74 L 547.08,385.85 L 559.36,394.81 L 571.64,402.19 L 583.92,407.34 L 596.20,411.76 L 608.48,414.70 L 620.76,416.15 L 633.04,416.66 L 645.32,416.10 L 657.60,414.90 L 669.88,412.88 L 682.16,410.40 L 694.44,407.65 L 706.72,405.20 L 719.00,402.51 L 731.28,400.12 L 743.56,398.39 L 755.84,396.94 L 768.12,396.13 L 780.40,395.99 L 792.68,396.51 L 804.96,397.72 L 817.24,399.31 L 829.52,401.65 L 841.80,404.43 L 854.08,407.09 L 866.36,410.26 L 878.64,413.35 L 890.92,415.84 L 903.20,418.23 L 915.48,419.95 L 927.76,420.71 L 940.04,420.58 L 952.32,419.20 L 964.60,416.85 L 976.88,412.75 L 989.16,407.05 L 1001.44,400.72 L 1013.72,391.96 L 1026.00,381.60 L 1038.28,371.29 L 1050.56,358.21 L 1062.84,343.91 L 1075.12,330.57 L 1087.40,314.62 L 1099.68,298.18 L 1111.96,283.63 L 1124.24,267.14 L 1136.52,251.11 L 1148.80,237.75 L 1161.08,223.54 L 1173.36,210.79 L 1185.64,199.83 L 1197.92,191.92 L 1210.20,185.06 L 1222.48,180.70 L 1234.76,179.10 L 1247.04,179.89 L 1259.32,183.54 L 1271.60,189.09 L 1283.88,198.08 L 1296.16,209.80 L 1308.44,222.16 L 1320.72,238.51 L 1333.00,256.95 L 1345.28,274.58 L 1357.56,296.09 L 1369.84,318.71 L 1382.12,339.08 L 1394.40,362.63 L 1406.68,386.08 L 1418.96,406.15 L 1431.24,428.21 L 1443.52,448.95 L 1455.80,465.71 L 1468.08,482.97 L 1480.36,497.92 L 1492.64,508.91 L 1504.92,518.88 L 1517.20,525.96 L 1529.48,529.71 L 1541.76,531.17 L 1554.04,529.64 L 1566.32,525.93 L 1578.60,519.10 L 1590.88,509.69 L 1603.16,499.53 L 1615.44,485.98 L 1627.72,470.65 L 1640.00,456.06 L 1652.28,438.36 L 1664.56,419.92 L 1676.84,401.13 L 1689.12,384.69 L 1701.40,366.22 L 1713.68,348.41 L 1725.96,333.62 L 1738.24,317.87 L 1750.52,303.57 L 1762.80,292.40 L 1775.08,281.31 L 1787.36,272.09 L 1799.64,265.60 L 1811.92,259.99 L 1824.20,256.26 L 1836.48,254.48 L 1848.76,254.02 L 1861.04,255.09 L 1873.32,257.14 L 1885.60,260.55 L 1897.88,264.88 L 1910.16,269.25 L 1922.44,274.68 L 1934.72,280.35 L 1947.00,285.34 L 1959.28,290.88 L 1971.56,296.07 L 1983.84,300.21 L 1996.12,304.36 L 2008.40,307.80 L 2020.68,310.20 L 2032.96,312.22 L 2045.24,313.50 L 2057.52,314.05 L 2069.80,314.12 L 2082.08,313.70 L 2094.36,313.06 L 2106.64,312.16 L 2118.92,311.27 L 2131.20,310.65 L 2143.48,310.31 L 2155.76,310.53 L 2168.04,311.52 L 2180.32,313.15 L 2192.60,316.00 L 2204.88,320.04 L 2217.16,324.60 L 2229.44,331.05 L 2241.72,338.81 L 2254.00,346.66 L 2266.28,356.77 L 2278.56,367.98 L 2290.84,378.57 L 2303.12,391.40 L 2315.40,404.76 L 2327.68,416.69 L 2339.96,430.35 L 2352.24,443.73 L 2364.52,454.97 L 2376.80,466.98 L 2389.08,477.82 L 2401.36,486.09 L 2413.64,493.90 L 2425.92,499.71 L 2438.20,502.98 L 2450.48,504.47 L 2462.76,503.44 L 2475.04,500.38 L 2487.32,494.40 L 2499.60,485.77 L 2511.88,476.10 L 2524.16,462.75 L 2536.44,447.12 L 2548.72,431.75 L 2561.00,412.50 L 2573.28,391.76 L 2585.56,372.68 L 2597.84,350.14 L 2610.12,327.22 L 2622.40,307.18 L 2634.68,284.69 L 2646.96,263.03 L 2659.24,242.62 L 2671.52,226.08 L 2683.80,209.03 L 2696.08,194.25 L 2708.36,183.40 L 2720.64,173.59 L 2732.92,166.71 L 2745.20,163.18 L 2757.48,162.05 L 2769.76,164.01 L 2782.04,168.22 L 2794.32,175.76 L 2806.60,186.04 L 2818.88,197.12 L 2831.16,211.89 L 2843.44,228.63 L 2855.72,244.61 L 2868.00,264.06 L 2880.28,284.40 L 2892.56,302.61 L 2904.84,323.53 L 2917.12,344.20 L 2929.40,361.78 L 2941.68,380.97 L 2953.96,398.90 L 2966.24,413.32 L 2978.52,428.13 L 2990.80,440.98 L 3003.08,450.48 L 3015.36,459.29 L 3027.64,465.84 L 3039.92,469.73 L 3052.20,472.12 L 3064.48,472.41 L 3076.76,471.06 L 3089.04,467.84 L 3101.32,463.03 L 3113.60,457.71 L 3125.88,450.59 L 3138.16,442.61 L 3150.44,434.03 L 3162.72,426.26 L 3175.00,417.30 L 3187.28,408.48 L 3199.56,401.05 L 3200.00,400.76 M 0.00,400.76 L 11.84,393.06 L 24.12,385.75 L 36.40,380.02 L 48.68,374.29 L 60.96,369.49 L 73.24,366.05 L 85.52,362.96 L 97.80,360.70 L 110.08,359.33 L 122.36,358.34 L 134.64,357.81 L 146.92,357.59 L 159.20,357.45 L 171.48,357.24 L 183.76,356.86 L 196.04,356.03 L 208.32,354.61 L 220.60,352.76 L 232.88,349.85 L 245.16,345.99 L 257.44,341.78 L 269.72,336.00 L 282.00,329.19 L 294.28,322.43 L 306.56,313.88 L 318.84,304.56 L 331.12,295.92 L 343.40,285.65 L 355.68,275.19 L 367.96,266.08 L 380.24,255.96 L 392.52,246.42 L 404.80,238.77 L 417.08,231.08 L 429.36,224.78 L 441.64,220.12 L 453.92,217.56 L 466.20,216.55 L 478.48,217.74 L 490.76,220.68 L 503.04,226.25 L 515.32,234.21 L 527.60,243.12 L 539.88,255.42 L 552.16,269.86 L 564.44,284.11 L 576.72,302.00 L 589.00,321.36 L 601.28,339.23 L 613.56,360.42 L 625.84,382.05 L 638.12,401.02 L 650.40,422.39 L 662.68,443.03 L 674.96,460.18 L 687.24,478.38 L 699.52,494.74 L 711.80,507.29 L 724.08,519.34 L 736.36,528.70 L 748.64,534.54 L 760.92,538.39 L 773.20,539.15 L 785.48,537.25 L 797.76,532.19 L 810.04,524.13 L 822.32,514.75 L 834.60,501.54 L 846.88,485.94 L 859.16,470.56 L 871.44,451.32 L 883.72,430.66 L 896.00,411.73 L 908.28,389.50 L 920.56,367.04 L 932.84,344.76 L 945.12,325.74 L 957.40,304.89 L 969.68,285.33 L 981.96,269.54 L 994.24,253.25 L 1006.52,239.07 L 1018.80,228.55 L 1031.08,218.81 L 1043.36,211.58 L 1055.64,207.34 L 1067.92,204.86 L 1080.20,204.83 L 1092.48,206.71 L 1104.76,210.90 L 1117.04,217.06 L 1129.32,223.87 L 1141.60,233.05 L 1153.88,243.43 L 1166.16,253.27 L 1178.44,265.11 L 1190.72,277.29 L 1203.00,287.99 L 1215.28,300.04 L 1227.56,311.65 L 1239.84,321.27 L 1252.12,331.48 L 1264.40,340.72 L 1276.68,347.91 L 1288.96,355.04 L 1301.24,360.99 L 1313.52,365.23 L 1325.80,369.02 L 1338.08,371.78 L 1350.36,373.42 L 1362.64,374.55 L 1374.92,375.06 L 1387.20,375.12 L 1399.48,374.94 L 1411.76,374.67 L 1424.04,374.51 L 1436.32,374.60 L 1448.60,375.11 L 1460.88,376.20 L 1473.16,377.72 L 1485.44,380.17 L 1497.72,383.43 L 1510.00,386.97 L 1522.28,391.77 L 1534.56,397.32 L 1546.84,402.70 L 1559.12,409.34 L 1571.40,416.34 L 1583.68,422.61 L 1595.96,429.73 L 1608.24,436.59 L 1620.52,442.18 L 1632.80,447.86 L 1645.08,452.56 L 1657.36,455.66 L 1669.64,457.87 L 1681.92,458.45 L 1694.20,457.48 L 1706.48,454.57 L 1718.76,449.64 L 1731.04,443.62 L 1743.32,434.80 L 1755.60,423.94 L 1767.88,412.85 L 1780.16,398.47 L 1792.44,382.47 L 1804.72,367.31 L 1817.00,348.93 L 1829.28,329.70 L 1841.56,312.47 L 1853.84,292.61 L 1866.12,272.97 L 1878.40,256.25 L 1890.68,238.04 L 1902.96,221.14 L 1915.24,205.91 L 1927.52,194.23 L 1939.80,183.02 L 1952.08,174.35 L 1964.36,169.02 L 1976.64,165.64 L 1988.92,165.28 L 2001.20,167.47 L 2013.48,172.83 L 2025.76,181.17 L 2038.04,190.82 L 2050.32,204.36 L 2062.60,220.36 L 2074.88,236.14 L 2087.16,255.92 L 2099.44,277.21 L 2111.72,296.77 L 2124.00,319.81 L 2136.28,343.17 L 2148.56,363.53 L 2160.84,386.33 L 2173.12,408.24 L 2185.40,426.36 L 2197.68,445.55 L 2209.96,462.81 L 2222.24,476.12 L 2234.52,489.06 L 2246.80,499.41 L 2259.08,506.24 L 2271.36,511.45 L 2283.64,513.88 L 2295.92,513.76 L 2308.20,511.14 L 2320.48,506.03 L 2332.76,499.67 L 2345.04,490.44 L 2357.32,479.41 L 2369.60,468.49 L 2381.88,454.88 L 2394.16,440.36 L 2406.44,425.27 L 2418.72,411.87 L 2431.00,396.62 L 2443.28,381.72 L 2455.56,369.19 L 2467.84,355.69 L 2480.12,343.24 L 2492.40,333.37 L 2504.68,323.36 L 2516.96,314.80 L 2529.24,308.52 L 2541.52,302.74 L 2553.80,298.42 L 2566.08,295.76 L 2578.36,293.90 L 2590.64,293.16 L 2602.92,293.30 L 2615.20,294.19 L 2627.48,295.66 L 2639.76,297.27 L 2652.04,299.27 L 2664.32,301.26 L 2676.60,302.86 L 2688.88,304.35 L 2701.16,305.36 L 2713.44,305.75 L 2725.72,305.58 L 2738.00,304.68 L 2750.28,303.31 L 2762.56,301.09 L 2774.84,298.24 L 2787.12,295.30 L 2799.40,291.57 L 2811.68,287.58 L 2823.96,284.03 L 2836.24,280.09 L 2848.52,276.48 L 2860.80,273.77 L 2873.08,271.40 L 2885.36,269.99 L 2897.64,269.77 L 2909.92,270.67 L 2922.20,273.12 L 2934.48,277.18 L 2946.76,282.13 L 2959.04,289.42 L 2971.32,298.45 L 2983.60,307.75 L 2995.88,319.89 L 3008.16,333.51 L 3020.44,346.50 L 3032.72,362.36 L 3045.00,379.07 L 3057.28,394.14 L 3069.56,411.60 L 3081.84,428.98 L 3094.12,443.83 L 3106.40,460.09 L 3118.68,475.24 L 3130.96,487.31 L 3143.24,499.45 L 3155.52,509.53 L 3167.80,516.45 L 3180.08,521.99 L 3192.36,524.82 L 3200.00,524.92 M 0.00,524.92 L 4.64,524.97 L 16.92,522.42 L 29.20,516.93 L 41.48,509.75 L 53.76,498.92 L 66.04,485.44 L 78.32,471.63 L 90.60,453.78 L 102.88,434.02 L 115.16,415.44 L 127.44,393.06 L 139.72,369.87 L 152.00,349.23 L 164.28,325.65 L 176.56,302.49 L 188.84,280.17 L 201.12,261.65 L 213.40,241.99 L 225.68,224.27 L 237.96,210.59 L 250.24,197.29 L 262.52,186.67 L 274.80,179.70 L 287.08,174.49 L 299.36,172.24 L 311.64,172.69 L 323.92,175.89 L 336.20,181.84 L 348.48,189.16 L 360.76,199.72 L 373.04,212.36 L 385.32,224.89 L 397.60,240.59 L 409.88,257.42 L 422.16,272.78 L 434.44,290.75 L 446.72,308.79 L 459.00,324.36 L 471.28,341.62 L 483.56,358.02 L 495.84,371.44 L 508.12,385.51 L 520.40,398.06 L 532.68,407.66 L 544.96,416.98 L 557.24,424.49 L 569.52,429.56 L 581.80,433.68 L 594.08,436.10 L 606.36,436.92 L 618.64,436.50 L 630.92,434.81 L 643.20,432.46 L 655.48,428.97 L 667.76,424.84 L 680.04,420.30 L 692.32,416.18 L 704.60,411.48 L 716.88,406.98 L 729.16,403.35 L 741.44,399.68 L 753.72,396.62 L 766.00,394.52 L 778.28,392.79 L 790.56,391.81 L 802.84,391.52 L 815.12,391.79 L 827.40,392.60 L 839.68,393.64 L 851.96,395.08 L 864.24,396.60 L 876.52,397.85 L 888.80,399.01 L 901.08,399.68 L 913.36,399.70 L 925.64,398.93 L 937.92,397.12 L 950.20,394.58 L 962.48,390.48 L 974.76,385.01 L 987.04,379.07 L 999.32,370.95 L 1011.60,361.45 L 1023.88,352.06 L 1036.16,340.22 L 1048.44,327.34 L 1060.72,315.39 L 1073.00,301.16 L 1085.28,286.58 L 1097.56,273.77 L 1109.84,259.35 L 1122.12,245.47 L 1134.40,234.03 L 1146.68,222.06 L 1158.96,211.57 L 1171.24,202.85 L 1183.52,196.89 L 1195.80,192.19 L 1208.08,189.93 L 1220.36,190.08 L 1232.64,192.77 L 1244.92,198.19 L 1257.20,205.17 L 1269.48,215.64 L 1281.76,228.66 L 1294.04,242.00 L 1306.32,259.27 L 1318.60,278.43 L 1330.88,296.50 L 1343.16,318.31 L 1355.44,341.00 L 1367.72,361.24 L 1380.00,384.45 L 1392.28,407.31 L 1404.56,426.70 L 1416.84,447.79 L 1429.12,467.35 L 1441.40,482.92 L 1453.68,498.66 L 1465.96,511.93 L 1478.24,521.33 L 1490.52,529.37 L 1502.80,534.41 L 1515.08,536.30 L 1527.36,535.58 L 1539.64,531.82 L 1551.92,526.14 L 1564.20,517.06 L 1576.48,505.42 L 1588.76,493.34 L 1601.04,477.66 L 1613.32,460.28 L 1625.60,443.99 L 1637.88,424.46 L 1650.16,404.33 L 1662.44,384.01 L 1674.72,366.37 L 1687.00,346.71 L 1699.28,327.92 L 1711.56,312.43 L 1723.84,296.09 L 1736.12,281.42 L 1748.40,270.12 L 1760.68,259.08 L 1772.96,250.14 L 1785.24,244.08 L 1797.52,239.17 L 1809.80,236.36 L 1822.08,235.54 L 1834.36,236.37 L 1846.64,238.91 L 1858.92,242.37 L 1871.20,247.54 L 1883.48,253.77 L 1895.76,259.89 L 1908.04,267.41 L 1920.32,275.25 L 1932.60,282.18 L 1944.88,289.96 L 1957.16,297.41 L 1969.44,303.51 L 1981.72,309.86 L 1994.00,315.46 L 2006.28,319.68 L 2018.56,323.69 L 2030.84,326.84 L 2043.12,328.92 L 2055.40,330.59 L 2067.68,331.60 L 2079.96,332.07 L 2092.24,332.25 L 2104.52,332.23 L 2116.80,332.20 L 2129.08,332.32 L 2141.36,332.79 L 2153.64,333.80 L 2165.92,335.25 L 2178.20,337.69 L 2190.48,341.09 L 2202.76,344.93 L 2215.04,350.34 L 2227.32,356.88 L 2239.60,363.51 L 2251.88,372.05 L 2264.16,381.55 L 2276.44,390.52 L 2288.72,401.38 L 2301.00,412.68 L 2313.28,422.75 L 2325.56,434.20 L 2337.84,445.35 L 2350.12,454.61 L 2362.40,464.38 L 2374.68,472.99 L 2386.96,479.36 L 2399.24,485.06 L 2411.52,488.85 L 2423.80,490.44 L 2436.08,490.14 L 2448.36,487.45 L 2460.64,483.08 L 2472.92,475.77 L 2485.20,466.00 L 2497.48,455.50 L 2509.76,441.40 L 2522.04,425.23 L 2534.32,409.57 L 2546.60,390.21 L 2558.88,369.58 L 2571.16,350.78 L 2583.44,328.78 L 2595.72,306.62 L 2608.00,287.41 L 2620.28,266.06 L 2632.56,245.73 L 2644.84,226.83 L 2657.12,211.75 L 2669.40,196.49 L 2681.68,183.64 L 2693.96,174.56 L 2706.24,166.86 L 2718.52,162.16 L 2730.80,160.58 L 2743.08,161.70 L 2755.36,165.91 L 2767.64,172.07 L 2779.92,181.81 L 2792.20,194.23 L 2804.48,207.11 L 2816.76,223.84 L 2829.04,242.42 L 2841.32,259.89 L 2853.60,280.90 L 2865.88,302.63 L 2878.16,321.90 L 2890.44,343.86 L 2902.72,365.35 L 2915.00,383.47 L 2927.28,403.07 L 2939.56,421.18 L 2951.84,435.58 L 2964.12,450.15 L 2976.40,462.53 L 2988.68,471.45 L 3000.96,479.37 L 3013.24,484.84 L 3025.52,487.63 L 3037.80,488.59 L 3050.08,487.28 L 3062.36,484.41 L 3074.64,479.31 L 3086.92,472.52 L 3099.20,465.38 L 3111.48,456.10 L 3123.76,445.91 L 3136.04,435.09 L 3148.32,425.34 L 3160.60,414.14 L 3172.88,403.10 L 3185.16,393.78 L 3197.44,383.70 L 3200.00,381.76 M 0.00,381.76 L 9.72,374.40 L 22.00,367.02 L 34.28,359.53 L 46.56,353.11 L 58.84,348.40 L 71.12,344.02 L 83.40,340.67 L 95.68,338.52 L 107.96,336.82 L 120.24,335.81 L 132.52,335.35 L 144.80,335.16 L 157.08,335.13 L 169.36,335.08 L 181.64,334.84 L 193.92,334.23 L 206.20,333.26 L 218.48,331.54 L 230.76,329.05 L 243.04,326.19 L 255.32,322.10 L 267.60,317.12 L 279.88,312.07 L 292.16,305.56 L 304.44,298.37 L 316.72,291.64 L 329.00,283.61 L 341.28,275.40 L 353.56,268.26 L 365.84,260.37 L 378.12,253.01 L 390.40,247.22 L 402.68,241.58 L 414.96,237.21 L 427.24,234.35 L 439.52,233.25 L 451.80,233.76 L 464.08,236.30 L 476.36,240.25 L 488.64,246.80 L 500.92,255.53 L 513.20,264.93 L 525.48,277.59 L 537.76,292.16 L 550.04,306.33 L 562.32,323.93 L 574.60,342.76 L 586.88,359.99 L 599.16,380.25 L 611.44,400.75 L 623.72,418.58 L 636.00,438.47 L 648.28,457.48 L 660.56,473.07 L 672.84,489.36 L 685.12,503.71 L 697.40,514.42 L 709.68,524.30 L 721.96,531.44 L 734.24,535.32 L 746.52,536.91 L 758.80,535.43 L 771.08,531.60 L 783.36,524.39 L 795.64,514.27 L 807.92,503.16 L 820.20,488.09 L 832.48,470.76 L 844.76,453.99 L 857.04,433.33 L 869.32,411.43 L 881.60,391.58 L 893.88,368.50 L 906.16,345.39 L 918.44,322.68 L 930.72,303.48 L 943.00,282.62 L 955.28,263.29 L 967.56,247.88 L 979.84,232.24 L 992.12,218.92 L 1004.40,209.33 L 1016.68,200.82 L 1028.96,195.02 L 1041.24,192.16 L 1053.52,191.41 L 1065.80,193.24 L 1078.08,196.85 L 1090.36,203.11 L 1102.64,211.41 L 1114.92,220.15 L 1127.20,231.57 L 1139.48,244.21 L 1151.76,256.01 L 1164.04,270.07 L 1176.32,284.42 L 1188.60,296.96 L 1200.88,311.03 L 1213.16,324.54 L 1225.44,335.72 L 1237.72,347.57 L 1250.00,358.28 L 1262.28,366.61 L 1274.56,374.88 L 1286.84,381.75 L 1299.12,386.63 L 1311.40,390.95 L 1323.68,394.00 L 1335.96,395.71 L 1348.24,396.72 L 1360.52,396.87 L 1372.80,396.44 L 1385.08,395.49 L 1397.36,394.25 L 1409.64,392.91 L 1421.92,391.81 L 1434.20,390.80 L 1446.48,390.21 L 1458.76,390.14 L 1471.04,390.66 L 1483.32,391.88 L 1495.60,393.57 L 1507.88,396.18 L 1520.16,399.50 L 1532.44,402.91 L 1544.72,407.30 L 1557.00,412.07 L 1569.28,416.42 L 1581.56,421.41 L 1593.84,426.23 L 1606.12,430.11 L 1618.40,433.96 L 1630.68,436.97 L 1642.96,438.73 L 1655.24,439.56 L 1667.52,438.94 L 1679.80,437.10 L 1692.08,433.38 L 1704.36,427.85 L 1716.64,421.50 L 1728.92,412.51 L 1741.20,401.71 L 1753.48,390.85 L 1765.76,376.96 L 1778.04,361.65 L 1790.32,347.29 L 1802.60,329.99 L 1814.88,312.06 L 1827.16,296.09 L 1839.44,277.85 L 1851.72,259.97 L 1864.00,244.90 L 1876.28,228.68 L 1888.56,213.87 L 1900.84,200.81 L 1913.12,191.07 L 1925.40,182.11 L 1937.68,175.69 L 1949.96,172.32 L 1962.24,171.15 L 1974.52,172.94 L 1986.80,176.95 L 1999.08,184.30 L 2011.36,194.52 L 2023.64,205.69 L 2035.92,220.83 L 2048.20,238.26 L 2060.48,255.15 L 2072.76,276.01 L 2085.04,298.17 L 2097.32,318.32 L 2109.60,341.83 L 2121.88,365.43 L 2134.16,385.82 L 2146.44,408.43 L 2158.72,429.92 L 2171.00,447.50 L 2183.28,465.87 L 2195.56,482.11 L 2207.84,494.35 L 2220.12,505.90 L 2232.40,514.69 L 2244.68,520.03 L 2256.96,523.40 L 2269.24,523.87 L 2281.52,521.94 L 2293.80,517.19 L 2306.08,509.89 L 2318.36,501.57 L 2330.64,490.09 L 2342.92,476.81 L 2355.20,463.95 L 2367.48,448.15 L 2379.76,431.52 L 2392.04,414.41 L 2404.32,399.33 L 2416.60,382.28 L 2428.88,365.73 L 2441.16,351.89 L 2453.44,337.05 L 2465.72,323.47 L 2478.00,312.76 L 2490.28,302.00 L 2502.56,292.90 L 2514.84,286.34 L 2527.12,280.45 L 2539.40,276.24 L 2551.68,273.86 L 2563.96,272.54 L 2576.24,272.56 L 2588.52,273.53 L 2600.80,275.56 L 2613.08,278.37 L 2625.36,281.28 L 2637.64,284.93 L 2649.92,288.72 L 2662.20,291.99 L 2674.48,295.51 L 2686.76,298.63 L 2699.04,300.93 L 2711.32,302.98 L 2723.60,304.33 L 2735.88,304.93 L 2748.16,304.95 L 2760.44,304.29 L 2772.72,303.23 L 2785.00,301.56 L 2797.28,299.53 L 2809.56,297.60 L 2821.84,295.37 L 2834.12,293.33 L 2846.40,291.84 L 2858.68,290.69 L 2870.96,290.32 L 2883.24,290.91 L 2895.52,292.36 L 2907.80,295.22 L 2920.08,299.46 L 2932.36,304.39 L 2944.64,311.44 L 2956.92,320.00 L 2969.20,328.71 L 2981.48,339.98 L 2993.76,352.52 L 3006.04,364.40 L 3018.32,378.83 L 3030.60,393.94 L 3042.88,407.48 L 3055.16,423.07 L 3067.44,438.46 L 3079.72,451.50 L 3092.00,465.60 L 3104.28,478.54 L 3116.56,488.65 L 3128.84,498.53 L 3141.12,506.37 L 3153.40,511.35 L 3165.68,514.73 L 3177.96,515.47 L 3190.24,513.87 L 3200.00,510.33 M 0.00,510.33 L 2.52,509.41 L 14.80,502.16 L 27.08,493.57 L 39.36,481.27 L 51.64,466.50 L 63.92,451.73 L 76.20,432.96 L 88.48,412.51 L 100.76,393.49 L 113.04,370.83 L 125.32,347.58 L 137.60,327.08 L 149.88,303.87 L 162.16,281.30 L 174.44,259.79 L 186.72,242.15 L 199.00,223.68 L 211.28,207.33 L 223.56,195.00 L 235.84,183.39 L 248.12,174.60 L 260.40,169.33 L 272.68,166.17 L 284.96,166.05 L 297.24,168.41 L 309.52,173.85 L 321.80,182.06 L 334.08,191.34 L 346.36,204.13 L 358.64,218.95 L 370.92,233.34 L 383.20,251.08 L 395.48,269.84 L 407.76,286.80 L 420.04,306.44 L 432.32,326.00 L 444.60,342.75 L 456.88,361.19 L 469.16,378.57 L 481.44,392.67 L 493.72,407.32 L 506.00,420.22 L 518.28,429.95 L 530.56,439.20 L 542.84,446.41 L 555.12,451.03 L 567.40,454.44 L 579.68,455.94 L 591.96,455.78 L 604.24,454.06 L 616.52,450.90 L 628.80,447.12 L 641.08,441.86 L 653.36,435.82 L 665.64,429.27 L 677.92,423.31 L 690.20,416.44 L 702.48,409.73 L 714.76,404.13 L 727.04,398.20 L 739.32,392.91 L 751.60,388.87 L 763.88,385.00 L 776.16,381.94 L 788.44,379.93 L 800.72,378.33 L 813.00,377.41 L 825.28,377.07 L 837.56,377.09 L 849.84,377.37 L 862.12,377.70 L 874.40,378.00 L 886.68,378.02 L 898.96,377.67 L 911.24,376.66 L 923.52,374.86 L 935.80,372.50 L 948.08,368.83 L 960.36,364.00 L 972.64,358.80 L 984.92,351.72 L 997.20,343.46 L 1009.48,335.31 L 1021.76,325.04 L 1034.04,313.89 L 1046.32,303.56 L 1058.60,291.30 L 1070.88,278.79 L 1083.16,267.85 L 1095.44,255.63 L 1107.72,243.99 L 1120.00,234.53 L 1132.28,224.80 L 1144.56,216.53 L 1156.84,209.98 L 1169.12,205.86 L 1181.40,203.17 L 1193.68,202.82 L 1205.96,204.53 L 1218.24,208.86 L 1230.52,215.76 L 1242.80,223.88 L 1255.08,235.48 L 1267.36,249.42 L 1279.64,263.40 L 1291.92,281.19 L 1304.20,300.65 L 1316.48,318.79 L 1328.76,340.48 L 1341.04,362.81 L 1353.32,382.56 L 1365.60,405.00 L 1377.88,426.88 L 1390.16,445.25 L 1402.44,465.00 L 1414.72,483.04 L 1427.00,497.15 L 1439.28,511.08 L 1451.56,522.42 L 1463.84,530.04 L 1476.12,535.96 L 1488.40,538.82 L 1500.68,538.76 L 1512.96,535.79 L 1525.24,529.78 L 1537.52,522.15 L 1549.80,510.87 L 1562.08,497.10 L 1574.36,483.23 L 1586.64,465.59 L 1598.92,446.38 L 1611.20,428.60 L 1623.48,407.52 L 1635.76,386.02 L 1648.04,364.50 L 1660.32,345.99 L 1672.60,325.52 L 1684.88,306.13 L 1697.16,290.31 L 1709.44,273.80 L 1721.72,259.19 L 1734.00,248.12 L 1746.28,237.56 L 1758.56,229.33 L 1770.84,224.06 L 1783.12,220.24 L 1795.40,218.71 L 1807.68,219.17 L 1819.96,221.61 L 1832.24,225.91 L 1844.52,231.02 L 1856.80,238.19 L 1869.08,246.51 L 1881.36,254.52 L 1893.64,264.25 L 1905.92,274.34 L 1918.20,283.23 L 1930.48,293.26 L 1942.76,302.92 L 1955.04,310.90 L 1967.32,319.35 L 1979.60,326.94 L 1991.88,332.80 L 2004.16,338.56 L 2016.44,343.31 L 2028.72,346.65 L 2041.00,349.60 L 2053.28,351.69 L 2065.56,352.93 L 2077.84,353.80 L 2090.12,354.25 L 2102.40,354.44 L 2114.68,354.61 L 2126.96,354.89 L 2139.24,355.49 L 2151.52,356.39 L 2163.80,358.02 L 2176.08,360.39 L 2188.36,363.16 L 2200.64,367.19 L 2212.92,372.17 L 2225.20,377.30 L 2237.48,384.01 L 2249.76,391.54 L 2262.04,398.71 L 2274.32,407.44 L 2286.60,416.54 L 2298.88,424.65 L 2311.16,433.85 L 2323.44,442.75 L 2335.72,450.07 L 2348.00,457.65 L 2360.28,464.15 L 2372.56,468.74 L 2384.84,472.52 L 2397.12,474.51 L 2409.40,474.65 L 2421.68,472.84 L 2433.96,468.82 L 2446.24,463.44 L 2458.52,455.16 L 2470.80,444.64 L 2483.08,433.66 L 2495.36,419.21 L 2507.64,402.93 L 2519.92,387.36 L 2532.20,368.31 L 2544.48,348.22 L 2556.76,330.07 L 2569.04,309.01 L 2581.32,287.98 L 2593.60,269.94 L 3200.00,269.94"
    stroke="#1a1a1a" stroke-width="2.0"
    fill="none" stroke-linecap="round" stroke-linejoin="round"/>
</svg>
