<?xml version="1.0" encoding="UTF-8"?>
<svg xmlns="http://www.w3.org/2000/svg"
     width="3200" height="800"
     viewBox="0 0 3200 800">
  <rect width="3200" height="800" fill="white"/>
  <polyline points="0.00,350.00 27.24,394.55 54.48,436.57 81.72,473.66 108.96,503.69 136.20,524.93 163.44,536.10 190.68,536.48 217.92,525.96 245.16,505.01 272.40,474.67 299.64,436.51 326.88,392.55 354.12,345.13 381.36,296.80 408.60,250.22 435.84,207.93 463.08,172.31 490.32,145.39 517.56,128.77 544.80,123.51 572.04,130.10 599.28,148.38 626.52,177.61 653.76,216.43 681.00,263.00 708.24,315.03 735.48,369.93 762.72,424.94 789.96,477.25 817.20,524.19 844.44,563.31 871.68,592.56 898.92,610.35 926.16,615.67 953.40,608.16 980.64,588.06 1007.88,556.28 1035.12,514.31 1062.36,464.15 1089.60,408.24 1116.84,345.79 1144.08,286.77 1171.32,230.66 1198.56,180.20 1225.80,137.87 1253.04,105.71 1280.28,85.29 1307.52,77.57 1334.76,82.86 1362.00,100.85 1389.24,130.58 1416.48,170.50 1443.72,218.59 1470.96,272.39 1498.20,329.20 1525.44,386.18 1552.68,440.50 1579.92,489.50 1607.16,530.79 1634.40,562.42 1661.64,582.93 1688.88,591.46 1716.12,587.74 1743.36,572.17 1770.60,545.74 1797.84,509.97 1825.08,466.88 1852.32,418.83 1879.56,368.41 1906.80,318.30 1934.04,271.14 1961.28,229.39 1988.52,195.18 2015.76,170.23 2043.00,155.73 2070.24,152.33 2097.48,160.03 2124.72,178.26 2151.96,205.89"
    stroke="#1a1a1a" stroke-width="2.0"
    fill="none" stroke-linecap="round" stroke-linejoin="round"/>
</svg>
