<?xml version="1.0" encoding="UTF-8"?>
<svg xmlns="http://www.w3.org/2000/svg"
     width="3200" height="800"
     viewBox="0 0 3200 800">
  <path d="M 0.00,350.00 L 32.64,381.30 L 65.28,408.15 L 97.92,427.20 L 130.56,433.39 L 163.20,425.22 L 195.84,402.98 L 228.48,367.67 L 261.12,319.21 L 293.76,266.04 L 326.40,207.87 L 359.04,155.45 L 391.68,110.98 L 424.32,77.71 L 456.96,62.47 L 489.60,66.20 L 522.24,89.26 L 554.88,130.41 L 587.52,190.36 L 620.16,259.40 L 652.80,335.18 L 685.44,416.04 L 718.08,488.48 L 750.72,554.01 L 783.36,601.89 L 816.00,632.43 L 848.64,644.08 L 881.28,635.73 L 913.92,608.31 L 946.56,567.57 L 979.20,516.74 L 1011.84,457.80 L 1044.48,401.64 L 1077.12,348.02 L 1109.76,306.33 L 1142.40,276.89 L 1175.04,261.03 L 1207.68,260.48 L 1240.32,273.76 L 1272.96,296.89 L 1305.60,326.56 L 1338.24,360.05 L 1370.88,389.47 L 1403.52,413.07 L 1436.16,424.93 L 1468.80,423.96 L 1501.44,407.95 L 1534.08,378.81 L 1566.72,335.72 L 1599.36,286.11 L 1632.00,232.39 L 1664.64,176.86 L 1697.28,130.00 L 1729.92,92.35 L 1762.56,71.54 L 1795.20,68.21 L 1827.84,84.95 L 1860.48,119.85 L 1893.12,174.29 L 1925.76,239.61 L 1958.40,317.31 L 1991.04,394.50 L 2023.68,469.13 L 2056.32,538.88 L 2088.96,592.21 L 2121.60,630.47 L 2154.24,647.74 L 2186.88,645.70 L 2219.52,623.91 L 2252.16,587.06 L 2284.80,535.66 L 2317.44,479.45 L 2350.08,421.29 L 2382.72,363.62 L 2415.36,316.60 L 2448.00,279.44 L 2480.64,258.03 L 2513.28,251.10 L 2545.92,258.63 L 2578.56,277.71 L 2611.20,306.61 L 2643.84,338.31 L 2676.48,369.54 L 2709.12,397.01 L 2741.76,414.08 L 2774.40,419.24 L 2807.04,410.28 L 2839.68,387.58 L 2872.32,350.36 L 2904.96,304.96 L 2937.60,251.08 L 2970.24,198.66 L 3002.88,150.20 L 3035.52,108.86 L 3068.16,82.97 L 3100.80,73.50 L 3133.44,83.28 L 3166.08,111.70 L 3198.72,160.16 L 3200.00,162.55"
    stroke="#1a1a1a" stroke-width="2.0"
    fill="none" stroke-linecap="round" stroke-linejoin="round"/>
  <path d="M 0.00,162.55 L 31.36,221.10 L 64.00,296.06 L 96.64,372.64 L 129.28,448.69 L 161.92,521.94 L 194.56,580.22 L 227.20,624.85 L 259.84,648.74 L 292.48,653.23 L 325.12,637.53 L 357.76,605.20 L 390.40,556.74 L 423.04,501.34 L 455.68,441.97 L 488.32,380.98 L 520.96,329.14 L 553.60,285.69 L 586.24,257.70 L 618.88,244.21 L 651.52,245.54 L 684.16,259.95 L 716.80,285.72 L 749.44,316.41 L 782.08,348.65 L 814.72,379.25 L 847.36,400.99 L 880.00,412.35 L 912.64,409.95 L 945.28,393.83 L 977.92,362.91 L 1010.56,322.32 L 1043.20,271.76 L 1075.84,220.55 L 1108.48,171.28 L 1141.12,127.00 L 1173.76,96.58 L 1206.40,81.03 L 1239.04,84.28 L 1271.68,106.08 L 1304.32,148.17 L 1336.96,204.16 L 1369.60,275.61 L 1402.24,350.78 L 1434.88,427.43 L 1467.52,503.43 L 1500.16,566.09 L 1532.80,616.71 L 1565.44,647.07 L 1598.08,658.20 L 1630.72,648.96 L 1663.36,621.71 L 1696.00,576.94 L 1728.64,523.14 L 1761.28,463.37 L 1793.92,399.83 L 1826.56,343.78 L 1859.20,294.46 L 1891.84,260.03 L 1924.48,239.89 L 1957.12,234.69 L 1989.76,243.89 L 2022.40,265.78 L 2055.04,294.67 L 2087.68,327.11 L 2120.32,360.06 L 2152.96,385.87 L 2185.60,402.97 L 2218.24,406.95 L 2250.88,397.49 L 2283.52,373.18 L 2316.16,337.92 L 2348.80,291.41 L 2381.44,242.20 L 2414.08,192.93 L 2446.72,146.49 L 2479.36,112.19 L 2512.00,91.00 L 2544.64,87.94 L 2577.28,103.09 L 2609.92,138.49 L 2642.56,189.04 L 2675.20,256.27 L 2707.84,329.25 L 2740.48,405.70 L 2773.12,483.64 L 2805.76,550.02 L 2838.40,606.14 L 2871.04,642.76 L 2903.68,660.53 L 2936.32,658.03 L 2968.96,636.35 L 3001.60,595.97 L 3034.24,544.55 L 3066.88,485.18 L 3099.52,419.90 L 3132.16,360.29 L 3164.80,305.60 L 3197.44,265.00 L 3200.00,262.90"
    stroke="#1a1a1a" stroke-width="2.0"
    fill="none" stroke-linecap="round" stroke-linejoin="round"/>
  <path d="M 0.00,262.90 L 30.08,238.23 L 62.72,226.23 L 95.36,229.75 L 128.00,247.10 L 160.64,273.42 L 193.28,305.25 L 225.92,339.74 L 258.56,368.92 L 291.20,391.26 L 323.84,401.33 L 356.48,398.49 L 389.12,381.01 L 421.76,351.54 L 454.40,309.73 L 487.04,263.28 L 519.68,214.82 L 552.32,167.06 L 584.96,129.54 L 617.60,103.27 L 650.24,94.19 L 682.88,102.75 L 715.52,131.28 L 748.16,175.95 L 780.80,238.32 L 813.44,308.36 L 846.08,383.80 L 878.72,462.86 L 911.36,532.26 L 944.00,593.33 L 976.64,635.86 L 1009.28,660.19 L 1041.92,664.60 L 1074.56,648.90 L 1107.20,613.52 L 1139.84,565.23 L 1172.48,507.07 L 1205.12,440.89 L 1237.76,378.43 L 1270.40,318.96 L 1303.04,272.53 L 1335.68,239.23 L 1368.32,220.29 L 1400.96,217.76 L 1433.60,229.06 L 1466.24,252.97 L 1498.88,283.39 L 1531.52,318.57 L 1564.16,350.42 L 1596.80,376.31 L 1629.44,393.19 L 1662.08,396.82 L 1694.72,386.31 L 1727.36,362.97 L 1760.00,328.43 L 1792.64,283.48 L 1825.28,236.63 L 1857.92,188.39 L 1890.56,148.40 L 1923.20,118.79 L 1955.84,102.96 L 1988.48,105.09 L 2021.12,126.64 L 2053.76,165.09 L 2086.40,218.98 L 2119.04,288.42 L 2151.68,362.06 L 2184.32,441.38 L 2216.96,513.08 L 2249.60,575.64 L 2282.24,626.49 L 2314.88,657.20 L 2347.52,668.59 L 2380.16,659.17 L 2412.80,631.20 L 2445.44,584.87 L 2478.08,528.72 L 2510.72,462.48 L 2543.36,397.93 L 2576.00,337.17 L 2608.64,282.50 L 2641.28,242.88 L 2673.92,216.97 L 2706.56,208.08 L 2739.20,213.94 L 2771.84,233.63 L 2804.48,261.86 L 2837.12,296.87 L 2869.76,330.63 L 2902.40,360.25 L 2935.04,382.62 L 2967.68,392.51 L 3000.32,388.97 L 3032.96,372.04 L 3065.60,343.07 L 3098.24,302.50 L 3130.88,258.03 L 3163.52,210.17 L 3196.16,168.47 L 3200.00,164.57"
    stroke="#1a1a1a" stroke-width="2.0"
    fill="none" stroke-linecap="round" stroke-linejoin="round"/>
  <path d="M 0.00,164.57 L 28.80,135.30 L 61.44,114.10 L 94.08,110.05 L 126.72,124.64 L 159.36,156.64 L 192.00,204.85 L 224.64,269.74 L 257.28,340.81 L 289.92,419.55 L 322.56,492.75 L 355.20,558.70 L 387.84,614.78 L 420.48,651.58 L 453.12,669.92 L 485.76,667.00 L 518.40,644.82 L 551.04,603.20 L 583.68,549.80 L 616.32,484.36 L 648.96,418.49 L 681.60,354.53 L 714.24,294.77 L 746.88,249.14 L 779.52,216.30 L 812.16,200.87 L 844.80,200.85 L 877.44,215.68 L 910.08,240.97 L 942.72,274.98 L 975.36,309.84 L 1008.00,342.49 L 1040.64,369.81 L 1073.28,385.62 L 1105.92,388.97 L 1138.56,378.61 L 1171.20,355.62 L 1203.84,320.06 L 1236.48,278.71 L 1269.12,232.06 L 1301.76,189.45 L 1334.40,153.44 L 1367.04,127.46 L 1399.68,117.58 L 1432.32,125.31 L 1464.96,150.70 L 1497.60,192.86 L 1530.24,252.59 L 1562.88,320.36 L 1595.52,397.67 L 1628.16,471.58 L 1660.80,540.19 L 1693.44,600.90 L 1726.08,643.43 L 1758.72,668.59 L 1791.36,672.29 L 1824.00,656.25 L 1856.64,619.93 L 1889.28,570.00 L 1921.92,506.20 L 1954.56,439.82 L 1987.20,373.39 L 2019.84,309.16 L 2052.48,257.91 L 2085.12,218.30 L 2117.76,196.23 L 2150.40,189.99 L 2183.04,199.39 L 2215.68,221.04 L 2248.32,253.20 L 2280.96,288.37 L 2313.60,323.31 L 2346.24,354.92 L 2378.88,376.24 L 2411.52,386.31 L 2444.16,382.60 L 2476.80,365.89 L 2509.44,335.90 L 2542.08,298.36 L 2574.72,253.76 L 2607.36,211.05 L 2640.00,172.94 L 2672.64,142.82 L 2705.28,127.55 L 2737.92,128.63 L 2770.56,147.37 L 2803.20,183.18 L 2835.84,237.22 L 2868.48,301.02 L 2901.12,376.08 L 2933.76,449.89 L 2966.40,520.40 L 2999.04,585.07 L 3031.68,632.87 L 3064.32,664.60 L 3096.96,674.96 L 3129.60,665.32 L 3162.24,634.81 L 3194.88,589.02 L 3200.00,579.40"
    stroke="#1a1a1a" stroke-width="2.0"
    fill="none" stroke-linecap="round" stroke-linejoin="round"/>
  <path d="M 0.00,579.40 L 27.52,527.67 L 60.16,461.60 L 92.80,393.46 L 125.44,325.45 L 158.08,269.05 L 190.72,222.94 L 223.36,194.23 L 256.00,181.54 L 288.64,185.00 L 321.28,202.36 L 353.92,231.87 L 386.56,266.53 L 419.20,302.98 L 451.84,338.19 L 484.48,364.53 L 517.12,381.01 L 549.76,383.94 L 582.40,373.72 L 615.04,349.77 L 647.68,316.68 L 680.32,274.93 L 712.96,232.92 L 745.60,193.51 L 778.24,159.97 L 810.88,139.82 L 843.52,134.57 L 876.16,146.70 L 908.80,175.97 L 941.44,223.87 L 974.08,283.07 L 1006.72,355.09 L 1039.36,427.99 L 1072.00,499.61 L 1104.64,567.51 L 1137.28,620.05 L 1169.92,658.03 L 1202.56,674.96 L 1235.20,671.89 L 1267.84,647.63 L 1300.48,606.58 L 1333.12,548.45 L 1365.76,483.50 L 1398.40,414.44 L 1431.04,343.40 L 1463.68,282.40 L 1496.32,230.15 L 1528.96,194.90 L 1561.60,175.60 L 1594.24,172.73 L 1626.88,185.20 L 1659.52,211.31 L 1692.16,244.65 L 1724.80,281.81 L 1757.44,319.87 L 1790.08,350.65 L 1822.72,373.18 L 1855.36,382.60 L 1888.00,379.01 L 1920.64,361.49 L 1953.28,333.41 L 1985.92,295.25 L 2018.56,254.76 L 2051.20,214.84 L 2083.84,178.66 L 2116.48,154.21 L 2149.12,143.03 L 2181.76,148.71 L 2214.40,171.33 L 2247.04,212.73 L 2279.68,266.78 L 2312.32,335.02 L 2344.96,406.22 L 2377.60,478.14 L 2410.24,548.49 L 2442.88,605.17 L 2475.52,648.96 L 2508.16,672.29 L 2540.80,675.88 L 2573.44,658.19 L 2606.08,622.41 L 2638.72,568.25 L 2671.36,505.19 L 2704.00,436.03 L 2736.64,362.74 L 2769.28,297.77 L 2801.92,239.82 L 2834.56,198.23 L 2867.20,172.27 L 2899.84,162.76 L 2932.48,169.84 L 2965.12,191.81 L 2997.76,223.06 L 3030.40,260.12 L 3063.04,300.22 L 3095.68,334.82 L 3128.32,362.91 L 3160.96,378.61 L 3193.60,381.68 L 3200.00,379.56"
    stroke="#1a1a1a" stroke-width="2.0"
    fill="none" stroke-linecap="round" stroke-linejoin="round"/>
  <path d="M 0.00,379.56 L 26.24,370.86 L 58.88,348.29 L 91.52,314.44 L 124.16,276.23 L 156.80,236.61 L 189.44,198.59 L 222.08,170.50 L 254.72,153.88 L 287.36,153.35 L 320.00,169.33 L 352.64,203.96 L 385.28,252.39 L 417.92,316.17 L 450.56,384.89 L 483.20,456.30 L 515.84,528.29 L 548.48,588.44 L 581.12,637.53 L 613.76,667.00 L 646.40,677.22 L 679.04,666.34 L 711.68,636.29 L 744.32,586.75 L 776.96,526.36 L 809.60,457.91 L 842.24,383.19 L 874.88,314.92 L 907.52,251.82 L 940.16,204.16 L 972.80,171.61 L 1005.44,155.23 L 1038.08,156.48 L 1070.72,173.67 L 1103.36,202.07 L 1136.00,238.22 L 1168.64,279.54 L 1201.28,317.26 L 1233.92,350.36 L 1266.56,372.04 L 1299.20,381.68 L 1331.84,377.75 L 1364.48,361.11 L 1397.12,332.19 L 1429.76,297.02 L 1462.40,258.51 L 1495.04,219.48 L 1527.68,188.45 L 1560.32,166.97 L 1592.96,160.56 L 1625.60,170.00 L 1658.24,197.71 L 1690.88,240.12 L 1723.52,298.81 L 1756.16,364.32 L 1788.80,434.43 L 1821.44,507.21 L 1854.08,570.12 L 1886.72,623.91 L 1919.36,659.17 L 1952.00,675.88 L 1984.64,671.95 L 2017.28,648.00 L 2049.92,603.69 L 2082.56,546.69 L 2115.20,479.75 L 2147.84,404.44 L 2180.48,333.60 L 2213.12,265.95 L 2245.76,212.62 L 2278.40,173.61 L 2311.04,150.27 L 2343.68,145.34 L 2376.32,157.16 L 2408.96,182.01 L 2441.60,216.44 L 2474.24,258.14 L 2506.88,298.24 L 2539.52,335.72 L 2572.16,362.97 L 2604.80,379.01 L 2637.44,382.07 L 2670.08,371.67 L 2702.72,348.26 L 2735.36,316.81 L 2768.00,280.20 L 2800.64,241.01 L 2833.28,207.79 L 2865.92,182.10 L 2898.56,170.23 L 2931.20,173.33 L 2963.84,194.05 L 2996.48,230.14 L 3029.12,283.21 L 3061.76,344.82 L 3094.40,412.83 L 3127.04,485.56 L 3159.68,550.47 L 3192.32,608.31 L 3200.00,617.86"
    stroke="#1a1a1a" stroke-width="2.0"
    fill="none" stroke-linecap="round" stroke-linejoin="round"/>
  <path d="M 0.00,617.86 L 24.96,648.90 L 57.60,671.89 L 90.24,674.95 L 122.88,657.38 L 155.52,618.82 L 188.16,565.87 L 220.80,501.22 L 253.44,426.18 L 286.08,353.54 L 318.72,282.01 L 351.36,223.48 L 384.00,178.25 L 416.64,147.93 L 449.28,136.57 L 481.92,142.52 L 514.56,163.15 L 547.20,195.11 L 579.84,236.33 L 612.48,278.04 L 645.12,319.21 L 677.76,351.54 L 710.40,373.72 L 743.04,383.74 L 775.68,379.82 L 808.32,362.39 L 840.96,335.32 L 873.60,301.37 L 906.24,262.87 L 938.88,228.24 L 971.52,199.04 L 1004.16,182.22 L 1036.80,179.26 L 1069.44,193.05 L 1102.08,222.62 L 1134.72,269.59 L 1167.36,326.68 L 1200.00,391.85 L 1232.64,463.67 L 1265.28,529.79 L 1297.92,590.95 L 1330.56,636.35 L 1363.20,665.32 L 1395.84,675.28 L 1428.48,664.27 L 1461.12,631.91 L 1493.76,583.63 L 1526.40,522.01 L 1559.04,448.08 L 1591.68,374.43 L 1624.32,299.77 L 1656.96,236.56 L 1689.60,185.46 L 1722.24,148.27 L 1754.88,130.32 L 1787.52,129.97 L 1820.16,145.79 L 1852.80,174.55 L 1885.44,214.44 L 1918.08,256.96 L 1950.72,301.07 L 1983.36,337.92 L 2016.00,365.89 L 2048.64,382.73 L 2081.28,385.44 L 2113.92,374.39 L 2146.56,352.26 L 2179.20,321.70 L 2211.84,284.73 L 2244.48,249.49 L 2277.12,217.55 L 2309.76,196.36 L 2342.40,187.72 L 2375.04,194.72 L 2407.68,217.65 L 2440.32,258.16 L 2472.96,310.17 L 2505.60,371.78 L 2538.24,441.86 L 2570.88,508.39 L 2603.52,572.10 L 2636.16,621.71 L 2668.80,656.25 L 2701.44,672.95 L 2734.08,668.58 L 2766.72,642.76 L 2799.36,599.69 L 2832.00,541.80 L 2864.64,469.81 L 2897.28,395.96 L 2929.92,318.96 L 2962.56,251.69 L 2995.20,195.13 L 3027.84,151.26 L 3060.48,126.66 L 3093.12,119.70 L 3125.76,130.19 L 3158.40,155.05 L 3191.04,192.79 L 3200.00,204.47"
    stroke="#1a1a1a" stroke-width="2.0"
    fill="none" stroke-linecap="round" stroke-linejoin="round"/>
  <path d="M 0.00,204.47 L 23.68,235.31 L 56.32,281.58 L 88.96,322.32 L 121.60,355.62 L 154.24,379.08 L 186.88,388.43 L 219.52,384.06 L 252.16,367.39 L 284.80,340.88 L 317.44,306.27 L 350.08,271.23 L 382.72,237.34 L 415.36,212.42 L 448.00,198.57 L 480.64,199.03 L 513.28,215.32 L 545.92,249.09 L 578.56,295.54 L 611.20,352.92 L 643.84,420.46 L 676.48,486.58 L 709.12,552.03 L 741.76,605.20 L 774.40,644.82 L 807.04,667.99 L 839.68,670.25 L 872.32,651.22 L 904.96,613.83 L 937.60,560.30 L 970.24,491.07 L 1002.88,417.82 L 1035.52,339.28 L 1068.16,268.63 L 1100.80,207.12 L 1133.44,156.88 L 1166.08,125.66 L 1198.72,111.87 L 1231.36,116.57 L 1264.00,136.91 L 1296.64,171.71 L 1329.28,213.42 L 1361.92,261.01 L 1394.56,304.96 L 1427.20,343.07 L 1459.84,372.82 L 1492.48,388.77 L 1525.12,391.27 L 1557.76,380.47 L 1590.40,358.64 L 1623.04,327.16 L 1655.68,293.13 L 1688.32,258.12 L 1720.96,230.18 L 1753.60,211.66 L 1786.24,205.92 L 1818.88,215.65 L 1851.52,242.51 L 1884.16,282.99 L 1916.80,335.57 L 1949.44,399.78 L 1982.08,464.69 L 2014.72,531.04 L 2047.36,587.06 L 2080.00,631.20 L 2112.64,660.46 L 2145.28,669.25 L 2177.92,657.16 L 2210.56,625.82 L 2243.20,577.25 L 2275.84,511.52 L 2308.48,439.68 L 2341.12,360.45 L 2373.76,287.14 L 2406.40,221.26 L 2439.04,165.03 L 2471.68,127.33 L 2504.32,106.58 L 2536.96,105.15 L 2569.60,120.40 L 2602.24,151.51 L 2634.88,191.61 L 2667.52,239.68 L 2700.16,286.11 L 2732.80,328.43 L 2765.44,364.06 L 2798.08,386.43 L 2830.72,395.91 L 2863.36,391.33 L 2896.00,374.71 L 2928.64,347.09 L 2961.28,314.87 L 2993.92,279.60 L 3026.56,249.36 L 3059.20,226.79 L 3091.84,215.30 L 3124.48,218.65 L 3157.12,238.53 L 3189.76,272.72 L 3200.00,287.54"
    stroke="#1a1a1a" stroke-width="2.0"
    fill="none" stroke-linecap="round" stroke-linejoin="round"/>
  <path d="M 0.00,287.54 L 22.40,319.96 L 55.04,380.13 L 87.68,443.04 L 120.32,509.45 L 152.96,567.57 L 185.60,615.60 L 218.24,650.49 L 250.88,665.59 L 283.52,660.48 L 316.16,635.49 L 348.80,592.37 L 381.44,530.86 L 414.08,461.21 L 446.72,382.15 L 479.36,306.93 L 512.00,237.32 L 544.64,175.59 L 577.28,131.64 L 609.92,103.91 L 642.56,96.08 L 675.20,105.76 L 707.84,132.49 L 740.48,170.21 L 773.12,217.90 L 805.76,266.04 L 838.40,311.92 L 871.04,352.91 L 903.68,381.47 L 936.32,397.91 L 968.96,399.79 L 1001.60,388.84 L 1034.24,365.77 L 1066.88,336.12 L 1099.52,301.43 L 1132.16,269.69 L 1164.80,243.73 L 1197.44,227.01 L 1230.08,224.26 L 1262.72,237.19 L 1295.36,264.88 L 1328.00,306.35 L 1360.64,361.81 L 1393.28,421.96 L 1425.92,487.57 L 1458.56,547.00 L 1491.20,598.24 L 1523.84,638.22 L 1556.48,659.34 L 1589.12,661.15 L 1621.76,642.70 L 1654.40,605.46 L 1687.04,548.81 L 1719.68,482.10 L 1752.32,404.04 L 1784.96,327.72 L 1817.60,255.08 L 1850.24,188.41 L 1882.88,138.54 L 1915.52,103.91 L 1948.16,89.50 L 1980.80,93.22 L 2013.44,114.93 L 2046.08,149.53 L 2078.72,196.01 L 2111.36,245.05 L 2144.00,293.78 L 2176.64,339.56 L 2209.28,373.94 L 2241.92,397.24 L 2274.56,405.72 L 2307.20,400.83 L 2339.84,382.92 L 2372.48,356.57 L 2405.12,323.31 L 2437.76,290.86 L 2470.40,262.24 L 2503.04,240.89 L 2535.68,232.41 L 2568.32,238.53 L 2600.96,259.59 L 2633.60,294.92 L 2666.24,345.08 L 2698.88,401.76 L 2731.52,465.73 L 2764.16,525.67 L 2796.80,579.39 L 2829.44,623.83 L 2862.08,650.57 L 2894.72,659.15 L 2927.36,647.34 L 2960.00,616.32 L 2992.64,565.10 L 3025.28,502.04 L 3057.92,425.82 L 3090.56,349.19 L 3123.20,274.26 L 3155.84,203.29 L 3188.48,147.91 L 3200.00,133.32"
    stroke="#1a1a1a" stroke-width="2.0"
    fill="none" stroke-linecap="round" stroke-linejoin="round"/>
  <path d="M 0.00,133.32 L 21.12,106.58 L 53.76,85.51 L 86.40,82.95 L 119.04,99.10 L 151.68,129.88 L 184.32,174.31 L 216.96,223.46 L 249.60,274.29 L 282.24,324.19 L 314.88,363.97 L 347.52,393.92 L 380.16,409.05 L 412.80,410.51 L 445.44,398.29 L 478.08,375.91 L 510.72,344.90 L 543.36,312.55 L 576.00,282.03 L 608.64,256.72 L 641.28,242.98 L 673.92,242.51 L 706.56,256.93 L 739.20,285.85 L 771.84,330.19 L 804.48,382.74 L 837.12,444.26 L 869.76,503.89 L 902.40,559.32 L 935.04,607.54 L 967.68,639.43 L 1000.32,654.51 L 1032.96,649.35 L 1065.60,624.77 L 1098.24,579.49 L 1130.88,520.72 L 1163.52,447.15 L 1196.16,371.02 L 1228.80,294.59 L 1261.44,220.02 L 1294.08,159.62 L 1326.72,111.87 L 1359.36,84.18 L 1392.00,75.11 L 1424.64,85.22 L 1457.28,111.56 L 1489.92,153.14 L 1522.56,201.58 L 1555.20,253.72 L 1587.84,307.04 L 1620.48,351.70 L 1653.12,387.98 L 1685.76,409.72 L 1718.40,417.72 L 1751.04,411.64 L 1783.68,393.86 L 1816.32,365.89 L 1848.96,334.45 L 1881.60,302.82 L 1914.24,274.28 L 1946.88,255.79 L 1979.52,249.09 L 2012.16,256.93 L 2044.80,280.76 L 2077.44,317.38 L 2110.08,365.18 L 2142.72,423.48 L 2175.36,482.00 L 2208.00,541.00 L 2240.64,589.59 L 2273.28,626.08 L 2305.92,647.30 L 2338.56,648.68 L 2371.20,629.31 L 2403.84,591.76 L 2436.48,537.87 L 2469.12,467.71 L 2501.76,392.90 L 2534.40,311.94 L 2567.04,238.34 L 2599.68,173.50 L 2632.32,119.70 L 2664.96,85.51 L 2697.60,69.53 L 2730.24,73.51 L 2762.88,94.83 L 2795.52,132.82 L 2828.16,179.75 L 2860.80,235.08 L 2893.44,288.36 L 2926.08,337.31 L 2958.72,379.52 L 2991.36,407.72 L 3024.00,422.72 L 3056.64,422.79 L 3089.28,410.15 L 3121.92,385.96 L 3154.56,356.23 L 3187.20,322.71 L 3200.00,311.18"
    stroke="#1a1a1a" stroke-width="2.0"
    fill="none" stroke-linecap="round" stroke-linejoin="round"/>
  <path d="M 0.00,311.18 L 19.84,293.30 L 52.48,270.68 L 85.12,258.16 L 117.76,259.59 L 150.40,276.45 L 183.04,306.81 L 215.68,349.35 L 248.32,403.68 L 280.96,460.30 L 313.60,519.46 L 346.24,570.25 L 378.88,610.71 L 411.52,637.63 L 444.16,645.35 L 476.80,632.96 L 509.44,601.73 L 542.08,553.24 L 574.72,487.21 L 607.36,414.49 L 640.00,333.59 L 672.64,257.99 L 705.28,189.33 L 737.92,129.97 L 770.56,89.50 L 803.20,66.53 L 835.84,64.14 L 868.48,79.95 L 901.12,113.63 L 933.76,158.27 L 966.40,213.35 L 999.04,268.42 L 1031.68,321.02 L 1064.32,368.67 L 1096.96,403.08 L 1129.60,425.05 L 1162.24,431.55 L 1194.88,424.54 L 1227.52,404.81 L 1260.16,377.56 L 1292.80,344.52 L 1325.44,313.50 L 1358.08,287.41 L 1390.72,269.59 L 1423.36,264.88 L 1456.00,274.78 L 1488.64,298.67 L 1521.28,335.47 L 1553.92,385.18 L 1586.56,439.13 L 1619.20,497.60 L 1651.84,549.80 L 1684.48,593.56 L 1717.12,625.63 L 1749.76,639.41 L 1782.40,633.97 L 1815.04,609.25 L 1847.68,566.59 L 1880.32,505.35 L 1912.96,435.48 L 1945.60,355.48 L 1978.24,278.67 L 2010.88,206.89 L 2043.52,142.52 L 2076.16,96.08 L 2108.80,66.20 L 2141.44,57.24 L 2174.08,67.13 L 2206.72,95.88 L 2239.36,137.49 L 2272.00,191.45 L 2304.64,247.54 L 2337.28,303.07 L 2369.92,355.58 L 2402.56,395.86 L 2435.20,424.72 L 2467.84,437.81 L 2500.48,436.81 L 2533.12,422.17 L 2565.76,398.12 L 2598.40,366.41 L 2631.04,334.58 L 2663.68,305.73 L 2696.32,283.21 L 2728.96,272.72 L 2761.60,275.78 L 2794.24,293.05 L 2826.88,323.76 L 2859.52,368.24 L 2892.16,418.81 L 2924.80,475.75 L 2957.44,528.55 L 2990.08,574.88 L 3022.72,611.50 L 3055.36,630.96 L 3088.00,632.30 L 3120.64,614.22 L 3153.28,577.73 L 3185.92,521.86 L 3200.00,493.26"
    stroke="#1a1a1a" stroke-width="2.0"
    fill="none" stroke-linecap="round" stroke-linejoin="round"/>
  <path d="M 0.00,493.26 L 18.56,455.55 L 51.20,377.29 L 83.84,300.07 L 116.48,225.91 L 149.12,157.16 L 181.76,105.15 L 214.40,68.53 L 247.04,52.93 L 279.68,56.57 L 312.32,79.81 L 344.96,117.69 L 377.60,169.71 L 410.24,226.00 L 442.88,283.73 L 475.52,340.45 L 508.16,386.19 L 540.80,421.72 L 573.44,441.46 L 606.08,446.78 L 638.72,437.77 L 671.36,417.62 L 704.00,388.06 L 736.64,356.23 L 769.28,325.38 L 801.92,298.81 L 834.56,282.99 L 867.20,279.44 L 899.84,290.05 L 932.48,314.38 L 965.12,353.11 L 997.76,399.62 L 1030.40,454.21 L 1063.04,506.81 L 1095.68,554.94 L 1128.32,595.43 L 1160.96,620.10 L 1193.60,627.98 L 1226.24,616.55 L 1258.88,586.50 L 1291.52,536.50 L 1324.16,474.40 L 1356.80,398.69 L 1389.44,321.88 L 1422.08,246.11 L 1454.72,173.67 L 1487.36,116.57 L 1520.00,73.50 L 1552.64,51.26 L 1585.28,48.42 L 1617.92,65.68 L 1650.56,99.19 L 1683.20,148.46 L 1715.84,204.14 L 1748.48,263.28 L 1781.12,323.51 L 1813.76,374.20 L 1846.40,416.11 L 1879.04,442.47 L 1911.68,454.31 L 1944.32,451.39 L 1976.96,435.76 L 2009.60,409.14 L 2042.24,378.12 L 2074.88,346.06 L 2107.52,316.17 L 2140.16,295.54 L 2172.80,285.69 L 2205.44,289.72 L 2238.08,307.49 L 2270.72,340.02 L 2303.36,381.87 L 2336.00,433.32 L 2368.64,484.91 L 2401.28,534.05 L 2433.92,577.68 L 2466.56,607.02 L 2499.20,621.09 L 2531.84,616.22 L 2564.48,592.76 L 2597.12,549.05 L 2629.76,491.76 L 2662.40,419.37 L 2695.04,343.77 L 2727.68,267.19 L 2760.32,191.81 L 2792.96,130.19 L 2825.60,81.03 L 2858.24,52.26 L 2890.88,42.80 L 2923.52,53.68 L 2956.16,82.25 L 2988.80,128.01 L 3021.44,182.28 L 3054.08,242.03 L 3086.72,305.01 L 3119.36,360.06 L 3152.00,407.96 L 3184.64,440.80 L 3200.00,449.49"
    stroke="#1a1a1a" stroke-width="2.0"
    fill="none" stroke-linecap="round" stroke-linejoin="round"/>
  <path d="M 0.00,449.49 L 17.28,459.27 L 49.92,462.82 L 82.56,452.27 L 115.20,429.34 L 147.84,399.93 L 180.48,367.46 L 213.12,335.02 L 245.76,310.17 L 278.40,294.46 L 311.04,292.05 L 343.68,303.18 L 376.32,329.17 L 408.96,365.80 L 441.60,413.39 L 474.24,463.17 L 506.88,512.52 L 539.52,558.49 L 572.16,591.89 L 604.80,611.72 L 637.44,613.22 L 670.08,596.41 L 702.72,559.32 L 735.36,507.37 L 768.00,439.02 L 800.64,365.42 L 833.28,288.84 L 865.92,211.31 L 898.56,145.79 L 931.20,91.00 L 963.84,55.92 L 996.48,39.81 L 1029.12,44.01 L 1061.76,67.12 L 1094.40,108.66 L 1127.04,160.75 L 1159.68,220.29 L 1192.32,285.21 L 1224.96,344.00 L 1257.60,397.40 L 1290.24,436.48 L 1322.88,461.61 L 1355.52,471.89 L 1388.16,466.91 L 1420.80,448.36 L 1453.44,421.33 L 1486.08,389.27 L 1518.72,355.09 L 1551.36,326.68 L 1584.00,305.60 L 1616.64,297.02 L 1649.28,301.51 L 1681.92,320.71 L 1714.56,351.67 L 1747.20,394.71 L 1779.84,441.92 L 1812.48,490.66 L 1845.12,538.17 L 1877.76,574.95 L 1910.40,600.01 L 1943.04,607.61 L 1975.68,597.41 L 2008.32,567.15 L 2040.96,520.98 L 2073.60,457.34 L 2106.24,386.50 L 2138.88,310.73 L 2171.52,231.87 L 2204.16,163.15 L 2236.80,103.27 L 2269.44,62.17 L 2302.08,39.47 L 2334.72,36.80 L 2367.36,54.03 L 2400.00,90.71 L 2432.64,139.86 L 2465.28,198.39 L 2497.92,264.43 L 2530.56,326.24 L 2563.20,384.58 L 2595.84,429.59 L 2628.48,461.27 L 2661.12,478.47 L 2693.76,479.45 L 2726.40,465.92 L 2759.04,442.01 L 2791.68,411.16 L 2824.32,376.08 L 2856.96,344.82 L 2889.60,318.96 L 2922.24,304.55 L 2954.88,302.51 L 2987.52,314.77 L 3020.16,339.67 L 3052.80,377.55 L 3085.44,421.47 L 3118.08,468.80 L 3150.72,517.00 L 3183.36,556.44 L 3200.00,571.58"
    stroke="#1a1a1a" stroke-width="2.0"
    fill="none" stroke-linecap="round" stroke-linejoin="round"/>
  <path d="M 0.00,571.58 L 16.00,586.13 L 48.64,599.46 L 81.28,595.75 L 113.92,572.44 L 146.56,532.41 L 179.20,474.07 L 211.84,406.70 L 244.48,332.54 L 277.12,253.20 L 309.76,182.01 L 342.40,117.66 L 375.04,70.94 L 407.68,41.80 L 440.32,32.16 L 472.96,43.18 L 505.60,74.42 L 538.24,119.93 L 570.88,176.65 L 603.52,242.96 L 636.16,307.06 L 668.80,369.70 L 701.44,420.22 L 734.08,458.28 L 766.72,482.45 L 799.36,489.72 L 832.00,481.76 L 864.64,461.66 L 897.28,432.81 L 929.92,397.67 L 962.56,364.32 L 995.20,334.32 L 1027.84,314.52 L 1060.48,306.17 L 1093.12,311.45 L 1125.76,330.00 L 1158.40,362.19 L 1191.04,402.13 L 1223.68,447.27 L 1256.32,495.30 L 1288.96,536.65 L 1321.60,570.29 L 1354.24,588.90 L 1386.88,591.43 L 1419.52,575.11 L 1452.16,541.48 L 1484.80,488.95 L 1517.44,425.72 L 1550.08,353.94 L 1582.72,274.98 L 1615.36,202.07 L 1648.00,133.95 L 1680.64,82.08 L 1713.28,46.77 L 1745.92,30.16 L 1778.56,34.72 L 1811.20,60.04 L 1843.84,101.24 L 1876.48,155.40 L 1909.12,221.12 L 1941.76,286.73 L 1974.40,352.97 L 2007.04,408.51 L 2039.68,452.66 L 2072.32,483.79 L 2104.96,497.56 L 2137.60,495.63 L 2170.24,479.98 L 2202.88,453.89 L 2235.52,419.55 L 2268.16,384.89 L 2300.80,351.47 L 2333.44,326.79 L 2366.08,312.42 L 2398.72,310.78 L 2431.36,322.79 L 2464.00,348.83 L 2496.64,384.18 L 2529.28,426.38 L 2561.92,473.41 L 2594.56,515.86 L 2627.20,552.73 L 2659.84,576.08 L 2692.48,584.54 L 2725.12,575.11 L 2757.76,548.06 L 2790.40,501.77 L 2823.04,443.28 L 2855.68,374.62 L 2888.32,296.87 L 2920.96,223.06 L 2953.60,151.90 L 2986.24,95.44 L 3018.88,54.30 L 3051.52,30.83 L 3084.16,28.78 L 3116.80,47.77 L 3149.44,84.09 L 3182.08,134.95 L 3200.00,170.25"
    stroke="#1a1a1a" stroke-width="2.0"
    fill="none" stroke-linecap="round" stroke-linejoin="round"/>
  <path d="M 0.00,170.25 L 14.72,199.24 L 47.36,265.56 L 80.00,334.64 L 112.64,394.63 L 145.28,444.51 L 177.92,482.45 L 210.56,502.85 L 243.20,507.34 L 275.84,496.71 L 308.48,474.09 L 341.12,441.38 L 373.76,406.22 L 406.40,370.16 L 439.04,341.18 L 471.68,321.19 L 504.32,312.78 L 536.96,318.15 L 569.60,337.69 L 602.24,367.89 L 634.88,406.44 L 667.52,451.63 L 700.16,494.39 L 732.80,533.71 L 765.44,561.20 L 798.08,575.16 L 830.72,572.44 L 863.36,552.04 L 896.00,512.33 L 928.64,459.11 L 961.28,394.27 L 993.92,318.57 L 1026.56,244.65 L 1059.20,171.24 L 1091.84,110.80 L 1124.48,64.27 L 1157.12,34.15 L 1189.76,25.46 L 1222.40,37.79 L 1255.04,68.72 L 1287.68,115.61 L 1320.32,177.65 L 1352.96,243.87 L 1385.60,315.00 L 1418.24,378.79 L 1450.88,433.95 L 1483.52,478.47 L 1516.16,505.52 L 1548.80,516.72 L 1581.44,511.59 L 1614.08,493.11 L 1646.72,462.86 L 1679.36,427.99 L 1712.00,390.09 L 1744.64,357.47 L 1777.28,332.33 L 1809.92,317.42 L 1842.56,316.15 L 1875.20,328.93 L 1907.84,353.50 L 1940.48,387.76 L 1973.12,430.30 L 2005.76,472.55 L 2038.40,513.51 L 2071.04,544.47 L 2103.68,563.45 L 2136.32,567.15 L 2168.96,553.38 L 2201.60,520.48 L 2234.24,472.99 L 2266.88,412.59 L 2299.52,339.74 L 2332.16,266.53 L 2364.80,191.69 L 2397.44,127.95 L 2430.08,76.54 L 2462.72,40.09 L 2495.36,24.79 L 2528.00,30.27 L 2560.64,55.37 L 2593.28,97.66 L 2625.92,156.66 L 2658.56,221.97 L 2691.20,294.32 L 2723.84,361.23 L 2756.48,421.13 L 2789.12,471.89 L 2821.76,505.52 L 2854.40,523.61 L 2887.04,524.41 L 2919.68,510.67 L 2952.32,483.64 L 2984.96,449.89 L 3017.60,410.98 L 3050.24,375.42 L 3082.88,345.68 L 3115.52,324.63 L 3148.16,316.82 L 3180.80,322.67 L 3200.00,333.59"
    stroke="#1a1a1a" stroke-width="2.0"
    fill="none" stroke-linecap="round" stroke-linejoin="round"/>
  <path d="M 0.00,333.59 L 13.44,341.23 L 46.08,370.61 L 78.72,409.73 L 111.36,450.68 L 144.00,492.43 L 176.64,526.14 L 209.28,549.58 L 241.92,559.32 L 274.56,552.04 L 307.20,526.10 L 339.84,484.70 L 372.48,429.32 L 405.12,360.06 L 437.76,288.37 L 470.40,212.94 L 503.04,146.64 L 535.68,90.93 L 568.32,48.55 L 600.96,26.79 L 633.60,25.30 L 666.24,44.23 L 698.88,81.37 L 731.52,136.59 L 764.16,200.20 L 796.80,272.91 L 829.44,342.21 L 862.08,406.25 L 894.72,462.82 L 927.36,502.85 L 960.00,527.93 L 992.64,534.97 L 1025.28,526.50 L 1057.92,503.43 L 1090.56,471.58 L 1123.20,432.51 L 1155.84,394.76 L 1188.48,361.05 L 1221.12,334.30 L 1253.76,320.14 L 1286.40,319.01 L 1319.04,331.26 L 1351.68,355.24 L 1384.32,390.24 L 1416.96,429.08 L 1449.60,470.78 L 1482.24,506.50 L 1514.88,533.74 L 1547.52,549.05 L 1580.16,548.06 L 1612.80,529.09 L 1645.44,494.08 L 1678.08,444.21 L 1710.72,379.25 L 1743.36,309.84 L 1776.00,234.68 L 1808.64,166.57 L 1841.28,107.22 L 1873.92,59.40 L 1906.56,31.43 L 1939.20,22.97 L 1971.84,35.46 L 2004.48,66.98 L 2037.12,117.74 L 2069.76,178.87 L 2102.40,251.11 L 2135.04,322.01 L 2167.68,389.52 L 2200.32,451.39 L 2232.96,497.56 L 2265.60,529.59 L 2298.24,543.12 L 2330.88,540.38 L 2363.52,521.94 L 2396.16,492.75 L 2428.80,454.37 L 2461.44,415.21 L 2494.08,378.20 L 2526.72,346.30 L 2559.36,326.08 L 2592.00,318.01 L 2624.64,323.73 L 2657.28,341.89 L 2689.92,372.10 L 2722.56,408.10 L 2755.20,448.89 L 2787.84,485.82 L 2820.48,516.18 L 2853.12,536.50 L 2885.76,541.48 L 2918.40,529.43 L 2951.04,500.97 L 2983.68,457.02 L 3016.32,397.01 L 3048.96,330.63 L 3081.60,256.58 L 3114.24,187.46 L 3146.88,125.17 L 3179.52,72.49 L 3200.00,51.25"
    stroke="#1a1a1a" stroke-width="2.0"
    fill="none" stroke-linecap="round" stroke-linejoin="round"/>
  <path d="M 0.00,51.25 L 12.16,38.64 L 44.80,23.30 L 77.44,29.21 L 110.08,54.71 L 142.72,100.38 L 175.36,158.30 L 208.00,229.22 L 240.64,300.93 L 273.28,371.20 L 305.92,437.77 L 338.56,489.72 L 371.20,528.59 L 403.84,548.74 L 436.48,552.09 L 469.12,538.88 L 501.76,513.08 L 534.40,476.23 L 567.04,436.46 L 599.68,396.89 L 632.32,360.43 L 664.96,334.54 L 697.60,319.68 L 730.24,318.76 L 762.88,330.75 L 795.52,355.59 L 828.16,388.03 L 860.80,427.09 L 893.44,464.41 L 926.08,497.16 L 958.72,521.86 L 991.36,532.41 L 3200.00,532.41"
    stroke="#1a1a1a" stroke-width="2.0"
    fill="none" stroke-linecap="round" stroke-linejoin="round"/>
</svg>
