<?xml version="1.0" encoding="UTF-8"?>
<svg xmlns="http://www.w3.org/2000/svg"
     width="3200" height="800"
     viewBox="0 0 3200 800">
  <polyline points="0.00,350.00 39.80,398.76 79.60,447.23 119.40,491.04 159.20,528.14 199.00,556.82 238.80,575.82 278.60,584.40 318.40,582.34 358.20,570.68 398.00,549.28 437.80,519.74 477.60,483.77 517.40,443.36 557.20,400.70 597.00,358.00 636.80,317.41 676.60,282.24 716.40,251.18 756.20,227.08 796.00,210.77 835.80,202.62 875.60,202.53 915.40,209.90 955.20,223.75 995.00,241.91 1034.80,264.37 1074.60,288.75 1114.40,313.31 1154.20,336.37 1194.00,356.45 1233.80,372.34 1273.60,383.19 1313.40,388.43 1353.20,388.44 1393.00,383.26 1432.80,373.62 1472.60,360.60 1512.40,345.53 1552.20,329.90 1592.00,315.24 1631.80,303.47 1671.60,294.90 1711.40,291.18 1751.20,293.05 1791.00,300.90 1830.80,314.67 1870.60,333.88 1910.40,357.64 1950.20,383.56 1990.00,412.31 2029.80,441.12 2069.60,468.13 2109.40,491.52 2149.20,509.57 2189.00,520.83 2228.80,524.15 2268.60,519.21 2308.40,505.35 2348.20,482.84 2388.00,452.42 2427.80,415.30 2467.60,373.10 2507.40,327.79 2547.20,281.57 2587.00,238.46 2626.80,197.11 2666.60,161.50 2706.40,133.53 2746.20,114.75 2786.00,106.24 2825.80,108.56 2865.60,121.74 2905.40,144.09 2945.20,176.46 2985.00,216.58 3024.80,262.52 3064.60,312.07 3104.40,362.83 3144.20,412.36 3184.00,458.31 3200.00,473.88"
    stroke="#1a1a1a" stroke-width="2.0"
    fill="none" stroke-linecap="round" stroke-linejoin="round"/>
  <polyline points="0.00,473.88 23.80,497.05 63.60,530.05 103.40,554.16 143.20,568.43 183.00,572.46 222.80,566.38 262.60,550.86 302.40,527.02 342.20,497.74 382.00,462.36 421.80,423.99 461.60,384.77 501.40,346.77 541.20,311.91 581.00,281.85 620.80,257.88 660.60,241.43 700.40,231.56 740.20,229.07 780.00,233.50 819.80,243.97 859.60,259.26 899.40,277.92 939.20,298.32 979.00,318.02 1018.80,337.13 1058.60,353.40 1098.40,365.67 1138.20,373.14 1178.00,375.37 1217.80,372.34 1257.60,364.46 1297.40,353.04 1337.20,338.19 1377.00,321.66 1416.80,304.96 1456.60,289.65 1496.40,277.26 1536.20,269.14 1576.00,266.40 1615.80,269.56 1655.60,279.24 1695.40,295.41 1735.20,317.56 1775.00,344.79 1814.80,375.79 1854.60,408.95 1894.40,442.43 1934.20,473.06 1974.00,501.48 2013.80,524.53 2053.60,540.58 2093.40,548.35 2133.20,546.95 2173.00,536.00 2212.80,515.60 2252.60,487.72 2292.40,451.13 2332.20,408.39 2372.00,361.43 2411.80,312.47 2451.60,263.86 2491.40,218.00 2531.20,177.16 2571.00,144.61 2610.80,119.29 2650.60,104.01 2690.40,99.57 2730.20,106.21 2770.00,123.62 2809.80,150.92 2849.60,186.76 2889.40,227.54 2929.20,274.62 2969.00,324.10 3008.80,373.57 3048.60,420.66 3088.40,463.19 3128.20,499.22 3168.00,527.23 3200.00,541.97"
    stroke="#1a1a1a" stroke-width="2.0"
    fill="none" stroke-linecap="round" stroke-linejoin="round"/>
  <polyline points="0.00,541.97 7.80,545.56 47.60,555.19 87.40,555.10 127.20,545.73 167.00,528.03 206.80,503.34 246.60,473.32 286.40,439.87 326.20,406.39 366.00,371.98 405.80,339.90 445.60,311.75 485.40,288.86 525.20,272.11 565.00,262.00 604.80,258.55 644.60,261.13 684.40,269.19 724.20,281.62 764.00,297.05 803.80,313.96 843.60,330.78 883.40,346.00 923.20,358.27 963.00,366.29 1002.80,369.97 1042.60,368.51 1082.40,361.93 1122.20,350.68 1162.00,335.55 1201.80,317.71 1241.60,298.54 1281.40,280.34 1321.20,263.17 1361.00,249.38 1400.80,240.38 1440.60,237.34 1480.40,241.09 1520.20,252.04 1560.00,270.16 1599.80,293.85 1639.60,324.19 1679.40,358.97 1719.20,396.54 1759.00,434.96 1798.80,472.16 1838.60,506.07 1878.40,534.66 1918.20,555.46 1958.00,568.77 1997.80,572.52 2037.60,566.13 2077.40,549.52 2117.20,523.20 2157.00,488.16 2196.80,445.91 2236.60,400.30 2276.40,349.66 2316.20,298.19 2356.00,248.35 2395.80,202.53 2435.60,162.94 2475.40,131.50 2515.20,109.68 2555.00,98.74 2594.80,98.21 2634.60,108.69 2674.40,129.56 2714.20,159.64 2754.00,197.35 2793.80,240.72 2833.60,287.54 2873.40,333.57 2913.20,380.37 2953.00,423.82 2992.80,461.94 3032.60,493.10 3072.40,516.09 3112.20,530.19 3152.00,535.16 3191.80,531.62 3200.00,529.22"
    stroke="#1a1a1a" stroke-width="2.0"
    fill="none" stroke-linecap="round" stroke-linejoin="round"/>
  <polyline points="0.00,529.22 31.60,519.98 71.40,501.38 111.20,477.30 151.00,449.47 190.80,419.74 230.60,389.98 270.40,361.93 310.20,338.07 350.00,317.62 389.80,302.55 429.60,293.34 469.40,290.07 509.20,292.35 549.00,299.46 588.80,310.32 628.60,323.05 668.40,337.30 708.20,351.08 748.00,362.93 787.80,371.58 827.60,375.98 867.40,375.45 907.20,369.65 947.00,359.21 986.80,343.74 1026.60,324.44 1066.40,302.53 1106.20,279.47 1146.00,256.92 1185.80,236.58 1225.60,220.11 1265.40,209.35 1305.20,204.60 1345.00,207.35 1384.80,218.08 1424.60,236.84 1464.40,263.17 1504.20,296.14 1544.00,334.40 1583.80,374.51 1623.60,417.86 1663.40,460.67 1703.20,500.71 1743.00,535.82 1782.80,564.01 1822.60,583.64 1862.40,593.43 1902.20,592.85 1942.00,581.60 1981.80,559.77 2021.60,528.22 2061.40,488.28 2101.20,441.74 2141.00,390.76 2180.80,337.70 2220.60,287.14 2260.40,237.24 2300.20,192.49 2340.00,154.94 2379.80,126.30 2419.60,107.78 2459.40,100.09 2499.20,103.39 2539.00,116.51 2578.80,139.67 2618.60,171.12 2658.40,209.11 2698.20,251.58 2738.00,296.30 2777.80,341.00 2817.60,383.51 2857.40,420.42 2897.20,453.18 2937.00,478.86 2976.80,496.60 3016.60,506.04 3056.40,507.30 3096.20,500.95 3136.00,487.99 3175.80,470.54 3200.00,457.25"
    stroke="#1a1a1a" stroke-width="2.0"
    fill="none" stroke-linecap="round" stroke-linejoin="round"/>
  <polyline points="0.00,457.25 15.60,448.68 55.40,424.72 95.20,400.40 135.00,377.37 174.80,357.07 214.60,340.69 254.40,329.07 294.20,322.80 334.00,321.41 373.80,324.89 413.60,332.52 453.40,343.25 493.20,355.78 533.00,368.69 572.80,380.49 612.60,389.48 652.40,395.18 692.20,396.17 732.00,391.80 771.80,381.77 811.60,366.24 851.40,345.76 891.20,321.29 931.00,295.26 970.80,267.03 1010.60,239.39 1050.40,214.16 1090.20,193.15 1130.00,177.99 1169.80,170.06 1209.60,170.39 1249.40,179.05 1289.20,196.86 1329.00,223.29 1368.80,257.46 1408.60,298.04 1448.40,343.28 1488.20,391.13 1528.00,439.31 1567.80,483.69 1607.60,525.72 1647.40,561.31 1687.20,588.60 1727.00,606.07 1766.80,612.70 1806.60,608.00 1846.40,592.05 1886.20,566.74 1926.00,531.09 1965.80,487.60 2005.60,438.28 2045.40,385.45 2085.20,331.59 2125.00,279.23 2164.80,230.76 2204.60,189.92 2244.40,155.12 2284.20,129.62 2324.00,114.36 2363.80,109.73 2403.60,115.59 2443.40,131.25 2483.20,155.55 2523.00,185.57 2562.80,221.99 2602.60,261.63 2642.40,302.36 2682.20,342.07 2722.00,378.82 2761.80,410.94 2801.60,437.12 2841.40,455.80 2881.20,468.11 2921.00,473.11 2960.80,471.24 3000.60,463.35 3040.40,450.60 3080.20,434.40 3120.00,416.30 3159.80,398.61 3199.60,381.34 3200.00,381.19"
    stroke="#1a1a1a" stroke-width="2.0"
    fill="none" stroke-linecap="round" stroke-linejoin="round"/>
  <polyline points="0.00,381.19 39.40,366.56 79.20,355.36 119.00,348.49 158.80,346.34 198.60,348.88 238.40,355.68 278.20,365.51 318.00,378.13 357.80,391.89 397.60,405.32 437.40,416.95 477.20,425.35 517.00,429.27 556.80,427.72 596.60,420.50 636.40,406.77 676.20,386.88 716.00,361.45 755.80,331.50 795.60,298.45 835.40,263.98 875.20,229.99 915.00,199.65 954.80,172.32 994.60,151.14 1034.40,137.68 1074.20,133.16 1114.00,138.34 1153.80,153.49 1193.60,178.36 1233.40,210.66 1273.20,251.85 1313.00,299.05 1352.80,350.18 1392.60,402.92 1432.40,454.81 1472.20,503.37 1512.00,546.26 1551.80,580.14 1591.60,606.17 1631.40,621.47 1671.20,625.28 1711.00,617.39 1750.80,598.20 1790.60,568.63 1830.40,530.13 1870.20,486.51 1910.00,436.25 1949.80,383.44 1989.60,330.57 2029.40,280.09 2069.20,234.25 2109.00,195.03 2148.80,164.02 2188.60,143.00 2228.40,130.84 2268.20,128.68 2308.00,136.10 2347.80,152.20 2387.60,175.64 2427.40,204.78 2467.20,237.76 2507.00,271.18 2546.80,305.93 2586.60,338.81 2626.40,368.19 2666.20,392.79 2706.00,411.67 2745.80,424.36 2785.60,430.79 2825.40,431.40 2865.20,426.98 2905.00,418.42 2944.80,407.02 2984.60,394.20 3024.40,381.43 3064.20,370.10 3104.00,361.43 3143.80,356.52 3183.60,355.57 3200.00,357.05"
    stroke="#1a1a1a" stroke-width="2.0"
    fill="none" stroke-linecap="round" stroke-linejoin="round"/>
  <polyline points="0.00,357.05 23.40,359.15 63.20,367.15 103.00,379.07 142.80,394.03 182.60,410.87 222.40,428.19 262.20,443.85 302.00,457.64 341.80,467.38 381.60,471.77 421.40,469.78 461.20,460.73 501.00,444.36 540.80,420.88 580.60,392.25 620.40,357.14 660.20,318.12 700.00,276.97 739.80,235.74 779.60,196.57 819.40,161.62 859.20,132.91 899.00,112.86 938.80,101.20 978.60,99.93 1018.40,109.53 1058.20,129.97 1098.00,160.62 1137.80,200.34 1177.60,247.50 1217.40,297.88 1257.20,353.43 1297.00,409.62 1336.80,463.87 1376.60,513.67 1416.40,556.75 1456.20,591.11 1496.00,615.24 1535.80,627.80 1575.60,629.37 1615.40,619.29 1655.20,598.20 1695.00,567.29 1734.80,528.21 1774.60,482.95 1814.40,433.79 1854.20,385.14 1894.00,335.27 1933.80,288.45 1973.60,246.74 2013.40,211.81 2053.20,184.94 2093.00,166.92 2132.80,158.03 2172.60,157.90 2212.40,165.84 2252.20,180.97 2292.00,201.86 2331.80,226.87 2371.60,254.21 2411.40,282.10 2451.20,308.84 2491.00,332.05 2530.80,352.50 2570.60,368.28 2610.40,378.93 2650.20,384.40 2690.00,385.02 2729.80,381.50 2769.60,374.85 2809.40,366.64 2849.20,357.51 2889.00,349.14 2928.80,342.85 2968.60,339.74 3008.40,340.70 3048.20,346.27 3088.00,356.59 3127.80,370.77 3167.60,389.37 3200.00,406.90"
    stroke="#1a1a1a" stroke-width="2.0"
    fill="none" stroke-linecap="round" stroke-linejoin="round"/>
  <polyline points="0.00,406.90 7.40,410.90 47.20,434.08 87.00,457.36 126.80,479.10 166.60,497.58 206.40,511.19 246.20,518.35 286.00,518.56 325.80,510.59 365.60,494.11 405.40,469.28 445.20,436.71 485.00,397.53 524.80,353.28 564.60,307.79 604.40,259.37 644.20,212.17 684.00,168.53 723.80,130.72 763.60,100.76 803.40,80.35 843.20,70.73 883.00,72.37 922.80,85.58 962.60,110.16 1002.40,145.18 1042.20,189.18 1082.00,240.23 1121.80,296.08 1161.60,354.20 1201.40,409.71 1241.20,464.72 1281.00,514.44 1320.80,556.70 1360.60,589.72 1400.40,612.19 1440.20,623.34 1480.00,622.97 1519.80,612.10 1559.60,590.69 1599.40,560.35 1639.20,522.82 1679.00,480.17 1718.80,434.61 1758.60,388.42 1798.40,343.80 1838.20,304.30 1878.00,268.31 1917.80,238.88 1957.60,216.93 1997.40,202.90 2037.20,196.75 2077.00,197.98 2116.80,205.73 2156.60,218.16 2196.40,234.93 2236.20,254.04 2276.00,273.89 2315.80,292.97 2355.60,309.95 2395.40,323.75 2435.20,333.64 2475.00,339.12 2514.80,340.66 2554.60,338.33 2594.40,332.88 2634.20,325.32 2674.00,316.88 2713.80,308.91 2753.60,302.75 2793.40,299.73 2833.20,300.62 2873.00,306.45 2912.80,317.66 2952.60,334.34 2992.40,356.14 3032.20,382.31 3072.00,411.71 3111.80,441.62 3151.60,472.89 3191.40,502.46 3200.00,508.07"
    stroke="#1a1a1a" stroke-width="2.0"
    fill="none" stroke-linecap="round" stroke-linejoin="round"/>
  <polyline points="0.00,508.07 31.20,528.43 71.00,549.00 110.80,562.53 150.60,567.70 190.40,563.57 230.20,550.41 270.00,527.15 309.80,494.67 349.60,454.02 389.40,406.73 429.20,354.74 469.00,300.29 508.80,245.84 548.60,195.89 588.40,148.69 628.20,108.66 668.00,77.78 707.80,57.62 747.60,49.24 787.40,53.16 827.20,69.28 867.00,95.60 906.80,133.16 946.60,179.36 986.40,232.09 1026.20,288.94 1066.00,347.33 1105.80,404.64 1145.60,458.35 1185.40,504.39 1225.20,544.70 1265.00,575.69 1304.80,596.31 1344.60,606.06 1384.40,605.02 1424.20,593.75 1464.00,573.34 1503.80,546.52 1543.60,512.79 1583.40,475.11 1623.20,435.58 1663.00,396.24 1702.80,359.00 1742.60,325.52 1782.40,297.11 1822.20,275.48 1862.00,259.31 1901.80,249.68 1941.60,246.24 1981.40,248.27 2021.20,254.72 2061.00,264.33 2100.80,275.70 2140.60,286.96 2180.40,297.77 2220.20,306.49 2260.00,312.21 2299.80,314.35 2339.60,312.69 2379.40,307.38 2419.20,298.95 2459.00,288.71 2498.80,276.89 2538.60,265.19 2578.40,255.03 2618.20,247.81 2658.00,244.86 2697.80,247.26 2737.60,255.82 2777.40,270.24 2817.20,291.76 2857.00,319.50 2896.80,352.61 2936.60,389.83 2976.40,429.56 3016.20,469.92 3056.00,508.83 3095.80,542.87 3135.60,572.89 3175.40,595.50 3200.00,603.91"
    stroke="#1a1a1a" stroke-width="2.0"
    fill="none" stroke-linecap="round" stroke-linejoin="round"/>
  <polyline points="0.00,603.91 15.20,609.11 55.00,612.54 94.80,605.06 134.60,586.49 174.40,557.20 214.20,519.84 254.00,472.68 293.80,418.99 333.60,361.01 373.40,301.25 413.20,242.37 453.00,186.99 492.80,137.64 532.60,98.01 572.40,66.60 612.20,46.64 652.00,38.98 691.80,43.88 731.60,61.00 771.40,89.44 811.20,127.75 851.00,172.06 890.80,223.93 930.60,279.20 970.40,335.34 1010.20,389.83 1050.00,440.33 1089.80,484.78 1129.60,521.49 1169.40,548.31 1209.20,566.77 1249.00,575.35 1288.80,574.35 1328.60,564.54 1368.40,547.10 1408.20,523.55 1448.00,495.62 1487.80,466.39 1527.60,435.23 1567.40,405.02 1607.20,377.30 1647.00,353.28 1686.80,333.84 1726.60,319.44 1766.40,310.14 1806.20,305.72 1846.00,305.16 1885.80,307.79 1925.60,312.45 1965.40,317.89 2005.20,322.81 2045.00,326.05 2084.80,326.60 2124.60,323.90 2164.40,317.34 2204.20,306.89 2244.00,292.88 2283.80,275.99 2323.60,257.25 2363.40,237.95 2403.20,219.58 2443.00,204.26 2482.80,192.23 2522.60,185.64 2562.40,185.71 2602.20,193.33 2642.00,209.02 2681.80,232.84 2721.60,264.37 2761.40,301.07 2801.20,344.71 2841.00,392.15 2880.80,441.37 2920.60,490.11 2960.40,536.01 3000.20,576.77 3040.00,610.22 3079.80,633.69 3119.60,647.71 3159.40,650.05 3199.20,640.22 3200.00,639.78"
    stroke="#1a1a1a" stroke-width="2.0"
    fill="none" stroke-linecap="round" stroke-linejoin="round"/>
  <polyline points="0.00,639.78 39.00,618.33 78.80,585.04 118.60,541.59 158.40,489.75 198.20,434.08 238.00,372.37 277.80,309.49 317.60,248.20 357.40,191.15 397.20,140.82 437.00,99.32 476.80,68.34 516.60,49.60 556.40,42.12 596.20,46.96 636.00,63.57 675.80,90.84 715.60,127.21 755.40,170.72 795.20,219.16 835.00,268.08 874.80,319.26 914.60,368.41 954.40,413.46 994.20,452.67 1034.00,484.69 1073.80,508.65 1113.60,524.14 1153.40,531.13 1193.20,530.70 1233.00,523.31 1272.80,510.21 1312.60,492.85 1352.40,472.82 1392.20,451.72 1432.00,431.04 1471.80,412.80 1511.60,396.51 1551.40,383.68 1591.20,374.68 1631.00,369.48 1670.80,367.70 1710.60,368.64 1750.40,371.33 1790.20,374.51 1830.00,377.24 1869.80,378.18 1909.60,376.23 1949.40,370.48 1989.20,360.31 2029.00,345.44 2068.80,325.98 2108.60,303.43 2148.40,276.77 2188.20,248.09 2228.00,218.88 2267.80,190.84 2307.60,165.77 2347.40,145.47 2387.20,131.59 2427.00,125.64 2466.80,128.17 2506.60,140.29 2546.40,162.20 2586.20,193.59 2626.00,233.63 2665.80,280.99 2705.60,333.89 2745.40,387.91 2785.20,445.22 2825.00,501.08 2864.80,552.91 2904.60,598.28 2944.40,634.97 2984.20,661.13 3024.00,675.40 3063.80,677.12 3103.60,666.19 3143.40,642.63 3183.20,607.37 3200.00,588.18"
    stroke="#1a1a1a" stroke-width="2.0"
    fill="none" stroke-linecap="round" stroke-linejoin="round"/>
  <polyline points="0.00,588.18 23.00,561.91 62.80,508.22 102.60,448.65 142.40,385.81 182.20,324.95 222.00,263.64 261.80,207.01 301.60,157.38 341.40,116.69 381.20,86.41 421.00,67.47 460.80,60.23 500.60,64.10 540.40,78.70 580.20,102.88 620.00,135.01 659.80,173.17 699.60,215.26 739.40,259.09 779.20,302.55 819.00,342.09 858.80,379.40 898.60,411.41 938.40,437.20 978.20,456.26 1018.00,468.55 1057.80,474.42 1097.60,474.61 1137.40,470.40 1177.20,462.64 1217.00,452.75 1256.80,442.10 1296.60,431.96 1336.40,423.40 1376.20,417.27 1416.00,414.06 1455.80,413.89 1495.60,416.55 1535.40,421.58 1575.20,428.14 1615.00,435.17 1654.80,441.43 1694.60,445.62 1734.40,446.49 1774.20,443.14 1814.00,434.43 1853.80,419.81 1893.60,399.08 1933.40,372.41 1973.20,340.44 2013.00,304.21 2052.80,265.14 2092.60,226.56 2132.40,187.14 2172.20,150.55 2212.00,118.85 2251.80,94.00 2291.60,77.73 2331.40,71.41 2371.20,75.99 2411.00,91.06 2450.80,117.77 2490.60,155.07 2530.40,201.75 2570.20,256.12 2610.00,316.03 2649.80,379.02 2689.60,442.43 2729.40,501.12 2769.20,557.40 2809.00,606.25 2848.80,645.49 2888.60,673.37 2928.40,688.66 2968.20,690.71 3008.00,679.49 3047.80,656.78 3087.60,621.80 3127.40,576.91 3167.20,524.21 3200.00,476.34"
    stroke="#1a1a1a" stroke-width="2.0"
    fill="none" stroke-linecap="round" stroke-linejoin="round"/>
  <polyline points="0.00,476.34 7.00,466.12 46.80,405.25 86.60,344.27 126.40,285.78 166.20,234.19 206.00,187.22 245.80,148.81 285.60,120.14 325.40,101.87 365.20,94.14 405.00,96.55 444.80,108.21 484.60,126.92 524.40,152.71 564.20,183.15 604.00,216.35 643.80,250.42 683.60,283.62 723.40,314.42 763.20,341.60 803.00,363.49 842.80,381.47 882.60,394.44 922.40,402.72 962.20,406.93 1002.00,407.99 1041.80,406.98 1081.60,405.08 1121.40,403.50 1161.20,403.15 1201.00,404.99 1240.80,409.61 1280.60,417.33 1320.40,428.08 1360.20,441.45 1400.00,456.66 1439.80,472.03 1479.60,487.59 1519.40,501.30 1559.20,511.67 1599.00,517.28 1638.80,516.88 1678.60,509.45 1718.40,494.34 1758.20,472.38 1798.00,441.92 1837.80,404.38 1877.60,360.89 1917.40,313.00 1957.20,262.60 1997.00,211.88 2036.80,163.17 2076.60,120.48 2116.40,82.48 2156.20,53.12 2196.00,34.14 2235.80,26.84 2275.60,32.01 2315.40,49.87 2355.20,80.04 2395.00,119.68 2434.80,170.62 2474.60,229.43 2514.40,293.71 2554.20,360.77 2594.00,427.79 2633.80,491.92 2673.60,550.45 2713.40,599.10 2753.20,639.90 2793.00,669.05 2832.80,685.51 2872.60,688.83 2912.40,679.16 2952.20,657.27 2992.00,624.45 3031.80,584.31 3071.60,535.54 3111.40,482.03 3151.20,426.26 3191.00,370.72 3200.00,358.74"
    stroke="#1a1a1a" stroke-width="2.0"
    fill="none" stroke-linecap="round" stroke-linejoin="round"/>
  <polyline points="0.00,358.74 30.80,317.75 70.60,269.46 110.40,227.59 150.20,194.66 190.00,168.75 229.80,151.77 269.60,143.60 309.40,143.67 349.20,151.01 389.00,164.35 428.80,182.22 468.60,202.16 508.40,224.29 548.20,246.35 588.00,267.06 627.80,285.39 667.60,300.67 707.40,312.56 747.20,321.10 787.00,326.49 826.80,329.83 866.60,331.75 906.40,333.29 946.20,335.57 986.00,339.66 1025.80,346.53 1065.60,356.89 1105.40,370.53 1145.20,388.69 1185.00,410.62 1224.80,435.66 1264.60,462.83 1304.40,490.80 1344.20,518.04 1384.00,542.84 1423.80,562.73 1463.60,577.75 1503.40,585.46 1543.20,584.61 1583.00,574.35 1622.80,554.26 1662.60,524.41 1702.40,485.40 1742.20,440.36 1782.00,387.07 1821.80,329.25 1861.60,269.22 1901.40,209.51 1941.20,152.77 1981.00,101.57 2020.80,58.34 2060.60,26.30 2100.40,4.42 2140.20,0.00 2180.00,0.06 2219.80,18.21 2259.60,49.30 2299.40,92.11 2339.20,144.89 2379.00,202.88 2418.80,268.44 2458.60,336.51 2498.40,404.23 2538.20,468.76 2578.00,527.50 2617.80,578.12 2657.60,618.73 2697.40,647.02 2737.20,664.56 2777.00,669.66 2816.80,662.68 2856.60,644.48 2896.40,616.44 2936.20,580.31 2976.00,538.14 3015.80,494.01 3055.60,446.44 3095.40,399.36 3135.20,354.78 3175.00,314.39 3200.00,292.49"
    stroke="#1a1a1a" stroke-width="2.0"
    fill="none" stroke-linecap="round" stroke-linejoin="round"/>
  <polyline points="0.00,292.49 14.80,279.53 54.60,251.10 94.40,229.59 134.20,215.48 174.00,207.23 213.80,204.85 253.60,207.33 293.40,213.47 333.20,221.97 373.00,231.53 412.80,240.95 452.60,248.95 492.40,255.45 532.20,259.65 572.00,261.45 611.80,261.08 651.60,259.10 691.40,256.33 731.20,253.81 771.00,252.70 810.80,254.04 850.60,259.03 890.40,268.62 930.20,283.50 970.00,304.06 1009.80,330.27 1049.60,361.71 1089.40,396.05 1129.20,434.97 1169.00,475.56 1208.80,515.99 1248.60,554.27 1288.40,588.33 1328.20,616.14 1368.00,635.87 1407.80,645.75 1447.60,645.46 1487.40,633.67 1527.20,610.19 1567.00,575.41 1606.80,530.27 1646.60,476.26 1686.40,415.35 1726.20,352.58 1766.00,285.27 1805.80,218.77 1845.60,155.91 1885.40,99.42 1925.20,51.76 1965.00,15.04 2004.80,0.00 2044.60,0.00 2084.40,0.00 2124.20,0.10 2164.00,29.91 2203.80,71.40 2243.60,122.66 2283.40,181.41 2323.20,245.03 2363.00,308.14 2402.80,373.32 2442.60,435.28 2482.40,491.60 2522.20,540.21 2562.00,579.47 2601.80,608.26 2641.60,626.00 2681.40,632.62 2721.20,629.13 2761.00,616.01 2800.80,594.60 2840.60,566.58 2880.40,533.80 2920.20,498.18 2960.00,461.64 2999.80,427.30 3039.60,393.80 3079.40,363.78 3119.20,338.11 3159.00,317.23 3198.80,301.22 3200.00,300.87"
    stroke="#1a1a1a" stroke-width="2.0"
    fill="none" stroke-linecap="round" stroke-linejoin="round"/>
  <polyline points="0.00,300.87 38.60,289.77 78.40,282.27 118.20,277.98 158.00,275.56 197.80,274.15 237.60,272.68 277.40,270.21 317.20,265.99 357.00,259.53 396.80,250.69 436.60,240.12 476.40,227.42 516.20,213.81 556.00,200.37 595.80,188.37 635.60,179.19 675.40,174.19 715.20,174.67 755.00,181.28 794.80,195.36 834.60,217.18 874.40,246.78 914.20,283.69 954.00,327.01 993.80,375.37 1033.60,427.02 1073.40,477.79 1113.20,529.69 1153.00,578.23 1192.80,621.03 1232.60,655.87 1272.40,680.77 1312.20,694.15 1352.00,694.93 1391.80,683.30 1431.60,658.34 1471.40,620.90 1511.20,572.23 1551.00,514.10 1590.80,448.76 1630.60,378.84 1670.40,307.19 1710.20,239.52 1750.00,173.02 1789.80,113.29 1829.60,62.77 1869.40,23.46 1909.20,0.00 1949.00,0.00 1988.80,0.00 2028.60,0.00 2068.40,24.62 2108.20,62.18 2148.00,108.93 2187.80,162.61 2227.60,220.70 2267.40,280.62 2307.20,339.81 2347.00,393.73 2386.80,444.84 2426.60,489.05 2466.40,525.08 2506.20,552.12 2546.00,569.85 2585.80,578.45 2625.60,578.55 2665.40,571.57 2705.20,558.20 2745.00,540.06 2784.80,518.73 2824.60,495.79 2864.40,472.67 2904.20,450.61 2944.00,430.60 2983.80,413.90 3023.60,399.40 3063.40,387.82 3103.20,378.79 3143.00,371.66 3182.80,365.59 3200.00,363.00"
    stroke="#1a1a1a" stroke-width="2.0"
    fill="none" stroke-linecap="round" stroke-linejoin="round"/>
  <polyline points="0.00,363.00 22.60,359.60 62.40,352.67 102.20,344.28 142.00,332.95 181.80,318.43 221.60,300.44 261.40,279.06 301.20,254.73 341.00,228.23 380.80,200.69 420.60,174.56 460.40,149.21 500.20,127.41 540.00,110.86 579.80,101.14 619.60,99.61 659.40,107.30 699.20,124.84 739.00,151.10 778.80,187.95 818.60,233.64 858.40,286.79 898.20,345.61 938.00,407.88 977.80,471.11 1017.60,532.64 1057.40,587.62 1097.20,638.10 1137.00,679.32 1176.80,709.26 1216.60,726.36 1256.40,729.61 1296.20,718.62 1336.00,693.63 1375.80,657.28 1415.60,607.95 1455.40,548.89 1495.20,482.52 1535.00,411.59 1574.80,339.02 1614.60,267.80 1654.40,200.79 1694.20,142.89 1734.00,91.49 1773.80,50.98 1813.60,22.67 1853.40,7.26 1893.20,4.87 1933.00,15.00 1972.80,36.63 2012.60,66.82 2052.40,106.27 2092.20,151.78 2132.00,201.06 2171.80,251.79 2211.60,301.78 2251.40,349.04 2291.20,391.87 2331.00,427.61 2370.80,458.37 2410.60,482.10 2450.40,498.76 2490.20,508.75 2530.00,512.80 2569.80,511.90 2609.60,507.23 2649.40,500.36 2689.20,491.91 2729.00,483.24 2768.80,475.27 2808.60,468.67 2848.40,463.80 2888.20,460.68 2928.00,459.04 2967.80,458.30 3007.60,457.63 3047.40,456.06 3087.20,452.53 3127.00,445.97 3166.80,435.41 3200.00,422.62"
    stroke="#1a1a1a" stroke-width="2.0"
    fill="none" stroke-linecap="round" stroke-linejoin="round"/>
  <polyline points="0.00,422.62 6.60,420.08 46.40,399.48 86.20,374.59 126.00,343.57 165.80,307.95 205.60,268.76 245.40,227.39 285.20,185.52 325.00,145.08 364.80,108.11 404.60,77.81 444.40,53.53 484.20,38.41 524.00,33.85 563.80,40.83 603.60,59.84 643.40,90.78 683.20,133.01 723.00,183.03 762.80,243.32 802.60,309.81 842.40,379.93 882.20,450.88 922.00,519.74 961.80,583.61 1001.60,639.78 1041.40,684.20 1081.20,718.63 1121.00,739.52 1160.80,745.97 1200.60,737.73 1240.40,715.21 1280.20,679.42 1320.00,631.98 1359.80,577.43 1399.60,513.61 1439.40,445.37 1479.20,375.57 1519.00,307.07 1558.80,242.58 1598.60,184.53 1638.40,134.96 1678.20,96.81 1718.00,67.92 1757.80,50.58 1797.60,44.73 1837.40,49.80 1877.20,64.71 1917.00,88.04 1956.80,118.05 1996.60,151.38 2036.40,188.92 2076.20,227.46 2116.00,265.25 2155.80,300.79 2195.60,332.91 2235.40,360.79 2275.20,384.02 2315.00,401.89 2354.80,416.18 2394.60,426.66 2434.40,434.14 2474.20,439.58 2514.00,443.98 2553.80,448.32 2593.60,453.41 2633.40,459.58 2673.20,467.69 2713.00,477.54 2752.80,488.87 2792.60,501.06 2832.40,513.24 2872.20,524.30 2912.00,532.97 2951.80,537.83 2991.60,538.03 3031.40,532.14 3071.20,519.25 3111.00,498.76 3150.80,470.45 3190.60,434.58 3200.00,424.48"
    stroke="#1a1a1a" stroke-width="2.0"
    fill="none" stroke-linecap="round" stroke-linejoin="round"/>
  <polyline points="0.00,424.48 30.40,391.82 70.20,345.36 110.00,292.85 149.80,238.04 189.60,183.14 229.40,130.53 269.20,82.64 309.00,41.85 348.80,10.31 388.60,0.00 428.40,0.00 468.20,0.00 508.00,5.58 547.80,37.63 587.60,82.19 627.40,137.75 667.20,202.27 707.00,270.36 746.80,344.97 786.60,420.39 826.40,493.56 866.20,561.52 906.00,621.51 945.80,671.16 985.60,708.56 1025.40,731.67 1065.20,741.70 1105.00,737.30 1144.80,718.98 1184.60,687.87 1224.40,645.63 1264.20,594.33 1304.00,536.41 1343.80,476.98 1383.60,413.69 1423.40,351.55 1463.20,292.96 1503.00,240.03 1542.80,194.46 1582.60,157.49 1622.40,129.88 1662.20,112.39 1702.00,103.35 1741.80,102.99 1781.60,110.30 1821.40,123.94 1861.20,142.43 1901.00,164.20 1940.80,187.72 1980.60,210.65 2020.40,233.73 2060.20,255.10 2100.00,274.15 2139.80,290.65 2179.60,304.65 2219.40,316.55 2259.20,326.97 2299.00,336.33 2338.80,346.28 2378.60,357.32 2418.40,370.28 2458.20,385.78 2498.00,404.24 2537.80,425.74 2577.60,450.03 2617.40,475.43 2657.20,503.16 2697.00,530.97 2736.80,557.40 2776.60,580.83 2816.40,599.60 2856.20,612.07 2896.00,616.77 2935.80,612.87 2975.60,599.21 3015.40,575.34 3055.20,541.34 3095.00,497.80 3134.80,445.82 3174.60,387.01 3200.00,346.42"
    stroke="#1a1a1a" stroke-width="2.0"
    fill="none" stroke-linecap="round" stroke-linejoin="round"/>
  <polyline points="0.00,346.42 14.40,323.41 54.20,260.08 94.00,194.27 133.80,131.34 173.60,74.04 213.40,24.95 253.20,0.00 293.00,0.00 332.80,0.00 372.60,0.00 412.40,0.00 452.20,0.00 492.00,41.17 531.80,96.75 571.60,161.66 611.40,233.27 651.20,308.69 691.00,381.82 730.80,455.82 770.60,524.72 810.40,585.88 850.20,637.05 890.00,676.48 929.80,702.99 969.60,716.02 1009.40,715.86 1049.20,703.11 1089.00,678.66 1128.80,644.13 1168.60,601.51 1208.40,553.00 1248.20,500.97 1288.00,447.75 1327.80,397.59 1367.60,348.23 1407.40,303.46 1447.20,264.57 1487.00,232.39 1526.80,207.33 1566.60,189.36 1606.40,178.07 1646.20,172.83 1686.00,172.25 1725.80,175.52 1765.60,181.44 1805.40,188.84 1845.20,196.70 1885.00,204.18 1924.80,210.71 1964.60,215.83 2004.40,220.02 2044.20,223.37 2084.00,226.48 2123.80,230.17 2163.60,235.40 2203.40,243.17 2243.20,254.44 2283.00,269.33 2322.80,289.65 2362.60,315.21 2402.40,345.97 2442.20,381.50 2482.00,420.98 2521.80,463.20 2561.60,506.62 2601.40,547.75 2641.20,588.08 2681.00,623.80 2720.80,652.86 2760.60,673.37 2800.40,683.70 2840.20,682.63 2880.00,669.38 2919.80,644.96 2959.60,607.65 2999.40,559.13 3039.20,500.85 3079.00,434.79 3118.80,363.35 3158.60,289.28 3198.40,215.52 3200.00,212.80"
    stroke="#1a1a1a" stroke-width="2.0"
    fill="none" stroke-linecap="round" stroke-linejoin="round"/>
  <polyline points="0.00,212.80 38.20,147.79 78.00,83.27 117.80,27.59 157.60,0.00 197.40,0.00 237.20,0.00 277.00,0.00 316.80,0.00 356.60,0.00 396.40,13.69 436.20,66.03 476.00,127.68 515.80,196.00 555.60,268.13 595.40,341.11 635.20,412.03 675.00,475.65 714.80,534.95 754.60,585.15 794.40,624.75 834.20,652.80 874.00,668.90 913.80,673.22 953.60,666.46 993.40,650.61 1033.20,625.81 1073.00,594.31 1112.80,558.03 1152.60,518.94 1192.40,478.94 1232.20,439.72 1272.00,402.76 1311.80,370.44 1351.60,340.81 1391.40,315.67 1431.20,295.06 1471.00,278.65 1510.80,265.87 1550.60,255.91 1590.40,247.88 1630.20,241.11 1670.00,234.22 1709.80,226.79 1749.60,218.31 1789.40,208.57 1829.20,197.66 1869.00,185.97 1908.80,174.20 1948.60,163.70 1988.40,154.69 2028.20,148.89 2068.00,147.57 2107.80,151.91 2147.60,162.95 2187.40,181.42 2227.20,207.72 2267.00,240.33 2306.80,281.53 2346.60,329.21 2386.40,382.01 2426.20,438.17 2466.00,495.62 2505.80,552.00 2545.60,604.86 2585.40,650.01 2625.20,688.94 2665.00,717.53 2704.80,734.06 2744.60,737.26 2784.40,726.43 2824.20,701.48 2864.00,662.95 2903.80,614.25 2943.60,553.02 2983.40,483.27 3023.20,407.67 3063.00,329.18 3102.80,250.91 3142.60,175.98 3182.40,107.39 3200.00,82.02"
    stroke="#1a1a1a" stroke-width="2.0"
    fill="none" stroke-linecap="round" stroke-linejoin="round"/>
  <polyline points="0.00,82.02 22.20,50.01 62.00,1.32 101.80,0.00 141.60,0.00 181.40,0.00 221.20,0.00 261.00,0.00 300.80,4.54 340.60,48.93 380.40,103.84 420.20,165.09 460.00,229.99 499.80,295.83 539.60,359.99 579.40,420.07 619.20,474.01 659.00,518.48 698.80,556.06 738.60,584.04 778.40,602.26 818.20,611.00 858.00,611.02 897.80,603.38 937.60,589.42 977.40,571.47 1017.20,549.51 1057.00,525.72 1096.80,501.43 1136.60,477.78 1176.40,455.60 1216.20,435.44 1256.00,417.47 1295.80,402.18 1335.60,387.92 1375.40,374.74 1415.20,361.88 1455.00,348.51 1494.80,333.83 1534.60,317.14 1574.40,297.94 1614.20,276.92 1654.00,252.41 1693.80,225.62 1733.60,197.30 1773.40,168.49 1813.20,140.53 1853.00,114.96 1892.80,93.40 1932.60,78.02 1972.40,69.07 2012.20,68.65 2052.00,77.84 2091.80,97.30 2131.60,127.25 2171.40,167.38 2211.20,216.85 2251.00,271.89 2290.80,335.31 2330.60,402.75 2370.40,471.67 2410.20,539.31 2450.00,602.86 2489.80,659.55 2529.60,706.82 2569.40,741.29 2609.20,764.09 2649.00,772.31 2688.80,765.31 2728.60,743.12 2768.40,706.45 2808.20,656.63 2848.00,595.57 2887.80,528.61 2927.60,452.88 2967.40,374.02 3007.20,295.19 3047.00,219.47 3086.80,149.79 3126.60,88.76 3166.40,38.52 3200.00,7.68"
    stroke="#1a1a1a" stroke-width="2.0"
    fill="none" stroke-linecap="round" stroke-linejoin="round"/>
  <polyline points="0.00,7.68 6.20,1.99 46.00,0.00 85.80,0.00 125.60,0.00 165.40,0.00 205.20,12.33 245.00,49.79 284.80,95.12 324.60,143.92 364.40,197.97 404.20,252.96 444.00,306.70 483.80,357.23 523.60,402.95 563.40,442.64 603.20,475.52 643.00,500.37 682.80,519.34 722.60,531.67 762.40,538.13 802.20,539.68 842.00,537.45 881.80,532.58 921.60,526.17 961.40,519.43 1001.20,512.54 1041.00,506.23 1080.80,500.69 1120.60,495.81 1160.40,491.18 1200.20,486.15 1240.00,479.92 1279.80,471.94 1319.60,460.62 1359.40,445.40 1399.20,425.57 1439.00,400.67 1478.80,370.57 1518.60,335.50 1558.40,296.06 1598.20,255.04 1638.00,210.35 1677.80,165.29 1717.60,121.81 1757.40,81.95 1797.20,47.82 1837.00,21.43 1876.80,4.59 1916.60,0.00 1956.40,4.64 1996.20,23.16 2036.00,54.40 2075.80,97.81 2115.60,152.25 2155.40,216.02 2195.20,286.92 2235.00,359.29 2274.80,436.37 2314.60,512.18 2354.40,583.64 2394.20,647.83 2434.00,702.08 2473.80,744.10 2513.60,772.13 2553.40,784.80 2593.20,782.65 2633.00,764.98 2672.80,732.58 2712.60,686.90 2752.40,629.92 2792.20,564.07 2832.00,492.13 2871.80,420.08 2911.60,344.84 2951.40,272.29 2991.20,205.16 3031.00,145.79 3070.80,96.11 3110.60,57.53 3150.40,30.88 3190.20,16.78 3200.00,16.05"
    stroke="#1a1a1a" stroke-width="2.0"
    fill="none" stroke-linecap="round" stroke-linejoin="round"/>
  <polyline points="0.00,16.05 30.00,13.79 69.80,21.94 109.60,40.02 149.40,66.44 189.20,99.40 229.00,136.93 268.80,177.09 308.60,216.38 348.40,256.46 388.20,294.30 428.00,328.83 467.80,359.34 507.60,385.52 547.40,407.38 587.20,425.27 627.00,439.25 666.80,451.25 706.60,461.45 746.40,470.72 786.20,479.83 826.00,489.36 865.80,499.70 905.60,510.93 945.40,522.35 985.20,534.43 1025.00,545.92 1064.80,555.83 1104.60,562.98 1144.40,566.13 1184.20,564.07 1224.00,555.68 1263.80,540.85 1303.60,517.77 1343.40,486.68 1383.20,447.77 1423.00,401.72 1462.80,349.63 1502.60,293.07 1542.40,233.97 1582.20,176.91 1622.00,119.49 1661.80,66.62 1701.60,20.78 1741.40,0.00 1781.20,0.00 1821.00,0.00 1860.80,0.00 1900.60,0.00 1940.40,0.00 1980.20,38.06 2020.00,94.16 2059.80,160.58 2099.60,234.90 2139.40,314.28 2179.20,395.63 2219.00,472.62 2258.80,548.61 2298.60,617.35 2338.40,676.17 2378.20,722.84 2418.00,755.68 2457.80,773.61 2497.60,776.23 2537.40,764.55 2577.20,738.47 2617.00,699.61 2656.80,649.92 2696.60,591.77 2736.40,527.75 2776.20,460.62 2816.00,393.13 2855.80,330.41 2895.60,269.53 2935.40,215.17 2975.20,168.89 3015.00,131.80 3054.80,104.48 3094.60,87.00 3134.40,78.97 3174.20,79.42 3200.00,84.53"
    stroke="#1a1a1a" stroke-width="2.0"
    fill="none" stroke-linecap="round" stroke-linejoin="round"/>
  <polyline points="0.00,84.53 14.00,87.30 53.80,101.41 93.60,120.26 133.40,142.33 173.20,166.18 213.00,190.54 252.80,214.35 292.60,235.98 332.40,256.80 372.20,275.74 412.00,292.97 451.80,308.91 491.60,324.18 531.40,339.51 571.20,355.68 611.00,372.66 650.80,392.43 690.60,414.68 730.40,439.51 770.20,466.70 810.00,495.70 849.80,525.62 889.60,555.27 929.40,582.18 969.20,607.03 1009.00,627.01 1048.80,640.48 1088.60,645.94 1128.40,642.14 1168.20,628.16 1208.00,603.52 1247.80,569.82 1287.60,524.75 1327.40,470.54 1367.20,408.75 1407.00,341.38 1446.80,270.83 1486.60,199.78 1526.40,131.09 1566.20,70.01 1606.00,14.12 1645.80,0.00 1685.60,0.00 1725.40,0.00 1765.20,0.00 1805.00,0.00 1844.80,0.00 1884.60,0.00 1924.40,47.10 1964.20,112.40 2004.00,186.04 2043.80,265.10 2083.60,346.45 2123.40,426.90 2163.20,503.33 2203.00,570.23 2242.80,630.72 2282.60,679.78 2322.40,715.88 2362.20,738.08 2402.00,746.10 2441.80,740.26 2481.60,721.46 2521.40,692.55 2561.20,652.89 2601.00,605.60 2640.80,553.04 2680.60,497.58 2720.40,441.59 2760.20,387.21 2800.00,336.33 2839.80,292.21 2879.60,252.26 2919.40,219.15 2959.20,193.13 2999.00,174.08 3038.80,161.50 3078.60,154.62 3118.40,152.45 3158.20,153.79 3198.00,157.70 3200.00,157.98"
    stroke="#1a1a1a" stroke-width="2.0"
    fill="none" stroke-linecap="round" stroke-linejoin="round"/>
  <polyline points="0.00,157.98 37.80,163.17 77.60,169.31 117.40,175.50 157.20,181.37 197.00,186.82 236.80,192.06 276.60,197.34 316.40,203.75 356.20,211.91 396.00,222.73 435.80,237.09 475.60,255.76 515.40,279.33 555.20,308.11 595.00,340.60 634.80,379.13 674.60,421.68 714.40,467.06 754.20,513.76 794.00,559.98 833.80,603.71 873.60,642.82 913.40,674.08 953.20,698.18 993.00,711.92 1032.80,713.93 1072.60,703.27 1112.40,679.54 1152.20,642.93 1192.00,594.21 1231.80,537.31 1271.60,469.32 1311.40,394.78 1351.20,316.44 1391.00,237.28 1430.80,160.44 1470.60,89.00 1510.40,25.88 1550.20,0.00 1590.00,0.00 1629.80,0.00 1669.60,0.00 1709.40,0.00 1749.20,0.00 1789.00,0.00 1828.80,17.35 1868.60,75.63 1908.40,144.54 1948.20,219.00 1988.00,295.98 2027.80,372.44 2067.60,445.46 2107.40,512.38 2147.20,570.91 2187.00,617.53 2226.80,654.86 2266.60,680.03 2306.40,692.88 2346.20,693.80 2386.00,683.70 2425.80,663.87 2465.60,635.97 2505.40,603.31 2545.20,565.06 2585.00,524.39 2624.80,483.12 2664.60,442.88 2704.40,404.96 2744.20,370.36 2784.00,339.69 2823.80,314.18 2863.60,291.62 2903.40,272.78 2943.20,257.07 2983.00,243.72 3022.80,231.94 3062.60,220.92 3102.40,209.99 3142.20,199.13 3182.00,187.20 3200.00,181.53"
    stroke="#1a1a1a" stroke-width="2.0"
    fill="none" stroke-linecap="round" stroke-linejoin="round"/>
  <polyline points="0.00,181.53 21.80,174.66 61.60,161.84 101.40,149.34 141.20,138.04 181.00,128.99 220.80,123.41 260.60,122.45 300.40,127.17 340.20,138.74 380.00,157.95 419.80,185.24 459.60,220.68 499.40,263.86 539.20,313.94 579.00,367.29 618.80,426.69 658.60,487.95 698.40,548.70 738.20,606.45 778.00,658.64 817.80,702.78 857.60,736.65 897.40,757.70 937.20,766.29 977.00,760.35 1016.80,739.56 1056.60,704.24 1096.40,655.36 1136.20,594.52 1176.00,523.87 1215.80,449.22 1255.60,367.24 1295.40,284.07 1335.20,202.96 1375.00,127.09 1414.80,59.40 1454.60,2.48 1494.40,0.00 1534.20,0.00 1574.00,0.00 1613.80,0.00 1653.60,0.00 1693.40,0.00 1733.20,3.37 1773.00,56.12 1812.80,116.82 1852.60,180.09 1892.40,248.50 1932.20,316.77 1972.00,382.32 2011.80,442.85 2051.60,496.45 2091.40,541.65 2131.20,577.48 2171.00,602.62 2210.80,619.19 2250.60,626.42 2290.40,625.15 2330.20,616.55 2370.00,601.99 2409.80,582.96 2449.60,560.92 2489.40,538.22 2529.20,514.15 2569.00,490.58 2608.80,468.20 2648.60,447.37 2688.40,428.13 2728.20,410.27 2768.00,393.31 2807.80,377.30 2847.60,360.20 2887.40,341.95 2927.20,321.92 2967.00,299.62 3006.80,274.80 3046.60,247.51 3086.40,218.12 3126.20,188.58 3166.00,157.40 3200.00,131.49"
    stroke="#1a1a1a" stroke-width="2.0"
    fill="none" stroke-linecap="round" stroke-linejoin="round"/>
  <polyline points="0.00,131.49 5.80,127.07 45.60,99.10 85.40,75.14 125.20,56.84 165.00,45.83 204.80,43.53 244.60,50.59 284.40,68.35 324.20,97.05 364.00,136.53 403.80,186.07 443.60,244.45 483.40,309.91 523.20,380.27 563.00,450.07 602.80,522.43 642.60,591.56 682.40,654.58 722.20,708.75 762.00,751.64 801.80,781.22 841.60,795.99 881.40,795.43 921.20,779.25 961.00,747.59 1000.80,701.56 1040.60,642.88 1080.40,573.84 1120.20,497.13 1160.00,415.79 1199.80,336.32 1239.60,255.21 1279.40,178.86 1319.20,110.12 1359.00,51.44 1398.80,4.76 1438.60,0.00 1478.40,0.00 1518.20,0.00 1558.00,0.00 1597.80,0.00 1637.60,9.65 1677.40,51.50 1717.20,100.49 1757.00,154.25 1796.80,210.39 1836.60,264.38 1876.40,318.68 1916.20,369.23 1956.00,414.57 1995.80,453.68 2035.60,485.96 2075.40,511.23 2115.20,529.71 2155.00,541.58 2194.80,548.60 2234.60,551.15 2274.40,550.28 2314.20,547.05 2354.00,542.40 2393.80,537.11 2433.60,531.71 2473.40,526.68 2513.20,521.59 2553.00,516.34 2592.80,510.41 2632.60,503.08 2672.40,493.48 2712.20,480.73 2752.00,463.99 2791.80,443.52 2831.60,417.15 2871.40,385.46 2911.20,348.62 2951.00,307.17 2990.80,262.06 3030.60,214.62 3070.40,166.50 3110.20,121.44 3150.00,77.69 3189.80,39.33 3200.00,31.42"
    stroke="#1a1a1a" stroke-width="2.0"
    fill="none" stroke-linecap="round" stroke-linejoin="round"/>
  <polyline points="0.00,31.42 29.60,8.46 69.40,0.00 109.20,0.00 149.00,0.00 188.80,0.00 228.60,20.50 268.40,61.24 308.20,113.97 348.00,177.13 387.80,248.66 427.60,326.03 467.40,406.35 507.20,486.55 547.00,560.49 586.80,631.34 626.60,693.06 666.40,743.12 706.20,779.47 746.00,800.00 785.80,800.00 825.60,794.78 865.40,769.50 905.20,728.99 945.00,675.77 984.80,612.12 1024.60,540.73 1064.40,464.54 1104.20,386.62 1144.00,309.99 1183.80,240.33 1223.60,174.32 1263.40,117.16 1303.20,70.55 1343.00,35.65 1382.80,13.03 1422.60,2.71 1462.40,4.15 1502.20,15.67 1542.00,36.89 1581.80,65.83 1621.60,100.63 1661.40,139.36 1701.20,180.10 1741.00,221.11 1780.80,260.87 1820.60,296.72 1860.40,330.80 1900.20,361.03 1940.00,387.25 1979.80,409.61 2019.60,428.54 2059.40,444.66 2099.20,458.74 2139.00,471.06 2178.80,483.34 2218.60,495.65 2258.40,508.38 2298.20,521.67 2338.00,535.38 2377.80,549.05 2417.60,561.98 2457.40,572.80 2497.20,581.33 2537.00,585.84 2576.80,585.12 2616.60,578.02 2656.40,563.59 2696.20,541.15 2736.00,510.40 2775.80,473.15 2815.60,426.83 2855.40,373.84 2895.20,315.65 2935.00,254.12 2974.80,191.47 3014.60,130.13 3054.40,72.68 3094.20,23.57 3134.00,0.00 3173.80,0.00 3200.00,0.00"
    stroke="#1a1a1a" stroke-width="2.0"
    fill="none" stroke-linecap="round" stroke-linejoin="round"/>
  <polyline points="0.00,0.00 13.60,0.00 53.40,0.00 93.20,0.00 133.00,0.00 172.80,1.91 212.60,52.70 252.40,116.95 292.20,190.52 332.00,270.64 371.80,354.28 411.60,438.18 451.40,519.08 491.20,593.84 531.00,657.16 570.80,711.91 610.60,753.26 650.40,779.83 690.20,790.87 730.00,786.32 769.80,766.76 809.60,733.41 849.40,690.05 889.20,635.18 929.00,572.92 968.80,505.96 1008.60,437.11 1048.40,369.06 1088.20,304.33 1128.00,245.11 1167.80,195.13 1207.60,151.51 1247.40,117.34 1287.20,92.98 1327.00,78.29 1366.80,72.70 1406.60,75.27 1446.40,84.79 1486.20,99.19 1526.00,118.24 1565.80,140.01 1605.60,163.18 1645.40,186.62 1685.20,209.48 1725.00,231.17 1764.80,251.46 1804.60,269.63 1844.40,287.51 1884.20,304.81 1924.00,322.19 1963.80,340.37 2003.60,360.03 2043.40,381.76 2083.20,405.93 2123.00,431.57 2162.80,460.64 2202.60,491.65 2242.40,523.76 2282.20,555.87 2322.00,586.57 2361.80,614.28 2401.60,637.34 2441.40,653.51 2481.20,662.64 2521.00,662.53 2560.80,652.13 2600.60,630.78 2640.40,598.32 2680.20,555.08 2720.00,501.96 2759.80,442.98 2799.60,375.07 2839.40,302.84 2879.20,228.93 2919.00,156.22 2958.80,87.63 2998.60,26.06 3038.40,0.00 3078.20,0.00 3118.00,0.00 3157.80,0.00 3197.60,0.00 3200.00,0.00"
    stroke="#1a1a1a" stroke-width="2.0"
    fill="none" stroke-linecap="round" stroke-linejoin="round"/>
  <polyline points="0.00,0.00 37.40,0.00 77.20,0.00 117.00,9.11 156.80,71.26 196.60,140.09 236.40,218.62 276.20,301.06 316.00,384.17 355.80,464.75 395.60,539.73 435.40,606.38 475.20,662.37 515.00,704.42 554.80,734.83 594.60,750.99 634.40,752.92 674.20,741.25 714.00,717.15 753.80,682.27 793.60,638.62 833.40,590.55 873.20,536.36 913.00,480.30 952.80,424.62 992.60,371.34 1032.40,322.16 1072.20,278.41 1112.00,240.98 1151.80,211.44 1191.60,187.40 1231.40,169.91 1271.20,158.37 1311.00,151.92 1350.80,149.58 1390.60,150.29 1430.40,153.06 1470.20,156.84 1510.00,161.28 1549.80,165.80 1589.60,170.23 1629.40,174.70 1669.20,179.59 1709.00,185.53 1748.80,193.28 1788.60,203.26 1828.40,217.14 1868.20,235.38 1908.00,258.61 1947.80,287.20 1987.60,321.23 2027.40,360.39 2067.20,403.98 2107.00,448.99 2146.80,497.76 2186.60,546.72 2226.40,593.88 2266.20,637.10 2306.00,674.20 2345.80,703.11 2385.60,721.94 2425.40,729.11 2465.20,724.10 2505.00,705.75 2544.80,674.01 2584.60,629.41 2624.40,573.10 2664.20,506.82 2704.00,432.80 2743.80,356.92 2783.60,275.72 2823.40,195.42 2863.20,119.20 2903.00,50.11 2942.80,0.00 2982.60,0.00 3022.40,0.00 3062.20,0.00 3102.00,0.00 3141.80,0.00 3181.60,0.00 3200.00,0.00"
    stroke="#1a1a1a" stroke-width="2.0"
    fill="none" stroke-linecap="round" stroke-linejoin="round"/>
  <polyline points="0.00,0.00 21.40,0.00 61.20,38.40 101.00,104.39 140.80,177.34 180.60,251.14 220.40,328.99 260.20,404.84 300.00,475.91 339.80,539.71 379.60,594.18 419.40,637.79 459.20,669.53 499.00,688.46 538.80,696.29 578.60,692.63 618.40,678.59 658.20,655.64 698.00,625.51 737.80,590.10 777.60,551.31 817.40,512.62 857.20,472.42 897.00,433.74 936.80,397.68 976.60,365.01 1016.40,336.13 1056.20,311.12 1096.00,289.71 1135.80,272.09 1175.60,256.15 1215.40,241.92 1255.20,228.65 1295.00,215.65 1334.80,202.40 1374.60,188.60 1414.40,174.24 1454.20,160.15 1494.00,145.70 1533.80,132.28 1573.60,120.93 1613.40,112.82 1653.20,109.22 1693.00,111.34 1732.80,120.29 1772.60,136.13 1812.40,160.74 1852.20,193.82 1892.00,235.13 1931.80,284.00 1971.60,339.23 2011.40,399.24 2051.20,462.01 2091.00,522.74 2130.80,584.05 2170.60,640.80 2210.40,690.43 2250.20,730.52 2290.00,758.99 2329.80,774.13 2369.60,774.79 2409.40,761.24 2449.20,732.42 2489.00,689.28 2528.80,633.15 2568.60,565.97 2608.40,490.19 2648.20,408.66 2688.00,324.51 2727.80,244.29 2767.60,164.46 2807.40,91.48 2847.20,28.15 2887.00,0.00 2926.80,0.00 2966.60,0.00 3006.40,0.00 3046.20,0.00 3086.00,0.00 3125.80,0.00 3165.60,24.11 3200.00,73.15"
    stroke="#1a1a1a" stroke-width="2.0"
    fill="none" stroke-linecap="round" stroke-linejoin="round"/>
  <polyline points="0.00,73.15 5.40,80.85 45.20,144.21 85.00,211.46 124.80,279.83 164.60,344.08 204.40,407.21 244.20,464.41 284.00,514.01 323.80,554.83 363.60,586.15 403.40,607.79 443.20,620.02 483.00,623.53 522.80,619.60 562.60,609.17 602.40,593.64 642.20,574.45 682.00,553.00 721.80,530.52 761.60,508.05 801.40,487.18 841.20,466.61 881.00,447.40 920.80,429.39 960.60,412.21 1000.40,395.28 1040.20,377.91 3200.00,377.91"
    stroke="#1a1a1a" stroke-width="2.0"
    fill="none" stroke-linecap="round" stroke-linejoin="round"/>
</svg>
