<?xml version="1.0" encoding="UTF-8"?>
<svg xmlns="http://www.w3.org/2000/svg"
     width="3200" height="800"
     viewBox="0 0 3200 800">
  <path d="M 0.00,350.00 L 15.24,352.01 L 30.48,354.63 L 45.72,357.68 L 60.96,362.20 L 76.20,367.58 L 91.44,375.29 L 106.68,383.99 L 121.92,395.79 L 137.16,408.42 L 152.40,424.70 L 167.64,441.34 L 182.88,461.91 L 198.12,482.13 L 213.36,506.20 L 228.60,529.03 L 243.84,555.29 L 259.08,579.34 L 274.32,606.02 L 289.56,629.56 L 304.80,654.64 L 320.04,678.02 L 335.28,697.13 L 350.52,715.70 L 365.76,729.60 L 381.00,741.48 L 396.24,748.63 L 411.48,752.35 L 426.72,751.67 L 441.96,746.30 L 457.20,737.24 L 472.44,722.50 L 487.68,705.11 L 502.92,681.43 L 518.16,656.41 L 533.40,624.88 L 548.64,593.49 L 563.88,555.79 L 579.12,519.79 L 594.36,478.08 L 609.60,439.53 L 624.84,396.23 L 640.08,353.10 L 655.32,314.99 L 670.56,274.06 L 685.80,238.97 L 701.04,202.45 L 716.28,172.20 L 731.52,141.91 L 746.76,117.90 L 762.00,95.08 L 777.24,78.14 L 792.48,63.40 L 807.72,53.77 L 822.96,47.04 L 838.20,44.38 L 853.44,44.95 L 868.68,48.36 L 883.92,55.00 L 899.16,63.18 L 914.40,74.26 L 929.64,86.93 L 944.88,99.27 L 960.12,113.54 L 975.36,126.48 L 990.60,140.54 L 1005.84,152.56 L 1021.08,164.87 L 1036.32,174.76 L 1051.56,184.20 L 1066.80,191.18 L 1082.04,197.16 L 1097.28,200.94 L 1112.52,203.44 L 1127.76,204.26 L 1143.00,203.82 L 1158.24,202.41 L 1173.48,200.06 L 1188.72,197.54 L 1203.96,194.69 L 1219.20,192.44 L 1234.44,190.71 L 1249.68,190.24 L 1264.92,191.25 L 1280.16,194.36 L 1295.40,199.22 L 1310.64,207.21 L 1325.88,216.94 L 1341.12,230.72 L 1356.36,245.87 L 1371.60,265.78 L 1386.84,286.40 L 1402.08,312.17 L 1417.32,337.74 L 1432.56,368.49 L 1447.80,397.95 L 1463.04,432.22 L 1478.28,464.03 L 1493.52,499.90 L 1508.76,532.19 L 1524.00,567.46 L 1539.24,601.48 L 1554.48,630.50 L 1569.72,660.40 L 1584.96,684.73 L 1600.20,708.41 L 1615.44,726.33 L 1630.68,742.09 L 1645.92,752.28 L 1661.16,758.95 L 1676.40,760.67 L 1691.64,757.75 L 1706.88,750.84 L 1722.12,738.53 L 1737.36,723.48 L 1752.60,702.66 L 1767.84,680.55 L 1783.08,652.69 L 1798.32,625.09 L 1813.56,592.16 L 1828.80,560.99 L 1844.04,525.26 L 1859.28,488.99 L 1874.52,456.44 L 1889.76,420.95 L 1905.00,390.08 L 1920.24,357.49 L 1935.48,330.06 L 1950.72,302.10 L 1965.96,279.46 L 1981.20,257.34 L 1996.44,240.30 L 2011.68,224.62 L 2026.92,213.43 L 2042.16,204.15 L 2057.40,198.50 L 2072.64,194.98 L 2087.88,194.04 L 2103.12,195.13 L 2118.36,197.68 L 2133.60,201.84 L 2148.84,206.95 L 2164.08,211.96 L 2179.32,217.53 L 2194.56,222.19 L 2209.80,226.59 L 2225.04,229.55 L 2240.28,231.44 L 2255.52,231.68 L 2270.76,230.13 L 2286.00,227.04 L 2301.24,221.68 L 2316.48,215.18 L 2331.72,206.21 L 2346.96,196.73 L 2362.20,184.91 L 2377.44,173.37 L 2392.68,159.95 L 2407.92,147.67 L 2423.16,134.26 L 2438.40,121.59 L 2453.64,111.24 L 2468.88,101.37 L 2484.12,94.36 L 2499.36,89.05 L 2514.60,86.85 L 2529.84,87.57 L 2545.08,91.32 L 2560.32,99.10 L 2575.56,109.47 L 2590.80,124.76 L 2606.04,141.87 L 2621.28,164.48 L 2636.52,187.88 L 2651.76,216.98 L 2667.00,245.63 L 2682.24,279.77 L 2697.48,312.15 L 2712.72,349.42 L 2727.96,383.63 L 2743.20,421.77 L 2758.44,459.42 L 2773.68,492.33 L 2788.92,527.23 L 2804.16,556.64 L 2819.40,586.58 L 2834.64,610.66 L 2849.88,633.81 L 2865.12,651.12 L 2880.36,666.18 L 2895.60,675.83 L 2910.84,682.12 L 2926.08,683.80 L 2941.32,681.33 L 2956.56,675.37 L 2971.80,664.83 L 2987.04,652.11 L 3002.28,634.79 L 3017.52,616.72 L 3032.76,594.37 L 3048.00,570.19 L 3063.24,547.37 L 3078.48,521.37 L 3093.72,497.88 L 3108.96,472.20 L 3124.20,449.90 L 3139.44,426.49 L 3154.68,406.99 L 3169.92,387.40 L 3185.16,371.89 L 3200.00,357.59"
    stroke="#1a1a1a" stroke-width="2.0"
    fill="none" stroke-linecap="round" stroke-linejoin="round"/>
  <path d="M 0.00,357.59 L 0.40,357.21 L 15.64,346.38 L 30.88,337.05 L 46.12,331.05 L 61.36,326.93 L 76.60,325.35 L 91.84,325.71 L 107.08,327.66 L 122.32,331.28 L 137.56,335.50 L 152.80,340.83 L 168.04,346.38 L 183.28,351.15 L 198.52,355.78 L 213.76,358.99 L 229.00,361.10 L 244.24,361.42 L 259.48,359.74 L 274.72,356.20 L 289.96,349.88 L 305.20,341.97 L 320.44,330.73 L 335.68,318.47 L 350.92,302.63 L 366.16,286.57 L 381.40,267.03 L 396.64,248.23 L 411.88,226.40 L 427.12,206.30 L 442.36,183.96 L 457.60,162.15 L 472.84,143.43 L 488.08,124.17 L 503.32,108.64 L 518.56,93.85 L 533.80,83.14 L 549.04,74.48 L 564.28,69.88 L 579.52,68.54 L 594.76,70.89 L 610.00,77.50 L 625.24,87.05 L 640.48,101.58 L 655.72,118.01 L 670.96,139.76 L 686.20,162.17 L 701.44,189.82 L 716.68,216.79 L 731.92,248.54 L 747.16,278.25 L 762.40,311.95 L 777.64,345.73 L 792.88,375.69 L 808.12,407.88 L 823.36,435.39 L 838.60,463.83 L 853.84,487.09 L 869.08,509.94 L 884.32,527.53 L 899.56,543.48 L 914.80,554.46 L 930.04,562.82 L 945.28,566.86 L 960.52,567.57 L 975.76,564.94 L 991.00,558.61 L 1006.24,550.13 L 1021.48,537.97 L 1036.72,524.93 L 1051.96,508.58 L 1067.20,490.80 L 1082.44,474.04 L 1097.68,455.09 L 1112.92,438.18 L 1128.16,420.06 L 1143.40,404.75 L 1158.64,389.26 L 1173.88,377.00 L 1189.12,365.56 L 1204.36,357.43 L 1219.60,350.95 L 1234.84,347.49 L 1250.08,346.28 L 1265.32,347.51 L 1280.56,351.28 L 1295.80,356.66 L 1311.04,364.54 L 1326.28,373.05 L 1341.52,383.70 L 1356.76,393.97 L 1372.00,405.71 L 1387.24,417.29 L 1402.48,427.16 L 1417.72,437.05 L 1432.96,444.61 L 1448.20,451.13 L 1463.44,455.00 L 1478.68,456.79 L 1493.92,455.95 L 1509.16,452.13 L 1524.40,446.03 L 1539.64,436.29 L 1554.88,424.93 L 1570.12,409.58 L 1585.36,393.51 L 1600.60,373.46 L 1615.84,353.75 L 1631.08,330.42 L 1646.32,308.56 L 1661.56,283.79 L 1676.80,259.07 L 1692.04,237.36 L 1707.28,214.35 L 1722.52,195.09 L 1737.76,175.80 L 1753.00,160.71 L 1768.24,146.88 L 1783.48,137.35 L 1798.72,130.27 L 1813.96,127.22 L 1829.20,127.62 L 1844.44,131.42 L 1859.68,139.40 L 1874.92,149.83 L 1890.16,164.81 L 1905.40,181.07 L 1920.64,201.85 L 1935.88,222.63 L 1951.12,247.53 L 1966.36,271.13 L 1981.60,298.11 L 1996.84,325.31 L 2012.08,349.45 L 2027.32,375.37 L 2042.56,397.40 L 2057.80,419.97 L 2073.04,438.16 L 2088.28,455.66 L 2103.52,468.67 L 2118.76,479.85 L 2134.00,486.83 L 2149.24,491.07 L 2164.48,491.73 L 2179.72,489.04 L 2194.96,483.69 L 2210.20,474.74 L 2225.44,464.24 L 2240.68,450.24 L 2255.92,435.92 L 2271.16,418.55 L 2286.40,400.17 L 2301.64,383.24 L 2316.88,364.51 L 2332.12,348.16 L 2347.36,331.05 L 2362.60,316.99 L 2377.84,303.27 L 2393.08,292.94 L 2408.32,284.00 L 2423.56,278.41 L 2438.80,275.09 L 2454.04,274.76 L 2469.28,277.31 L 2484.52,282.17 L 2499.76,290.24 L 2515.00,299.69 L 2530.24,312.32 L 2545.48,325.28 L 2560.72,341.03 L 2575.96,356.05 L 2591.20,373.17 L 2606.44,390.25 L 2621.68,405.13 L 2636.92,420.65 L 2652.16,433.32 L 2667.40,445.51 L 2682.64,454.48 L 2697.88,461.90 L 2713.12,466.08 L 2728.36,467.75 L 2743.60,466.50 L 2758.84,462.03 L 2774.08,455.28 L 2789.32,444.90 L 2804.56,433.13 L 2819.80,417.67 L 2835.04,401.90 L 2850.28,382.72 L 2865.52,364.36 L 2880.76,343.23 L 2896.00,321.88 L 2911.24,302.93 L 2926.48,282.71 L 2941.72,265.69 L 2956.96,248.57 L 2972.20,235.16 L 2987.44,222.87 L 3002.68,214.43 L 3017.92,208.25 L 3033.16,205.70 L 3048.40,206.35 L 3063.64,210.07 L 3078.88,217.63 L 3094.12,227.40 L 3109.36,241.32 L 3124.60,256.36 L 3139.84,275.48 L 3155.08,294.49 L 3170.32,317.15 L 3185.56,338.48 L 3200.00,361.41"
    stroke="#1a1a1a" stroke-width="2.0"
    fill="none" stroke-linecap="round" stroke-linejoin="round"/>
  <path d="M 0.00,361.41 L 0.80,362.68 L 16.04,386.82 L 31.28,408.00 L 46.52,430.39 L 61.76,449.06 L 77.00,467.69 L 92.24,482.19 L 107.48,495.40 L 122.72,504.43 L 137.96,511.05 L 153.20,513.82 L 168.44,513.29 L 183.68,509.58 L 198.92,501.99 L 214.16,492.18 L 229.40,478.25 L 244.64,463.27 L 259.88,444.30 L 275.12,425.53 L 290.36,403.28 L 305.60,380.09 L 320.84,358.90 L 336.08,335.54 L 351.32,315.14 L 366.56,293.66 L 381.80,275.81 L 397.04,258.05 L 412.28,244.25 L 427.52,231.64 L 442.76,222.95 L 458.00,216.40 L 473.24,213.37 L 488.48,213.18 L 503.72,215.80 L 518.96,221.64 L 534.20,229.33 L 549.44,240.29 L 564.68,252.01 L 579.92,266.68 L 595.16,280.99 L 610.40,297.63 L 625.64,314.54 L 640.88,329.55 L 656.12,345.52 L 671.36,358.86 L 686.60,372.11 L 701.84,382.30 L 717.08,391.37 L 732.32,397.28 L 747.56,401.18 L 762.80,402.18 L 778.04,400.48 L 793.28,396.45 L 808.52,389.34 L 823.76,380.74 L 839.00,369.01 L 854.24,356.79 L 869.48,341.76 L 884.72,327.30 L 899.96,310.67 L 915.20,293.97 L 930.44,279.33 L 945.68,264.01 L 960.92,251.49 L 976.16,239.46 L 991.40,230.68 L 1006.64,223.57 L 1021.88,219.82 L 1037.12,218.84 L 1052.36,220.96 L 1067.60,226.75 L 1082.84,235.05 L 1098.08,247.63 L 1113.32,261.82 L 1128.56,280.54 L 1143.80,299.76 L 1159.04,323.38 L 1174.28,346.28 L 1189.52,373.07 L 1204.76,397.92 L 1220.00,425.80 L 1235.24,453.37 L 1250.48,477.41 L 1265.72,502.69 L 1280.96,523.71 L 1296.20,544.64 L 1311.44,560.93 L 1326.68,575.81 L 1341.92,586.03 L 1357.16,593.65 L 1372.40,597.00 L 1387.64,596.76 L 1402.88,593.00 L 1418.12,584.97 L 1433.36,574.46 L 1448.60,559.39 L 1463.84,543.05 L 1479.08,522.23 L 1494.32,501.47 L 1509.56,476.66 L 1524.80,453.22 L 1540.04,426.47 L 1555.28,399.55 L 1570.52,375.68 L 1585.76,350.05 L 1601.00,328.22 L 1616.24,305.77 L 1631.48,287.53 L 1646.72,269.76 L 1661.96,256.25 L 1677.20,244.15 L 1692.44,235.98 L 1707.68,229.93 L 1722.92,227.18 L 1738.16,226.96 L 1753.40,229.13 L 1768.64,233.92 L 1783.88,240.06 L 1799.12,248.54 L 1814.36,257.31 L 1829.60,267.86 L 1844.84,278.77 L 1860.08,288.49 L 1875.32,298.71 L 1890.56,307.03 L 1905.80,314.90 L 1921.04,320.44 L 1936.28,324.58 L 1951.52,326.31 L 1966.76,325.83 L 1982.00,323.17 L 1997.24,317.73 L 2012.48,310.66 L 2027.72,300.53 L 2042.96,289.55 L 2058.20,275.58 L 2073.44,261.71 L 2088.68,245.26 L 2103.92,229.92 L 2119.16,212.75 L 2134.40,197.62 L 2149.64,181.68 L 2164.88,167.19 L 2180.12,155.83 L 2195.36,145.53 L 2210.60,138.72 L 2225.84,134.23 L 2241.08,133.23 L 2256.32,135.73 L 2271.56,141.36 L 2286.80,151.44 L 2302.04,163.95 L 2317.28,181.56 L 2332.52,200.60 L 2347.76,225.03 L 2363.00,249.66 L 2378.24,279.57 L 2393.48,308.36 L 2408.72,341.91 L 2423.96,373.03 L 2439.20,408.04 L 2454.44,442.88 L 2469.68,473.55 L 2484.92,506.28 L 2500.16,534.03 L 2515.40,562.45 L 2530.64,585.45 L 2545.88,607.72 L 2561.12,624.52 L 2576.36,639.30 L 2591.60,648.95 L 2606.84,655.52 L 2622.08,657.67 L 2637.32,655.96 L 2652.56,650.87 L 2667.80,641.50 L 2683.04,629.98 L 2698.28,614.13 L 2713.52,597.48 L 2728.76,576.82 L 2744.00,556.70 L 2759.24,533.17 L 2774.48,508.97 L 2789.72,487.08 L 2804.96,463.14 L 2820.20,442.36 L 2835.44,420.53 L 2850.68,402.35 L 2865.92,384.11 L 2881.16,369.66 L 2896.40,355.98 L 2911.64,345.89 L 2926.88,337.18 L 2942.12,331.54 L 2957.36,327.59 L 2972.60,325.95 L 2987.84,326.00 L 3003.08,327.45 L 3018.32,330.27 L 3033.56,333.55 L 3048.80,337.59 L 3064.04,341.61 L 3079.28,344.80 L 3094.52,347.46 L 3109.76,348.71 L 3125.00,348.47 L 3140.24,346.52 L 3155.48,342.18 L 3170.72,336.13 L 3185.96,326.92 L 3200.00,317.18"
    stroke="#1a1a1a" stroke-width="2.0"
    fill="none" stroke-linecap="round" stroke-linejoin="round"/>
  <path d="M 0.00,317.18 L 1.20,316.35 L 16.44,302.10 L 31.68,287.12 L 46.92,268.26 L 62.16,249.52 L 77.40,227.07 L 92.64,205.74 L 107.88,181.23 L 123.12,158.86 L 138.36,134.19 L 153.60,112.62 L 168.84,89.90 L 184.08,69.06 L 199.32,52.38 L 214.56,36.64 L 229.80,25.38 L 245.04,16.49 L 260.28,12.02 L 275.52,11.24 L 290.76,14.45 L 306.00,22.46 L 321.24,33.65 L 336.48,50.44 L 351.72,69.31 L 366.96,94.20 L 382.20,119.83 L 397.44,151.49 L 412.68,182.43 L 427.92,219.01 L 443.16,253.41 L 458.40,292.67 L 473.64,332.39 L 488.88,367.96 L 504.12,406.68 L 519.36,440.30 L 534.60,475.74 L 549.84,505.47 L 565.08,535.66 L 580.32,559.93 L 595.56,583.38 L 610.80,601.12 L 626.04,616.95 L 641.28,627.66 L 656.52,635.65 L 671.76,639.42 L 687.00,639.99 L 702.24,637.48 L 717.48,631.65 L 732.72,623.98 L 747.96,613.21 L 763.20,601.87 L 778.44,587.92 L 793.68,573.06 L 808.92,559.33 L 824.16,544.13 L 839.40,530.89 L 854.64,517.03 L 869.88,505.64 L 885.12,494.45 L 900.36,485.89 L 915.60,478.19 L 930.84,472.97 L 946.08,469.05 L 961.32,467.15 L 976.56,466.70 L 991.80,467.60 L 1007.04,469.77 L 1022.28,472.50 L 1037.52,476.02 L 1052.76,479.28 L 1068.00,482.58 L 1083.24,485.07 L 1098.48,486.25 L 1113.72,485.96 L 1128.96,483.92 L 1144.20,479.34 L 1159.44,472.88 L 1174.68,462.86 L 1189.92,451.15 L 1205.16,435.05 L 1220.40,417.77 L 1235.64,395.52 L 1250.88,372.90 L 1266.12,345.09 L 1281.36,317.92 L 1296.60,285.72 L 1311.84,255.32 L 1327.08,220.45 L 1342.32,188.55 L 1357.56,153.10 L 1372.80,121.70 L 1388.04,87.98 L 1403.28,56.12 L 1418.52,29.53 L 1433.76,2.88 L 1449.00,-18.10 L 1464.24,-37.60 L 1479.48,-51.40 L 1494.72,-62.27 L 1509.96,-67.84 L 1525.20,-69.21 L 1540.44,-66.06 L 1555.68,-57.74 L 1570.92,-46.03 L 1586.16,-28.54 L 1601.40,-9.04 L 1616.64,16.44 L 1631.88,42.41 L 1647.12,74.16 L 1662.36,104.85 L 1677.60,140.73 L 1692.84,177.85 L 1708.08,211.78 L 1723.32,249.46 L 1738.56,282.85 L 1753.80,318.83 L 1769.04,349.75 L 1784.28,382.05 L 1799.52,408.93 L 1814.76,436.04 L 1830.00,457.75 L 1845.24,478.73 L 1860.48,494.71 L 1875.72,509.24 L 1890.96,519.49 L 1906.20,527.88 L 1921.44,532.93 L 1936.68,536.05 L 1951.92,536.90 L 1967.16,536.04 L 1982.40,534.00 L 1997.64,530.75 L 2012.88,526.91 L 2028.12,523.34 L 2043.36,519.64 L 2058.60,516.88 L 2073.84,514.77 L 2089.08,513.98 L 2104.32,514.56 L 2119.56,516.52 L 2134.80,520.39 L 2150.04,525.40 L 2165.28,532.62 L 2180.52,540.47 L 2195.76,550.51 L 2211.00,560.49 L 2226.24,572.31 L 2241.48,583.27 L 2256.72,595.40 L 2271.96,605.87 L 2287.20,616.56 L 2302.44,625.75 L 2317.68,632.33 L 2332.92,637.31 L 2348.16,639.33 L 2363.40,638.49 L 2378.64,634.68 L 2393.88,626.80 L 2409.12,616.26 L 2424.36,600.64 L 2439.60,583.03 L 2454.84,559.59 L 2470.08,535.14 L 2485.32,504.48 L 2500.56,474.01 L 2515.80,437.36 L 2531.04,402.25 L 2546.28,361.40 L 2561.52,323.47 L 2576.76,280.62 L 2592.00,241.98 L 2607.24,199.59 L 2622.48,158.45 L 2637.72,123.04 L 2652.96,86.09 L 2668.20,55.47 L 2683.44,24.85 L 2698.68,0.75 L 2713.92,-21.84 L 2729.16,-38.16 L 2744.40,-51.63 L 2759.64,-59.47 L 2774.88,-63.41 L 2790.12,-62.72 L 2805.36,-57.40 L 2820.60,-48.73 L 2835.84,-35.10 L 2851.08,-19.57 L 2866.32,0.88 L 2881.56,21.72 L 2896.80,47.07 L 2912.04,74.16 L 2927.28,99.52 L 2942.52,128.23 L 2957.76,154.10 L 2973.00,182.36 L 2988.24,206.96 L 3003.48,232.94 L 3018.72,254.81 L 3033.96,277.14 L 3049.20,295.26 L 3064.44,313.07 L 3079.68,326.96 L 3094.92,340.01 L 3110.16,349.69 L 3125.40,358.31 L 3140.64,364.35 L 3155.88,369.41 L 3171.12,372.77 L 3186.36,375.53 L 3200.00,377.28"
    stroke="#1a1a1a" stroke-width="2.0"
    fill="none" stroke-linecap="round" stroke-linejoin="round"/>
  <path d="M 0.00,377.28 L 1.60,377.48 L 16.84,379.46 L 32.08,381.67 L 47.32,384.19 L 62.56,387.98 L 77.80,392.56 L 93.04,399.23 L 108.28,406.88 L 123.52,417.37 L 138.76,428.71 L 154.00,443.43 L 169.24,458.57 L 184.48,477.38 L 199.72,495.92 L 214.96,518.06 L 230.20,539.08 L 245.44,563.27 L 260.68,585.41 L 275.92,609.95 L 291.16,631.53 L 306.40,654.42 L 321.64,675.62 L 336.88,692.77 L 352.12,709.20 L 367.36,721.20 L 382.60,731.02 L 397.84,736.38 L 413.08,738.18 L 428.32,735.84 L 443.56,728.72 L 458.80,718.18 L 474.04,701.91 L 489.28,683.26 L 504.52,658.29 L 519.76,632.25 L 535.00,599.71 L 550.24,567.56 L 565.48,529.16 L 580.72,492.66 L 595.96,450.56 L 611.20,411.81 L 626.44,368.45 L 641.68,325.43 L 656.92,287.58 L 672.16,247.08 L 687.40,212.52 L 702.64,176.75 L 717.88,147.32 L 733.12,118.08 L 748.36,95.14 L 763.60,73.64 L 778.84,58.00 L 794.08,44.82 L 809.32,36.71 L 824.56,31.75 L 839.80,30.77 L 855.04,33.29 L 870.28,38.52 L 885.52,47.24 L 900.76,57.32 L 916.00,70.55 L 931.24,85.40 L 946.48,99.71 L 961.72,116.16 L 976.96,131.05 L 992.20,147.25 L 1007.44,161.16 L 1022.68,175.53 L 1037.92,187.20 L 1053.16,198.56 L 1068.40,207.19 L 1083.64,214.90 L 1098.88,220.15 L 1114.12,224.17 L 1129.36,226.25 L 1144.60,227.07 L 1159.84,226.69 L 1175.08,225.32 L 1190.32,223.56 L 1205.56,221.39 L 1220.80,219.62 L 1236.04,218.26 L 1251.28,217.98 L 1266.52,219.03 L 1281.76,222.00 L 1297.00,226.60 L 1312.24,234.14 L 1327.48,243.32 L 1342.72,256.33 L 1357.96,270.65 L 1373.20,289.50 L 1388.44,309.04 L 1403.68,333.48 L 1418.92,357.73 L 1434.16,386.90 L 1449.40,414.84 L 1464.64,447.32 L 1479.88,477.44 L 1495.12,511.36 L 1510.36,541.82 L 1525.60,575.02 L 1540.84,606.92 L 1556.08,633.99 L 1571.32,661.71 L 1586.56,684.08 L 1601.80,705.58 L 1617.04,721.54 L 1632.28,735.16 L 1647.52,743.47 L 1662.76,748.10 L 1678.00,748.03 L 1693.24,743.21 L 1708.48,734.65 L 1723.72,720.62 L 1738.96,704.11 L 1754.20,681.78 L 1769.44,658.43 L 1784.68,629.32 L 1799.92,600.71 L 1815.16,566.81 L 1830.40,534.90 L 1845.64,498.50 L 1860.88,461.73 L 1876.12,428.87 L 1891.36,393.20 L 1906.60,362.32 L 1921.84,329.87 L 1937.08,302.72 L 1952.32,275.22 L 1967.56,253.15 L 1982.80,231.81 L 1998.04,215.61 L 2013.28,201.01 L 2028.52,190.92 L 2043.76,182.99 L 2059.00,178.67 L 2074.24,176.74 L 2089.48,177.33 L 2104.72,180.21 L 2119.96,184.46 L 2135.20,190.59 L 2150.44,197.73 L 2165.68,204.61 L 2180.92,212.31 L 2196.16,218.91 L 2211.40,225.50 L 2226.64,230.43 L 2241.88,234.50 L 2257.12,236.68 L 2272.36,237.27 L 2287.60,236.06 L 2302.84,232.74 L 2318.08,228.01 L 2333.32,220.94 L 2348.56,213.09 L 2363.80,202.98 L 2379.04,192.90 L 2394.28,180.97 L 2409.52,169.92 L 2424.76,157.76 L 2440.00,147.29 L 2455.24,136.68 L 2470.48,127.61 L 2485.72,121.17 L 2500.96,116.36 L 2516.20,114.44 L 2531.44,115.34 L 2546.68,119.08 L 2561.92,126.70 L 2577.16,136.77 L 2592.40,151.58 L 2607.64,168.11 L 2622.88,189.92 L 2638.12,212.47 L 2653.36,240.47 L 2668.60,268.01 L 2683.84,300.79 L 2699.08,331.83 L 2714.32,367.50 L 2729.56,400.17 L 2744.80,436.51 L 2760.04,472.26 L 2775.28,503.39 L 2790.52,536.25 L 2805.76,563.78 L 2821.00,591.58 L 2836.24,613.71 L 2851.48,634.69 L 2866.72,650.03 L 2881.96,662.91 L 2897.20,670.61 L 2912.44,674.77 L 2927.68,674.57 L 2942.92,670.07 L 2958.16,662.34 L 2973.40,649.91 L 2988.64,635.57 L 3003.88,616.55 L 3019.12,597.04 L 3034.36,573.21 L 3049.60,550.29 L 3064.84,523.76 L 3080.08,496.68 L 3095.32,472.35 L 3110.56,445.89 L 3125.80,423.03 L 3141.04,399.14 L 3156.28,379.37 L 3171.52,359.64 L 3186.76,344.14 L 3200.00,331.54"
    stroke="#1a1a1a" stroke-width="2.0"
    fill="none" stroke-linecap="round" stroke-linejoin="round"/>
  <path d="M 0.00,331.54 L 2.00,329.63 L 17.24,319.12 L 32.48,310.29 L 47.72,304.89 L 62.96,301.58 L 78.20,300.87 L 93.44,302.33 L 108.68,305.41 L 123.92,310.41 L 139.16,315.98 L 154.40,322.92 L 169.64,330.19 L 184.88,336.60 L 200.12,343.14 L 215.36,348.13 L 230.60,352.29 L 245.84,354.50 L 261.08,354.95 L 276.32,353.36 L 291.56,349.22 L 306.80,343.28 L 322.04,334.22 L 337.28,323.90 L 352.52,310.18 L 367.76,296.00 L 383.00,278.49 L 398.24,261.45 L 413.48,241.50 L 428.72,223.01 L 443.96,202.37 L 459.20,184.12 L 474.44,164.74 L 489.68,146.81 L 504.92,132.36 L 520.16,118.64 L 535.40,108.75 L 550.64,100.86 L 565.88,96.81 L 581.12,95.93 L 596.36,98.53 L 611.60,105.27 L 626.84,114.79 L 642.08,129.12 L 657.32,145.23 L 672.56,166.46 L 687.80,188.26 L 703.04,215.08 L 718.28,241.17 L 733.52,271.80 L 748.76,300.38 L 764.00,332.68 L 779.24,364.95 L 794.48,393.43 L 809.72,423.88 L 824.96,449.75 L 840.20,476.27 L 855.44,497.74 L 870.68,518.55 L 885.92,534.24 L 901.16,548.05 L 916.40,557.09 L 931.64,563.26 L 946.88,565.33 L 962.12,563.86 L 977.36,559.29 L 992.60,550.84 L 1007.84,540.49 L 1023.08,526.31 L 1038.32,511.52 L 1053.56,493.30 L 1068.80,475.74 L 1084.04,455.47 L 1099.28,434.95 L 1114.52,416.74 L 1129.76,397.30 L 1145.00,380.91 L 1160.24,364.37 L 1175.48,351.31 L 1190.72,339.12 L 1205.96,330.45 L 1221.20,323.53 L 1236.44,319.82 L 1251.68,318.51 L 1266.92,319.78 L 1282.16,323.77 L 1297.40,329.48 L 1312.64,337.90 L 1327.88,347.04 L 1343.12,358.53 L 1358.36,369.70 L 1373.60,382.58 L 1388.84,395.44 L 1404.08,406.57 L 1419.32,417.99 L 1434.56,427.03 L 1449.80,435.30 L 1465.04,440.83 L 1480.28,444.54 L 1495.52,445.50 L 1510.76,443.73 L 1526.00,439.53 L 1541.24,431.94 L 1556.48,422.53 L 1571.72,409.36 L 1586.96,395.26 L 1602.20,377.38 L 1617.44,359.61 L 1632.68,338.40 L 1647.92,318.40 L 1663.16,295.64 L 1678.40,275.13 L 1693.64,252.82 L 1708.88,231.58 L 1724.12,213.82 L 1739.36,196.09 L 1754.60,182.29 L 1769.84,169.77 L 1785.08,161.29 L 1800.32,155.25 L 1815.56,152.99 L 1830.80,154.13 L 1846.04,158.46 L 1861.28,166.85 L 1876.52,177.51 L 1891.76,192.58 L 1907.00,208.78 L 1922.24,229.33 L 1937.48,249.76 L 1952.72,274.11 L 1967.96,297.07 L 1983.20,323.19 L 1998.44,349.36 L 2013.68,372.47 L 2028.92,397.08 L 2044.16,417.84 L 2059.40,438.86 L 2074.64,455.57 L 2089.88,471.30 L 2105.12,482.65 L 2120.36,491.90 L 2135.60,497.08 L 2150.84,499.26 L 2166.08,498.01 L 2181.32,493.18 L 2196.56,485.88 L 2211.80,474.74 L 2227.04,462.27 L 2242.28,446.10 L 2257.52,429.84 L 2272.76,410.36 L 2288.00,391.99 L 2303.24,371.19 L 2318.48,350.52 L 2333.72,332.51 L 2348.96,313.64 L 2364.20,298.10 L 2379.44,282.84 L 2394.68,271.23 L 2409.92,260.99 L 2425.16,254.36 L 2440.40,250.02 L 2455.64,248.90 L 2470.88,250.74 L 2486.12,255.09 L 2501.36,262.76 L 2516.60,271.99 L 2531.84,284.54 L 2547.08,297.58 L 2562.32,313.58 L 2577.56,328.96 L 2592.80,346.66 L 2608.04,364.47 L 2623.28,380.15 L 2638.52,396.71 L 2653.76,410.43 L 2669.00,423.93 L 2684.24,434.19 L 2699.48,443.17 L 2714.72,448.84 L 2729.96,452.28 L 2745.20,452.70 L 2760.44,450.17 L 2775.68,445.24 L 2790.92,436.92 L 2806.16,427.06 L 2821.40,413.75 L 2836.64,399.93 L 2851.88,382.94 L 2867.12,366.54 L 2882.36,347.59 L 2897.60,330.29 L 2912.84,311.33 L 2928.08,293.16 L 2943.32,277.94 L 2958.56,262.74 L 2973.80,250.99 L 2989.04,240.44 L 3004.28,233.49 L 3019.52,228.83 L 3034.76,227.56 L 3050.00,229.48 L 3065.24,234.23 L 3080.48,242.80 L 3095.72,253.34 L 3110.96,267.96 L 3126.20,283.49 L 3141.44,302.99 L 3156.68,322.21 L 3171.92,344.93 L 3187.16,366.16 L 3200.00,386.32"
    stroke="#1a1a1a" stroke-width="2.0"
    fill="none" stroke-linecap="round" stroke-linejoin="round"/>
  <path d="M 0.00,386.32 L 2.40,390.09 L 17.64,413.80 L 32.88,434.44 L 48.12,456.08 L 63.36,473.94 L 78.60,491.53 L 93.84,504.96 L 109.08,516.85 L 124.32,524.57 L 139.56,529.63 L 154.80,530.88 L 170.04,528.58 L 185.28,523.19 L 200.52,513.64 L 215.76,502.02 L 231.00,486.02 L 246.24,469.13 L 261.48,448.01 L 276.72,427.28 L 291.96,402.84 L 307.20,380.03 L 322.44,354.33 L 337.68,328.83 L 352.92,306.53 L 368.16,283.01 L 383.40,263.37 L 398.64,243.69 L 413.88,228.24 L 429.12,213.90 L 444.36,203.74 L 459.60,195.67 L 474.84,191.38 L 490.08,189.92 L 505.32,191.52 L 520.56,196.38 L 535.80,203.32 L 551.04,213.59 L 566.28,224.84 L 581.52,239.14 L 596.76,253.26 L 612.00,269.86 L 627.24,286.90 L 642.48,302.17 L 657.72,318.59 L 672.96,332.48 L 688.20,346.50 L 703.44,357.51 L 718.68,367.65 L 733.92,374.65 L 749.16,379.88 L 764.40,382.19 L 779.64,382.07 L 794.88,379.56 L 810.12,374.24 L 825.36,367.33 L 840.60,357.55 L 855.84,347.15 L 871.08,334.20 L 886.32,321.65 L 901.56,307.18 L 916.80,294.09 L 932.04,279.99 L 947.28,266.85 L 962.52,256.28 L 977.76,246.39 L 993.00,239.49 L 1008.24,234.42 L 1023.48,232.46 L 1038.72,233.38 L 1053.96,237.15 L 1069.20,244.66 L 1084.44,254.42 L 1099.68,268.50 L 1114.92,283.94 L 1130.16,303.91 L 1145.40,324.14 L 1160.64,348.73 L 1175.88,372.37 L 1191.12,399.83 L 1206.36,425.14 L 1221.60,453.38 L 1236.84,481.13 L 1252.08,505.17 L 1267.32,530.31 L 1282.56,551.05 L 1297.80,571.52 L 1313.04,587.24 L 1328.28,601.33 L 1343.52,610.72 L 1358.76,617.26 L 1374.00,619.51 L 1389.24,617.92 L 1404.48,612.83 L 1419.72,603.22 L 1434.96,591.18 L 1450.20,574.30 L 1465.44,556.27 L 1480.68,533.49 L 1495.92,510.91 L 1511.16,484.01 L 1526.40,458.65 L 1541.64,429.74 L 1556.88,400.65 L 1572.12,374.81 L 1587.36,347.00 L 1602.60,323.22 L 1617.84,298.64 L 1633.08,278.51 L 1648.32,258.71 L 1663.56,243.41 L 1678.80,229.42 L 1694.04,219.61 L 1709.28,211.86 L 1724.52,207.65 L 1739.76,205.94 L 1755.00,206.88 L 1770.24,210.42 L 1785.48,215.58 L 1800.72,223.10 L 1815.96,231.14 L 1831.20,241.04 L 1846.44,251.47 L 1861.68,260.89 L 1876.92,270.95 L 1892.16,279.27 L 1907.40,287.30 L 1922.64,293.13 L 1937.88,297.77 L 1953.12,300.07 L 1968.36,300.39 L 1983.60,298.59 L 1998.84,294.24 L 2014.08,288.28 L 2029.32,279.51 L 2044.56,269.87 L 2059.80,257.50 L 2075.04,245.17 L 2090.28,230.53 L 2105.52,216.89 L 2120.76,201.69 L 2136.00,188.39 L 2151.24,174.55 L 2166.48,162.19 L 2181.72,152.78 L 2196.96,144.66 L 2212.20,139.81 L 2227.44,137.50 L 2242.68,138.45 L 2257.92,143.08 L 2273.16,150.58 L 2288.40,162.70 L 2303.64,176.98 L 2318.88,196.48 L 2334.12,217.14 L 2349.36,243.27 L 2364.60,269.34 L 2379.84,300.73 L 2395.08,330.74 L 2410.32,365.52 L 2425.56,397.61 L 2440.80,433.57 L 2456.04,469.19 L 2471.28,500.42 L 2486.52,533.62 L 2501.76,561.65 L 2517.00,590.22 L 2532.24,613.20 L 2547.48,635.30 L 2562.72,651.78 L 2577.96,666.06 L 2593.20,675.12 L 2608.44,680.87 L 2623.68,682.15 L 2638.92,679.34 L 2654.16,673.12 L 2669.40,662.37 L 2684.64,649.50 L 2699.88,632.04 L 2715.12,613.85 L 2730.36,591.36 L 2745.60,569.53 L 2760.84,544.03 L 2776.08,517.78 L 2791.32,494.01 L 2806.56,467.93 L 2821.80,445.19 L 2837.04,421.18 L 2852.28,401.04 L 2867.52,380.62 L 2882.76,364.23 L 2898.00,348.42 L 2913.24,336.46 L 2928.48,325.72 L 2943.72,318.32 L 2958.96,312.49 L 2974.20,309.23 L 2989.44,307.59 L 3004.68,307.61 L 3019.92,308.97 L 3035.16,311.04 L 3050.40,313.87 L 3065.64,316.82 L 3080.88,319.19 L 3096.12,321.08 L 3111.36,321.78 L 3126.60,321.09 L 3141.84,318.88 L 3157.08,314.40 L 3172.32,308.39 L 3187.56,299.38 L 3200.00,291.01"
    stroke="#1a1a1a" stroke-width="2.0"
    fill="none" stroke-linecap="round" stroke-linejoin="round"/>
  <path d="M 0.00,291.01 L 2.80,289.13 L 18.04,275.40 L 33.28,261.03 L 48.52,243.00 L 63.76,225.14 L 79.00,203.82 L 94.24,183.62 L 109.48,160.50 L 124.72,139.49 L 139.96,116.45 L 155.20,96.43 L 170.44,75.54 L 185.68,56.61 L 200.92,41.72 L 216.16,28.04 L 231.40,18.67 L 246.64,11.92 L 261.88,9.40 L 277.12,10.80 L 292.36,15.98 L 307.60,26.16 L 322.84,39.30 L 338.08,58.21 L 353.32,78.95 L 368.56,105.86 L 383.80,133.24 L 399.04,166.77 L 414.28,199.32 L 429.52,237.58 L 444.76,273.39 L 460.00,314.11 L 475.24,355.15 L 490.48,391.80 L 505.72,431.57 L 520.96,466.00 L 536.20,502.19 L 551.44,532.45 L 566.68,563.07 L 581.92,587.59 L 597.16,611.15 L 612.40,628.85 L 627.64,644.46 L 642.88,654.83 L 658.12,662.29 L 673.36,665.43 L 688.60,665.16 L 703.84,661.75 L 719.08,654.78 L 734.32,645.97 L 749.56,633.79 L 764.80,621.08 L 780.04,605.49 L 795.28,588.88 L 810.52,573.50 L 825.76,556.38 L 841.00,541.34 L 856.24,525.43 L 871.48,512.14 L 886.72,498.81 L 901.96,488.29 L 917.20,478.41 L 932.44,471.22 L 947.68,465.12 L 962.92,461.29 L 978.16,458.72 L 993.40,457.75 L 1008.64,457.92 L 1023.88,458.90 L 1039.12,460.56 L 1054.36,462.22 L 1069.60,463.84 L 1084.84,464.79 L 1100.08,464.67 L 1115.32,463.07 L 1130.56,459.97 L 1145.80,454.36 L 1161.04,447.10 L 1176.28,436.35 L 1191.52,424.12 L 1206.76,407.60 L 1222.00,390.08 L 1237.24,367.74 L 1252.48,345.18 L 1267.72,317.60 L 1282.96,290.79 L 1298.20,259.14 L 1313.44,229.38 L 1328.68,195.37 L 1343.92,164.38 L 1359.16,130.08 L 1374.40,99.85 L 1389.64,67.55 L 1404.88,37.22 L 1420.12,12.13 L 1435.36,-12.77 L 1450.60,-32.08 L 1465.84,-49.65 L 1481.08,-61.65 L 1496.32,-70.46 L 1511.56,-74.13 L 1526.80,-73.35 L 1542.04,-68.24 L 1557.28,-57.74 L 1572.52,-44.06 L 1587.76,-24.40 L 1603.00,-2.97 L 1618.24,24.63 L 1633.48,52.46 L 1648.72,86.21 L 1663.96,118.64 L 1679.20,156.37 L 1694.44,195.26 L 1709.68,230.68 L 1724.92,269.90 L 1740.16,304.57 L 1755.40,341.84 L 1770.64,373.81 L 1785.88,407.13 L 1801.12,434.79 L 1816.36,462.61 L 1831.60,484.83 L 1846.84,506.21 L 1862.08,522.41 L 1877.32,537.02 L 1892.56,547.19 L 1907.80,555.33 L 1923.04,560.02 L 1938.28,562.56 L 1953.52,562.75 L 1968.76,561.02 L 1984.00,558.05 L 1999.24,553.64 L 2014.48,548.49 L 2029.72,543.63 L 2044.96,538.38 L 2060.20,534.11 L 2075.44,530.24 L 2090.68,527.78 L 2105.92,526.41 L 2121.16,526.57 L 2136.40,528.37 L 2151.64,531.48 L 2166.88,536.54 L 2182.12,542.44 L 2197.36,550.29 L 2212.60,558.31 L 2227.84,567.95 L 2243.08,576.98 L 2258.32,587.00 L 2273.56,595.62 L 2288.80,604.31 L 2304.04,611.58 L 2319.28,616.50 L 2334.52,619.73 L 2349.76,620.28 L 2365.00,617.91 L 2380.24,612.83 L 2395.48,603.66 L 2410.72,592.10 L 2425.96,575.47 L 2441.20,557.09 L 2456.44,532.95 L 2471.68,508.01 L 2486.92,476.96 L 2502.16,446.29 L 2517.40,409.58 L 2532.64,374.57 L 2547.88,333.98 L 2563.12,296.43 L 2578.36,254.18 L 2593.60,216.20 L 2608.84,174.71 L 2624.08,134.62 L 2639.32,100.28 L 2654.56,64.65 L 2669.80,35.33 L 2685.04,6.28 L 2700.28,-16.31 L 2715.52,-37.13 L 2730.76,-51.76 L 2746.00,-63.29 L 2761.24,-69.31 L 2776.48,-71.18 L 2791.72,-68.58 L 2806.96,-61.10 L 2822.20,-50.48 L 2837.44,-34.66 L 2852.68,-17.16 L 2867.92,5.45 L 2883.16,28.22 L 2898.40,55.68 L 2913.64,84.82 L 2928.88,111.96 L 2944.12,142.59 L 2959.36,170.11 L 2974.60,200.10 L 2989.84,226.17 L 3005.08,253.67 L 3020.32,276.80 L 3035.56,300.39 L 3050.80,319.53 L 3066.04,338.33 L 3081.28,352.97 L 3096.52,366.71 L 3111.76,376.87 L 3127.00,385.86 L 3142.24,392.08 L 3157.48,397.18 L 3172.72,400.43 L 3187.96,402.91 L 3200.00,404.14"
    stroke="#1a1a1a" stroke-width="2.0"
    fill="none" stroke-linecap="round" stroke-linejoin="round"/>
  <path d="M 0.00,404.14 L 3.20,404.46 L 18.44,405.84 L 33.68,407.28 L 48.92,408.98 L 64.16,411.70 L 79.40,415.20 L 94.64,420.54 L 109.88,426.87 L 125.12,435.78 L 140.36,445.59 L 155.60,458.53 L 170.84,471.99 L 186.08,488.84 L 201.32,505.56 L 216.56,525.62 L 231.80,544.73 L 247.04,566.76 L 262.28,586.94 L 277.52,609.29 L 292.76,628.91 L 308.00,649.63 L 323.24,668.69 L 338.48,683.96 L 353.72,698.34 L 368.96,708.56 L 384.20,716.48 L 399.44,720.20 L 414.68,720.27 L 429.92,716.47 L 445.16,707.85 L 460.40,696.06 L 475.64,678.54 L 490.88,658.88 L 506.12,632.94 L 521.36,606.16 L 536.60,572.95 L 551.84,540.34 L 567.08,501.58 L 582.32,464.92 L 597.56,422.79 L 612.80,384.17 L 628.04,341.11 L 643.28,298.56 L 658.52,261.27 L 673.76,221.55 L 689.00,187.84 L 704.24,153.15 L 719.48,124.81 L 734.72,96.91 L 749.96,75.30 L 765.20,55.39 L 780.44,41.29 L 795.68,29.91 L 810.92,23.49 L 826.16,20.49 L 841.40,21.34 L 856.64,25.94 L 871.88,33.09 L 887.12,43.96 L 902.36,56.01 L 917.60,71.43 L 932.84,88.46 L 948.08,104.71 L 963.32,123.30 L 978.56,140.07 L 993.80,158.31 L 1009.04,174.00 L 1024.28,190.26 L 1039.52,203.57 L 1054.76,216.64 L 1070.00,226.71 L 1085.24,235.92 L 1100.48,242.40 L 1115.72,247.66 L 1130.96,250.73 L 1146.20,252.51 L 1161.44,252.85 L 1176.68,252.14 L 1191.92,250.82 L 1207.16,248.99 L 1222.40,247.37 L 1237.64,246.02 L 1252.88,245.58 L 1268.12,246.33 L 1283.36,248.82 L 1298.60,252.84 L 1313.84,259.58 L 1329.08,267.90 L 1344.32,279.82 L 1359.56,293.04 L 1374.80,310.52 L 1390.04,328.72 L 1405.28,351.55 L 1420.52,374.27 L 1435.76,401.63 L 1451.00,427.87 L 1466.24,458.38 L 1481.48,486.67 L 1496.72,518.50 L 1511.96,547.04 L 1527.20,578.08 L 1542.44,607.79 L 1557.68,632.90 L 1572.92,658.44 L 1588.16,678.86 L 1603.40,698.23 L 1618.64,712.31 L 1633.88,723.90 L 1649.12,730.44 L 1664.36,733.18 L 1679.60,731.49 L 1694.84,724.96 L 1710.08,714.97 L 1725.32,699.46 L 1740.56,681.73 L 1755.80,658.17 L 1771.04,633.84 L 1786.28,603.79 L 1801.52,574.48 L 1816.76,539.94 L 1832.00,507.60 L 1847.24,470.88 L 1862.48,433.96 L 1877.72,401.12 L 1892.96,365.63 L 1908.20,335.05 L 1923.44,303.11 L 1938.68,276.55 L 1953.92,249.88 L 1969.16,228.67 L 1984.40,208.44 L 1999.64,193.36 L 2014.88,180.14 L 2030.12,171.39 L 2045.36,165.08 L 2060.60,162.30 L 2075.84,162.19 L 2091.08,164.49 L 2106.32,169.35 L 2121.56,175.44 L 2136.80,183.66 L 2152.04,192.94 L 2167.28,201.77 L 2182.52,211.65 L 2197.76,220.23 L 2213.00,228.99 L 2228.24,235.86 L 2243.48,242.06 L 2258.72,246.11 L 2273.96,248.73 L 2289.20,249.28 L 2304.44,247.84 L 2319.68,244.73 L 2334.92,239.35 L 2350.16,232.93 L 2365.40,224.29 L 2380.64,215.41 L 2395.88,204.69 L 2411.12,194.61 L 2426.36,183.37 L 2441.60,173.60 L 2456.84,163.60 L 2472.08,154.99 L 2487.32,148.82 L 2502.56,144.13 L 2517.80,142.19 L 2533.04,142.88 L 2548.28,146.30 L 2563.52,153.40 L 2578.76,162.86 L 2594.00,176.83 L 2609.24,192.49 L 2624.48,213.18 L 2639.72,234.59 L 2654.96,261.20 L 2670.20,287.38 L 2685.44,318.54 L 2700.68,348.02 L 2715.92,381.86 L 2731.16,412.81 L 2746.40,447.16 L 2761.64,480.86 L 2776.88,510.10 L 2792.12,540.82 L 2807.36,566.40 L 2822.60,592.02 L 2837.84,612.18 L 2853.08,630.98 L 2868.32,644.38 L 2883.56,655.14 L 2898.80,660.97 L 2914.04,663.12 L 2929.28,661.16 L 2944.52,654.79 L 2959.76,645.45 L 2975.00,631.34 L 2990.24,615.59 L 3005.48,595.10 L 3020.72,574.40 L 3035.96,549.37 L 3051.20,525.51 L 3066.44,498.07 L 3081.68,470.24 L 3096.92,445.37 L 3112.16,418.47 L 3127.40,395.37 L 3142.64,371.37 L 3157.88,351.64 L 3173.12,332.12 L 3188.36,316.97 L 3200.00,306.30"
    stroke="#1a1a1a" stroke-width="2.0"
    fill="none" stroke-linecap="round" stroke-linejoin="round"/>
  <path d="M 0.00,306.30 L 3.60,303.00 L 18.84,293.10 L 34.08,285.12 L 49.32,280.61 L 64.56,278.45 L 79.80,278.88 L 95.04,281.75 L 110.28,286.20 L 125.52,292.83 L 140.76,299.97 L 156.00,308.75 L 171.24,317.94 L 186.48,326.15 L 201.72,334.74 L 216.96,341.63 L 232.20,347.94 L 247.44,352.10 L 262.68,354.73 L 277.92,355.11 L 293.16,353.14 L 308.40,349.14 L 323.64,342.20 L 338.88,333.74 L 354.12,322.04 L 369.36,309.61 L 384.60,293.95 L 399.84,278.51 L 415.08,260.23 L 430.32,243.15 L 445.56,223.95 L 460.80,206.89 L 476.04,188.68 L 491.28,171.79 L 506.52,158.14 L 521.76,145.15 L 537.00,135.78 L 552.24,128.31 L 567.48,124.49 L 582.72,123.70 L 597.96,126.25 L 613.20,132.75 L 628.44,141.92 L 643.68,155.70 L 658.92,171.17 L 674.16,191.53 L 689.40,212.42 L 704.64,238.10 L 719.88,263.02 L 735.12,292.23 L 750.36,319.43 L 765.60,350.08 L 780.84,380.59 L 796.08,407.41 L 811.32,435.94 L 826.56,460.00 L 841.80,484.46 L 857.04,504.03 L 872.28,522.69 L 887.52,536.42 L 902.76,548.05 L 918.00,555.12 L 933.24,559.12 L 948.48,559.26 L 963.72,555.67 L 978.96,549.24 L 994.20,538.79 L 1009.44,526.70 L 1024.68,510.66 L 1039.92,494.28 L 1055.16,474.40 L 1070.40,455.45 L 1085.64,433.75 L 1100.88,411.94 L 1116.12,392.68 L 1131.36,372.22 L 1146.60,355.06 L 1161.84,337.80 L 1177.08,324.23 L 1192.32,311.63 L 1207.56,302.75 L 1222.80,295.75 L 1238.04,292.12 L 1253.28,291.06 L 1268.52,292.70 L 1283.76,297.26 L 1299.00,303.62 L 1314.24,312.92 L 1329.48,322.98 L 1344.72,335.64 L 1359.96,347.98 L 1375.20,362.29 L 1390.44,376.70 L 1405.68,389.34 L 1420.92,402.53 L 1436.16,413.24 L 1451.40,423.44 L 1466.64,430.78 L 1481.88,436.56 L 1497.12,439.42 L 1512.36,439.81 L 1527.60,437.56 L 1542.84,432.15 L 1558.08,424.71 L 1573.32,413.72 L 1588.56,401.55 L 1603.80,385.78 L 1619.04,369.86 L 1634.28,350.65 L 1649.52,332.38 L 1664.76,311.47 L 1680.00,292.53 L 1695.24,271.88 L 1710.48,252.16 L 1725.72,235.68 L 1740.96,219.22 L 1756.20,206.46 L 1771.44,194.93 L 1786.68,187.23 L 1801.92,181.88 L 1817.16,180.12 L 1832.40,181.65 L 1847.64,186.17 L 1862.88,194.63 L 1878.12,205.20 L 1893.36,220.00 L 1908.60,235.81 L 1923.84,255.78 L 1939.08,275.53 L 1954.32,298.99 L 1969.56,321.01 L 1984.80,345.95 L 2000.04,370.81 L 2015.28,392.61 L 2030.52,415.65 L 2045.76,434.90 L 2061.00,454.14 L 2076.24,469.17 L 2091.48,482.96 L 2106.72,492.49 L 2121.96,499.67 L 2137.20,502.94 L 2152.44,502.96 L 2167.68,499.76 L 2182.92,492.74 L 2198.16,483.47 L 2213.40,470.16 L 2228.64,455.77 L 2243.88,437.50 L 2259.12,419.39 L 2274.36,397.91 L 2289.60,375.56 L 2304.84,355.18 L 2320.08,332.78 L 2335.32,313.30 L 2350.56,292.91 L 2365.80,276.11 L 2381.04,259.58 L 2396.28,246.95 L 2411.52,235.73 L 2426.76,228.34 L 2442.00,223.32 L 2457.24,221.72 L 2472.48,223.19 L 2487.72,227.36 L 2502.96,234.98 L 2518.20,244.33 L 2533.44,257.16 L 2548.68,270.60 L 2563.92,287.21 L 2579.16,303.27 L 2594.40,321.87 L 2609.64,340.75 L 2624.88,357.51 L 2640.12,375.41 L 2655.36,390.44 L 2670.60,405.52 L 2685.84,417.31 L 2701.08,428.07 L 2716.32,435.43 L 2731.56,440.82 L 2746.80,443.07 L 2762.04,442.62 L 2777.28,439.59 L 2792.52,433.43 L 2807.76,425.53 L 2823.00,414.40 L 2838.24,402.55 L 2853.48,387.72 L 2868.72,373.26 L 2883.96,356.40 L 2899.20,339.23 L 2914.44,323.97 L 2929.68,307.71 L 2944.92,294.12 L 2960.16,280.66 L 2975.40,270.36 L 2990.64,261.32 L 3005.88,255.61 L 3021.12,252.20 L 3036.36,251.94 L 3051.60,254.83 L 3066.84,260.32 L 3082.08,269.56 L 3097.32,280.56 L 3112.56,295.53 L 3127.80,311.23 L 3143.04,330.76 L 3158.28,349.85 L 3173.52,372.27 L 3188.76,393.09 L 3200.00,410.28"
    stroke="#1a1a1a" stroke-width="2.0"
    fill="none" stroke-linecap="round" stroke-linejoin="round"/>
  <path d="M 0.00,410.28 L 4.00,416.40 L 19.24,439.32 L 34.48,459.13 L 49.72,479.69 L 64.96,496.46 L 80.20,512.69 L 95.44,524.79 L 110.68,535.09 L 125.92,541.28 L 141.16,544.54 L 156.40,544.11 L 171.64,539.83 L 186.88,532.62 L 202.12,520.99 L 217.36,507.45 L 232.60,489.29 L 247.84,470.44 L 263.08,447.13 L 278.32,424.44 L 293.56,397.84 L 308.80,370.33 L 324.04,345.31 L 339.28,317.77 L 354.52,293.70 L 369.76,268.27 L 385.00,247.01 L 400.24,225.62 L 415.48,208.72 L 430.72,192.88 L 445.96,181.48 L 461.20,172.18 L 476.44,166.90 L 491.68,164.48 L 506.92,165.36 L 522.16,169.56 L 537.40,176.06 L 552.64,186.00 L 567.88,197.08 L 583.12,211.38 L 598.36,225.64 L 613.60,242.55 L 628.84,260.08 L 644.08,275.93 L 659.32,293.16 L 674.56,307.90 L 689.80,323.01 L 705.04,335.13 L 720.28,346.63 L 735.52,354.96 L 750.76,361.80 L 766.00,365.65 L 781.24,367.34 L 796.48,366.54 L 811.72,363.18 L 826.96,358.10 L 842.20,350.42 L 857.44,341.94 L 872.68,331.14 L 887.92,320.56 L 903.16,308.27 L 918.40,295.93 L 933.64,285.20 L 948.88,274.20 L 964.12,265.51 L 979.36,257.64 L 994.60,252.52 L 1009.84,249.34 L 1025.08,249.00 L 1040.32,251.62 L 1055.56,256.83 L 1070.80,265.83 L 1086.04,276.81 L 1101.28,292.11 L 1116.52,308.52 L 1131.76,329.44 L 1147.00,350.38 L 1162.24,375.60 L 1177.48,399.68 L 1192.72,427.45 L 1207.96,452.90 L 1223.20,481.13 L 1238.44,508.70 L 1253.68,532.44 L 1268.92,557.07 L 1284.16,577.21 L 1299.40,596.87 L 1314.64,611.72 L 1329.88,624.71 L 1345.12,632.97 L 1360.36,638.13 L 1375.60,639.04 L 1390.84,635.83 L 1406.08,629.19 L 1421.32,617.76 L 1436.56,604.01 L 1451.80,585.16 L 1467.04,565.29 L 1482.28,540.41 L 1497.52,515.91 L 1512.76,486.85 L 1528.00,456.44 L 1543.24,428.43 L 1558.48,397.16 L 1573.72,369.37 L 1588.96,339.44 L 1604.20,313.79 L 1619.44,287.18 L 1634.68,265.29 L 1649.92,243.61 L 1665.16,226.70 L 1680.40,211.01 L 1695.64,199.78 L 1710.88,190.55 L 1726.12,185.14 L 1741.36,182.22 L 1756.60,182.20 L 1771.84,184.81 L 1787.08,189.27 L 1802.32,196.18 L 1817.56,203.80 L 1832.80,213.40 L 1848.04,223.69 L 1863.28,233.15 L 1878.52,243.41 L 1893.76,252.05 L 1909.00,260.60 L 1924.24,267.04 L 1939.48,272.51 L 1954.72,275.69 L 1969.96,277.14 L 1985.20,276.47 L 2000.44,273.51 L 2015.68,268.91 L 2030.92,261.76 L 2046.16,253.68 L 2061.40,243.14 L 2076.64,232.53 L 2091.88,219.87 L 2107.12,208.08 L 2122.36,194.98 L 2137.60,182.39 L 2152.84,171.93 L 2168.08,161.75 L 2183.32,154.31 L 2198.56,148.37 L 2213.80,145.46 L 2229.04,145.27 L 2244.28,148.09 L 2259.52,154.73 L 2274.76,164.00 L 2290.00,177.98 L 2305.24,193.87 L 2320.48,215.05 L 2335.72,237.13 L 2350.96,264.71 L 2366.20,291.98 L 2381.44,324.56 L 2396.68,355.53 L 2411.92,391.21 L 2427.16,423.99 L 2442.40,460.55 L 2457.64,496.61 L 2472.88,528.09 L 2488.12,561.40 L 2503.36,589.38 L 2518.60,617.73 L 2533.84,640.38 L 2549.08,661.93 L 2564.32,677.80 L 2579.56,691.23 L 2594.80,699.39 L 2610.04,704.00 L 2625.28,704.14 L 2640.52,699.92 L 2655.76,692.34 L 2671.00,679.95 L 2686.24,665.51 L 2701.48,646.21 L 2716.72,626.29 L 2731.96,601.82 L 2747.20,575.43 L 2762.44,550.53 L 2777.68,522.14 L 2792.92,496.41 L 2808.16,468.15 L 2823.40,443.45 L 2838.64,417.26 L 2853.88,395.18 L 2869.12,372.64 L 2884.36,354.39 L 2899.60,336.57 L 2914.84,322.86 L 2930.08,310.26 L 2945.32,301.26 L 2960.56,293.75 L 2975.80,289.09 L 2991.04,286.01 L 3006.28,284.85 L 3021.52,285.02 L 3036.76,286.15 L 3052.00,288.10 L 3067.24,290.31 L 3082.48,292.15 L 3097.72,293.63 L 3112.96,294.10 L 3128.20,293.31 L 3143.44,291.16 L 3158.68,286.92 L 3173.92,281.26 L 3189.16,272.80 L 3200.00,265.97"
    stroke="#1a1a1a" stroke-width="2.0"
    fill="none" stroke-linecap="round" stroke-linejoin="round"/>
  <path d="M 0.00,265.97 L 4.40,263.19 L 19.64,250.33 L 34.88,236.86 L 50.12,219.99 L 65.36,203.29 L 80.60,183.38 L 95.84,164.57 L 111.08,143.09 L 126.32,123.67 L 141.56,102.47 L 156.80,82.22 L 172.04,65.29 L 187.28,48.42 L 202.52,35.43 L 217.76,23.90 L 233.00,16.48 L 248.24,11.92 L 263.48,11.37 L 278.72,14.94 L 293.96,22.06 L 309.20,34.35 L 324.44,49.35 L 339.68,70.26 L 354.92,92.74 L 370.16,121.50 L 385.40,150.47 L 400.64,185.67 L 415.88,219.61 L 431.12,259.30 L 446.36,296.28 L 461.60,338.17 L 476.84,380.23 L 492.08,417.65 L 507.32,458.14 L 522.56,493.08 L 537.80,529.67 L 553.04,560.15 L 568.28,590.85 L 583.52,615.29 L 598.76,638.60 L 614.00,655.93 L 629.24,670.98 L 644.48,680.69 L 659.72,687.27 L 674.96,689.49 L 690.20,688.05 L 705.44,683.47 L 720.68,675.07 L 735.92,664.86 L 751.16,651.03 L 766.40,635.05 L 781.64,619.29 L 796.88,600.74 L 812.12,583.54 L 827.36,564.36 L 842.60,547.41 L 857.84,529.36 L 873.08,514.11 L 888.32,498.59 L 903.56,486.10 L 918.80,474.06 L 934.04,464.93 L 949.28,456.73 L 964.52,451.04 L 979.76,446.47 L 995.00,443.77 L 1010.24,442.09 L 1025.48,441.49 L 1040.72,441.50 L 1055.96,441.78 L 1071.20,441.99 L 1086.44,441.65 L 1101.68,440.51 L 1116.92,437.90 L 1132.16,434.04 L 1147.40,427.72 L 1162.64,419.97 L 1177.88,408.83 L 1193.12,396.40 L 1208.36,379.82 L 1223.60,362.40 L 1238.84,340.33 L 1254.08,318.15 L 1269.32,291.16 L 1284.56,265.01 L 1299.80,234.26 L 1315.04,205.44 L 1330.28,172.61 L 1345.52,142.80 L 1360.76,109.95 L 1376.00,77.98 L 1391.24,50.48 L 1406.48,21.94 L 1421.72,-1.47 L 1436.96,-24.43 L 1452.20,-41.92 L 1467.44,-57.42 L 1482.68,-67.51 L 1497.92,-74.17 L 1513.16,-75.88 L 1528.40,-72.91 L 1543.64,-65.84 L 1558.88,-53.17 L 1574.12,-37.56 L 1589.36,-15.80 L 1604.60,7.49 L 1619.84,37.07 L 1635.08,66.63 L 1650.32,102.22 L 1665.56,136.22 L 1680.80,175.59 L 1696.04,215.99 L 1711.28,252.66 L 1726.52,293.16 L 1741.76,328.84 L 1757.00,367.10 L 1772.24,399.82 L 1787.48,433.83 L 1802.72,461.96 L 1817.96,490.16 L 1833.20,512.56 L 1848.44,533.99 L 1863.68,550.08 L 1878.92,564.40 L 1894.16,574.17 L 1909.40,581.71 L 1924.64,585.71 L 1939.88,587.35 L 1955.12,586.59 L 1970.36,583.66 L 1985.60,578.96 L 2000.84,573.62 L 2016.08,566.90 L 2031.32,560.52 L 2046.56,553.48 L 2061.80,547.53 L 2077.04,541.70 L 2092.28,537.42 L 2107.52,533.97 L 2122.76,532.21 L 2138.00,531.86 L 2153.24,533.01 L 2168.48,535.88 L 2183.72,539.82 L 2198.96,545.50 L 2214.20,551.59 L 2229.44,559.14 L 2244.68,566.33 L 2259.92,574.36 L 2275.16,581.26 L 2290.40,588.12 L 2305.64,593.67 L 2320.88,597.13 L 2336.12,598.86 L 2351.36,598.16 L 2366.60,594.54 L 2381.84,588.45 L 2397.08,578.31 L 2412.32,566.01 L 2427.56,548.71 L 2442.80,529.87 L 2458.04,505.38 L 2473.28,480.27 L 2488.52,449.19 L 2503.76,418.65 L 2519.00,382.24 L 2534.24,347.64 L 2549.48,307.67 L 2564.72,270.82 L 2579.96,229.49 L 2595.20,188.40 L 2610.44,152.20 L 2625.68,113.46 L 2640.92,80.44 L 2656.16,46.41 L 2671.40,18.61 L 2686.64,-8.64 L 2701.88,-29.53 L 2717.12,-48.39 L 2732.36,-61.19 L 2747.60,-70.64 L 2762.84,-74.75 L 2778.08,-74.45 L 2793.32,-69.89 L 2808.56,-60.23 L 2823.80,-47.64 L 2839.04,-29.66 L 2854.28,-10.24 L 2869.52,14.47 L 2884.76,39.08 L 2900.00,68.51 L 2915.24,99.55 L 2930.48,128.33 L 2945.72,160.67 L 2960.96,189.63 L 2976.20,221.12 L 2991.44,248.42 L 3006.68,277.16 L 3021.92,301.28 L 3037.16,325.83 L 3052.40,345.70 L 3067.64,365.15 L 3082.88,380.23 L 3098.12,394.30 L 3113.36,404.62 L 3128.60,413.62 L 3143.84,419.70 L 3159.08,424.48 L 3174.32,427.30 L 3189.56,429.15 L 3200.00,429.77"
    stroke="#1a1a1a" stroke-width="2.0"
    fill="none" stroke-linecap="round" stroke-linejoin="round"/>
  <path d="M 0.00,429.77 L 4.80,430.05 L 20.04,430.42 L 35.28,430.77 L 50.52,431.36 L 65.76,432.72 L 81.00,434.88 L 96.24,438.61 L 111.48,443.41 L 126.72,450.51 L 141.96,458.62 L 157.20,469.59 L 172.44,481.21 L 187.68,495.97 L 202.92,510.78 L 218.16,528.67 L 233.40,545.82 L 248.64,565.67 L 263.88,583.89 L 279.12,604.07 L 294.36,621.77 L 309.60,640.41 L 324.84,657.44 L 340.08,670.93 L 355.32,683.42 L 370.56,692.02 L 385.80,698.23 L 401.04,700.52 L 416.28,699.10 L 431.52,694.09 L 446.76,684.24 L 462.00,671.48 L 477.24,653.01 L 492.48,632.65 L 507.72,606.07 L 522.96,578.85 L 538.20,545.33 L 553.44,512.58 L 568.68,473.83 L 583.92,437.32 L 599.16,395.53 L 614.40,353.10 L 629.64,314.94 L 644.88,273.21 L 660.12,236.79 L 675.36,198.18 L 690.60,165.58 L 705.84,132.27 L 721.08,105.28 L 736.32,79.00 L 751.56,58.94 L 766.80,40.85 L 782.04,28.45 L 797.28,19.05 L 812.52,14.47 L 827.76,13.57 L 843.00,16.34 L 858.24,23.11 L 873.48,32.21 L 888.72,45.27 L 903.96,59.28 L 919.20,76.86 L 934.44,96.02 L 949.68,114.15 L 964.92,134.76 L 980.16,153.29 L 995.40,173.41 L 1010.64,190.71 L 1025.88,208.67 L 1041.12,223.40 L 1056.36,237.94 L 1071.60,249.22 L 1086.84,259.64 L 1102.08,267.09 L 1117.32,273.27 L 1132.56,277.04 L 1147.80,279.44 L 1163.04,280.19 L 1178.28,279.78 L 1193.52,278.59 L 1208.76,276.73 L 1224.00,274.75 L 1239.24,273.24 L 1254.48,272.28 L 1269.72,272.42 L 1284.96,274.08 L 1300.20,277.22 L 1315.44,282.84 L 1330.68,290.02 L 1345.92,300.55 L 1361.16,312.41 L 1376.40,328.26 L 1391.64,344.90 L 1406.88,365.91 L 1422.12,386.91 L 1437.36,412.29 L 1452.60,436.68 L 1467.84,465.09 L 1483.08,491.45 L 1498.32,521.12 L 1513.56,547.70 L 1528.80,576.54 L 1544.04,604.08 L 1559.28,627.25 L 1574.52,650.67 L 1589.76,669.22 L 1605.00,686.57 L 1620.24,698.90 L 1635.48,708.62 L 1650.72,713.55 L 1665.96,714.61 L 1681.20,711.50 L 1696.44,703.52 L 1711.68,692.34 L 1726.92,675.62 L 1742.16,656.95 L 1757.40,632.48 L 1772.64,607.47 L 1787.88,576.81 L 1803.12,547.10 L 1818.36,512.28 L 1833.60,476.18 L 1848.84,443.15 L 1864.08,406.45 L 1879.32,373.94 L 1894.56,338.99 L 1909.80,309.04 L 1925.04,277.94 L 1940.28,252.28 L 1955.52,226.74 L 1970.76,206.68 L 1986.00,187.85 L 2001.24,174.15 L 2016.48,162.56 L 2031.72,155.39 L 2046.96,150.91 L 2062.20,149.86 L 2077.44,151.74 L 2092.68,155.89 L 2107.92,162.85 L 2123.16,170.87 L 2138.40,181.26 L 2153.64,192.72 L 2168.88,203.52 L 2184.12,215.58 L 2199.36,226.09 L 2214.60,236.97 L 2229.84,245.70 L 2245.08,253.91 L 2260.32,259.71 L 2275.56,264.19 L 2290.80,266.34 L 2306.04,266.58 L 2321.28,264.87 L 2336.52,260.93 L 2351.76,255.69 L 2367.00,248.23 L 2382.24,240.29 L 2397.48,230.47 L 2412.72,221.05 L 2427.96,210.40 L 2443.20,200.00 L 2458.44,191.29 L 2473.68,182.77 L 2488.92,176.53 L 2504.16,171.61 L 2519.40,169.32 L 2534.64,169.45 L 2549.88,172.23 L 2565.12,178.47 L 2580.36,187.03 L 2595.60,199.85 L 2610.84,214.34 L 2626.08,233.61 L 2641.32,253.64 L 2656.56,278.61 L 2671.80,303.21 L 2687.04,332.52 L 2702.28,360.27 L 2717.52,392.11 L 2732.76,421.20 L 2748.00,453.45 L 2763.24,485.00 L 2778.48,512.29 L 2793.72,540.82 L 2808.96,564.43 L 2824.20,587.88 L 2839.44,606.11 L 2854.68,622.79 L 2869.92,634.34 L 2885.16,643.09 L 2900.40,647.18 L 2915.64,647.47 L 2930.88,643.93 L 2946.12,635.90 L 2961.36,625.16 L 2976.60,609.62 L 2991.84,592.70 L 3007.08,571.05 L 3022.32,549.42 L 3037.56,523.52 L 3052.80,496.22 L 3068.04,470.98 L 3083.28,442.75 L 3098.52,417.67 L 3113.76,390.70 L 3129.00,367.66 L 3144.24,343.92 L 3159.48,324.55 L 3174.72,305.61 L 3189.96,291.11 L 3200.00,282.48"
    stroke="#1a1a1a" stroke-width="2.0"
    fill="none" stroke-linecap="round" stroke-linejoin="round"/>
  <path d="M 0.00,282.48 L 5.20,278.02 L 20.44,269.05 L 35.68,262.23 L 50.92,258.90 L 66.16,258.16 L 81.40,259.99 L 96.64,264.52 L 111.88,270.55 L 127.12,279.04 L 142.36,287.92 L 157.60,298.70 L 172.84,309.96 L 188.08,320.08 L 203.32,330.82 L 218.56,339.66 L 233.80,348.15 L 249.04,354.28 L 264.28,359.09 L 279.52,361.40 L 294.76,361.54 L 310.00,359.39 L 325.24,354.45 L 340.48,347.73 L 355.72,337.87 L 370.96,327.01 L 386.20,313.01 L 401.44,298.95 L 416.68,282.08 L 431.92,266.16 L 447.16,248.11 L 462.40,230.19 L 477.64,214.62 L 492.88,198.43 L 508.12,185.27 L 523.36,172.66 L 538.60,163.50 L 553.84,156.08 L 569.08,152.17 L 584.32,151.12 L 599.56,153.28 L 614.80,159.20 L 630.04,167.70 L 645.28,180.58 L 660.52,195.12 L 675.76,214.30 L 691.00,234.00 L 706.24,258.23 L 721.48,281.75 L 736.72,309.30 L 751.96,334.90 L 767.20,363.69 L 782.44,392.25 L 797.68,417.25 L 812.92,443.71 L 828.16,465.86 L 843.40,488.16 L 858.64,505.78 L 873.88,522.25 L 889.12,534.02 L 904.36,543.48 L 919.60,548.62 L 934.84,550.51 L 950.08,548.80 L 965.32,543.23 L 980.56,535.07 L 995.80,522.78 L 1011.04,509.12 L 1026.28,491.45 L 1041.52,473.70 L 1056.76,452.42 L 1072.00,430.05 L 1087.24,409.48 L 1102.48,386.68 L 1117.72,366.67 L 1132.96,345.52 L 1148.20,327.88 L 1163.44,310.25 L 1178.68,296.50 L 1193.92,283.86 L 1209.16,275.08 L 1224.40,268.37 L 1239.64,265.14 L 1254.88,264.68 L 1270.12,267.00 L 1285.36,272.47 L 1300.60,279.79 L 1315.84,290.28 L 1331.08,301.54 L 1346.32,315.65 L 1361.56,329.41 L 1376.80,345.40 L 1392.04,361.60 L 1407.28,375.92 L 1422.52,391.07 L 1437.76,403.60 L 1453.00,415.88 L 1468.24,425.13 L 1483.48,433.07 L 1498.72,437.89 L 1513.96,440.47 L 1529.20,440.18 L 1544.44,436.94 L 1559.68,431.43 L 1574.92,422.53 L 1590.16,412.20 L 1605.40,398.42 L 1620.64,384.22 L 1635.88,366.84 L 1651.12,350.12 L 1666.36,330.84 L 1681.60,311.31 L 1696.84,294.00 L 1712.08,275.54 L 1727.32,260.06 L 1742.56,244.57 L 1757.80,232.55 L 1773.04,221.69 L 1788.28,214.45 L 1803.52,209.46 L 1818.76,207.86 L 1834.00,209.42 L 1849.24,213.81 L 1864.48,221.97 L 1879.72,232.13 L 1894.96,246.31 L 1910.20,261.42 L 1925.44,280.46 L 1940.68,299.26 L 1955.92,321.50 L 1971.16,342.32 L 1986.40,365.79 L 2001.64,389.05 L 2016.88,409.32 L 2032.12,430.57 L 2047.36,448.12 L 2062.60,465.40 L 2077.84,478.60 L 2093.08,490.31 L 2108.32,497.93 L 2123.56,502.95 L 2138.80,504.25 L 2154.04,502.09 L 2169.28,496.92 L 2184.52,487.74 L 2199.76,476.55 L 2215.00,461.14 L 2230.24,444.91 L 2245.48,424.66 L 2260.72,404.84 L 2275.96,381.55 L 2291.20,357.49 L 2306.44,335.66 L 2321.68,311.76 L 2336.92,291.04 L 2352.16,269.42 L 2367.40,251.63 L 2382.64,234.14 L 2397.88,220.79 L 2413.12,208.91 L 2428.36,201.08 L 2443.60,195.72 L 2458.84,193.97 L 2474.08,195.43 L 2489.32,199.74 L 2504.56,207.68 L 2519.80,217.45 L 2535.04,230.92 L 2550.28,245.07 L 2565.52,262.62 L 2580.76,279.66 L 2596.00,299.49 L 2611.24,319.73 L 2626.48,337.83 L 2641.72,357.33 L 2656.96,373.90 L 2672.20,390.79 L 2687.44,404.28 L 2702.68,417.01 L 2717.92,426.20 L 2733.16,433.69 L 2748.40,437.85 L 2763.64,439.56 L 2778.88,438.49 L 2794.12,434.52 L 2809.36,428.59 L 2824.60,419.62 L 2839.84,409.69 L 2855.08,396.95 L 2870.32,384.32 L 2885.56,369.43 L 2900.80,354.15 L 2916.04,340.51 L 2931.28,325.95 L 2946.52,313.80 L 2961.76,301.82 L 2977.00,292.74 L 2992.24,284.93 L 3007.48,280.19 L 3022.72,277.73 L 3037.96,278.17 L 3053.20,281.70 L 3068.44,287.63 L 3083.68,297.18 L 3098.92,308.32 L 3114.16,323.29 L 3129.40,338.83 L 3144.64,358.02 L 3159.88,376.67 L 3175.12,398.44 L 3190.36,418.53 L 3200.00,432.67"
    stroke="#1a1a1a" stroke-width="2.0"
    fill="none" stroke-linecap="round" stroke-linejoin="round"/>
  <path d="M 0.00,432.67 L 5.60,440.88 L 20.84,462.70 L 36.08,481.38 L 51.32,500.56 L 66.56,515.98 L 81.80,530.60 L 97.04,541.15 L 112.28,549.64 L 127.52,554.12 L 142.76,555.40 L 158.00,553.12 L 173.24,546.76 L 188.48,537.62 L 203.72,523.83 L 218.96,508.33 L 234.20,487.98 L 249.44,467.17 L 264.68,441.70 L 279.92,417.10 L 295.16,388.41 L 310.40,358.87 L 325.64,332.09 L 340.88,302.67 L 356.12,276.99 L 371.36,249.87 L 386.60,227.17 L 401.84,204.31 L 417.08,186.21 L 432.32,169.16 L 447.56,156.80 L 462.80,146.57 L 478.04,140.59 L 493.28,137.56 L 508.52,138.02 L 523.76,141.92 L 539.00,148.29 L 554.24,158.26 L 569.48,169.51 L 584.72,184.16 L 599.96,198.88 L 615.20,216.46 L 630.44,234.82 L 645.68,251.56 L 660.92,269.90 L 676.16,285.78 L 691.40,302.28 L 706.64,315.76 L 721.88,328.88 L 737.12,338.78 L 752.36,347.44 L 767.60,353.01 L 782.84,356.68 L 798.08,357.72 L 813.32,356.47 L 828.56,353.31 L 843.80,347.80 L 859.04,341.28 L 874.28,332.67 L 889.52,324.05 L 904.76,313.92 L 920.00,303.70 L 935.24,294.84 L 950.48,285.85 L 965.72,278.92 L 980.96,272.93 L 996.20,269.41 L 1011.44,267.91 L 1026.68,268.98 L 1041.92,273.07 L 1057.16,279.47 L 1072.40,289.66 L 1087.64,301.59 L 1102.88,317.81 L 1118.12,334.90 L 1133.36,356.42 L 1148.60,377.76 L 1163.84,403.27 L 1179.08,427.45 L 1194.32,455.18 L 1209.56,480.45 L 1224.80,508.30 L 1240.04,535.34 L 1255.28,558.45 L 1270.52,582.24 L 1285.76,601.49 L 1301.00,620.00 L 1316.24,633.71 L 1331.48,645.29 L 1346.72,652.18 L 1361.96,655.71 L 1377.20,655.04 L 1392.44,650.00 L 1407.68,641.64 L 1422.92,628.22 L 1438.16,612.61 L 1453.40,591.66 L 1468.64,569.86 L 1483.88,542.82 L 1499.12,516.35 L 1514.36,485.10 L 1529.60,452.52 L 1544.84,422.57 L 1560.08,389.18 L 1575.32,359.53 L 1590.56,327.58 L 1605.80,300.18 L 1621.04,271.71 L 1636.28,248.23 L 1651.52,224.87 L 1666.76,206.56 L 1682.00,189.43 L 1697.24,177.01 L 1712.48,166.61 L 1727.72,160.26 L 1742.96,156.44 L 1758.20,155.75 L 1773.44,157.78 L 1788.68,161.85 L 1803.92,168.49 L 1819.16,176.03 L 1834.40,185.68 L 1849.64,196.21 L 1864.88,206.02 L 1880.12,216.83 L 1895.36,226.12 L 1910.60,235.53 L 1925.84,242.88 L 1941.08,249.49 L 1956.32,253.84 L 1971.56,256.70 L 1986.80,257.41 L 2002.04,256.11 L 2017.28,253.08 L 2032.52,247.78 L 2047.76,241.43 L 2063.00,232.89 L 2078.24,224.13 L 2093.48,213.59 L 2108.72,203.72 L 2123.96,192.79 L 2139.20,182.39 L 2154.44,173.89 L 2169.68,165.89 L 2184.92,160.38 L 2200.16,156.55 L 2215.40,155.50 L 2230.64,157.32 L 2245.88,161.88 L 2261.12,170.38 L 2276.36,181.23 L 2291.60,196.88 L 2306.84,214.15 L 2322.08,236.77 L 2337.32,260.01 L 2352.56,288.77 L 2367.80,316.96 L 2383.04,350.42 L 2398.28,382.04 L 2413.52,418.29 L 2428.76,451.44 L 2444.00,488.25 L 2459.24,524.38 L 2474.48,555.79 L 2489.72,588.85 L 2504.96,616.46 L 2520.20,644.25 L 2535.44,666.24 L 2550.68,686.91 L 2565.92,701.85 L 2581.16,714.12 L 2596.40,721.11 L 2611.64,724.29 L 2626.88,723.03 L 2642.12,717.15 L 2657.36,707.98 L 2672.60,693.74 L 2687.84,677.56 L 2703.08,656.26 L 2718.32,634.48 L 2733.56,607.89 L 2748.80,579.35 L 2764.04,552.50 L 2779.28,521.92 L 2794.52,494.23 L 2809.76,463.80 L 2825.00,437.16 L 2840.24,408.86 L 2855.48,384.93 L 2870.72,360.39 L 2885.96,340.40 L 2901.20,320.74 L 2916.44,305.45 L 2931.68,291.20 L 2946.92,280.82 L 2962.16,271.90 L 2977.40,266.08 L 2992.64,261.84 L 3007.88,259.78 L 3023.12,259.08 L 3038.36,259.58 L 3053.60,260.97 L 3068.84,262.79 L 3084.08,264.44 L 3099.32,265.85 L 3114.56,266.41 L 3129.80,265.90 L 3145.04,264.13 L 3160.28,260.47 L 3175.52,255.48 L 3190.76,247.92 L 3200.00,242.66"
    stroke="#1a1a1a" stroke-width="2.0"
    fill="none" stroke-linecap="round" stroke-linejoin="round"/>
  <path d="M 0.00,242.66 L 6.00,239.25 L 21.24,227.56 L 36.48,215.28 L 51.72,199.85 L 66.96,184.56 L 82.20,166.32 L 97.44,149.10 L 112.68,129.49 L 127.92,111.81 L 143.16,92.62 L 158.40,74.45 L 173.64,59.43 L 188.88,44.72 L 204.12,33.69 L 219.36,24.33 L 234.60,18.89 L 249.84,16.49 L 265.08,17.87 L 280.32,23.55 L 295.56,32.51 L 310.80,46.80 L 326.04,63.52 L 341.28,86.27 L 356.52,110.32 L 371.76,140.71 L 387.00,171.06 L 402.24,207.65 L 417.48,242.74 L 432.72,283.57 L 447.96,321.45 L 463.20,364.18 L 478.44,406.93 L 493.68,444.83 L 508.92,485.69 L 524.16,520.81 L 539.40,557.44 L 554.64,587.82 L 569.88,618.23 L 585.12,642.27 L 600.36,664.98 L 615.60,681.62 L 630.84,695.76 L 646.08,704.53 L 661.32,709.91 L 676.56,710.93 L 691.80,708.04 L 707.04,702.04 L 722.28,691.96 L 737.52,680.15 L 752.76,664.44 L 768.00,646.51 L 783.24,628.93 L 798.48,608.30 L 813.72,589.19 L 828.96,567.85 L 844.20,548.94 L 859.44,528.70 L 874.68,511.49 L 889.92,493.80 L 905.16,479.39 L 920.40,465.24 L 935.64,454.28 L 950.88,444.09 L 966.12,436.68 L 981.36,430.28 L 996.60,426.03 L 1011.84,422.72 L 1027.08,420.76 L 1042.32,419.38 L 1057.56,418.53 L 1072.80,417.61 L 1088.04,416.30 L 1103.28,414.41 L 1118.52,411.14 L 1133.76,406.82 L 1149.00,400.15 L 1164.24,392.23 L 1179.48,381.07 L 1194.72,368.76 L 1209.96,352.48 L 1225.20,335.47 L 1240.44,314.02 L 1255.68,292.54 L 1270.92,266.47 L 1286.16,241.29 L 1301.40,211.75 L 1316.64,184.13 L 1331.88,152.77 L 1347.12,124.39 L 1362.36,93.23 L 1377.60,63.06 L 1392.84,37.26 L 1408.08,10.68 L 1423.32,-10.91 L 1438.56,-31.78 L 1453.80,-47.35 L 1469.04,-60.69 L 1484.28,-68.82 L 1499.52,-73.29 L 1514.76,-73.04 L 1530.00,-67.91 L 1545.24,-58.92 L 1560.48,-44.15 L 1575.72,-26.71 L 1590.96,-2.96 L 1606.20,22.03 L 1621.44,53.43 L 1636.68,84.54 L 1651.92,121.74 L 1667.16,157.09 L 1682.40,197.84 L 1697.64,239.48 L 1712.88,277.15 L 1728.12,318.59 L 1743.36,355.01 L 1758.60,393.92 L 1773.84,427.09 L 1789.08,461.42 L 1804.32,489.71 L 1819.56,517.92 L 1834.80,540.18 L 1850.04,561.29 L 1865.28,576.95 L 1880.52,590.64 L 1895.76,599.70 L 1911.00,606.30 L 1926.24,609.32 L 1941.48,609.73 L 1956.72,607.75 L 1971.96,603.34 L 1987.20,597.04 L 2002.44,590.16 L 2017.68,581.63 L 2032.92,573.55 L 2048.16,564.54 L 2063.40,556.75 L 2078.64,548.83 L 2093.88,542.63 L 2109.12,537.03 L 2124.36,533.31 L 2139.60,530.76 L 2154.84,529.95 L 2170.08,530.67 L 2185.32,532.68 L 2200.56,536.28 L 2215.80,540.54 L 2231.04,546.11 L 2246.28,551.59 L 2261.52,557.82 L 2276.76,563.18 L 2292.00,568.44 L 2307.24,572.51 L 2322.48,574.75 L 2337.72,575.25 L 2352.96,573.58 L 2368.20,569.01 L 2383.44,562.21 L 2398.68,551.44 L 2413.92,538.70 L 2429.16,521.09 L 2444.40,502.11 L 2459.64,477.63 L 2474.88,452.67 L 2490.12,421.93 L 2505.36,391.83 L 2520.60,356.07 L 2535.84,322.20 L 2551.08,283.19 L 2566.32,247.33 L 2581.56,207.24 L 2596.80,167.53 L 2612.04,132.67 L 2627.28,95.54 L 2642.52,64.08 L 2657.76,31.86 L 2673.00,5.78 L 2688.24,-19.49 L 2703.48,-38.55 L 2718.72,-55.31 L 2733.96,-66.20 L 2749.20,-73.47 L 2764.44,-75.62 L 2779.68,-73.14 L 2794.92,-66.61 L 2810.16,-54.80 L 2825.40,-40.29 L 2840.64,-20.23 L 2855.88,1.02 L 2871.12,27.69 L 2886.36,54.00 L 2901.60,85.23 L 2916.84,117.96 L 2932.08,148.16 L 2947.32,181.97 L 2962.56,212.14 L 2977.80,244.84 L 2993.04,273.11 L 3008.28,302.78 L 3023.52,327.59 L 3038.76,352.76 L 3054.00,373.04 L 3069.24,392.79 L 3084.48,408.00 L 3099.72,422.05 L 3114.96,432.19 L 3130.20,440.84 L 3145.44,446.46 L 3160.68,450.57 L 3175.92,452.65 L 3191.16,453.52 L 3200.00,453.40"
    stroke="#1a1a1a" stroke-width="2.0"
    fill="none" stroke-linecap="round" stroke-linejoin="round"/>
  <path d="M 0.00,453.40 L 6.40,453.30 L 21.64,452.54 L 36.88,451.50 L 52.12,450.73 L 67.36,450.46 L 82.60,451.06 L 97.84,452.97 L 113.08,456.05 L 128.32,461.17 L 143.56,467.43 L 158.80,476.30 L 174.04,486.00 L 189.28,498.59 L 204.52,511.43 L 219.76,527.14 L 235.00,542.33 L 250.24,560.02 L 265.48,576.33 L 280.72,594.44 L 295.96,610.31 L 311.20,627.00 L 326.44,642.15 L 341.68,654.05 L 356.92,664.85 L 372.16,672.03 L 387.40,676.79 L 402.64,677.88 L 417.88,675.27 L 433.12,669.31 L 448.36,658.55 L 463.60,645.10 L 478.84,626.03 L 494.08,605.27 L 509.32,578.41 L 524.56,551.08 L 539.80,517.60 L 555.04,485.03 L 570.28,446.66 L 585.52,410.62 L 600.76,369.52 L 616.00,327.93 L 631.24,290.67 L 646.48,250.07 L 661.72,214.80 L 676.96,177.59 L 692.20,146.37 L 707.44,114.70 L 722.68,89.28 L 737.92,64.83 L 753.16,46.49 L 768.40,30.39 L 783.64,19.85 L 798.88,12.55 L 814.12,9.90 L 829.36,11.17 L 844.60,15.90 L 859.84,24.85 L 875.08,35.92 L 890.32,51.14 L 905.56,67.05 L 920.80,86.70 L 936.04,107.87 L 951.28,127.75 L 966.52,150.22 L 981.76,170.36 L 997.00,192.14 L 1012.24,210.85 L 1027.48,230.25 L 1042.72,246.17 L 1057.96,261.89 L 1073.20,274.10 L 1088.44,285.42 L 1103.68,293.54 L 1118.92,300.30 L 1134.16,304.46 L 1149.40,307.12 L 1164.64,307.97 L 1179.88,307.50 L 1195.12,306.10 L 1210.36,303.86 L 1225.60,301.32 L 1240.84,299.17 L 1256.08,297.35 L 1271.32,296.59 L 1286.56,297.09 L 1301.80,299.07 L 1317.04,303.27 L 1332.28,309.07 L 1347.52,317.95 L 1362.76,328.23 L 1378.00,342.24 L 1393.24,357.15 L 1408.48,376.16 L 1423.72,395.31 L 1438.96,418.58 L 1454.20,441.03 L 1469.44,467.28 L 1484.68,491.67 L 1499.92,519.15 L 1515.16,543.77 L 1530.40,570.47 L 1545.64,595.90 L 1560.88,617.21 L 1576.12,638.62 L 1591.36,655.43 L 1606.60,670.92 L 1621.84,681.67 L 1637.08,689.72 L 1652.32,693.26 L 1667.56,692.89 L 1682.80,688.61 L 1698.04,679.46 L 1713.28,667.36 L 1728.52,649.77 L 1743.76,630.44 L 1759.00,605.40 L 1774.24,580.02 L 1789.48,549.11 L 1804.72,519.32 L 1819.96,484.58 L 1835.20,448.73 L 1850.44,416.07 L 1865.68,379.94 L 1880.92,348.09 L 1896.16,314.01 L 1911.40,284.98 L 1926.64,255.05 L 1941.88,230.57 L 1957.12,206.45 L 1972.36,187.78 L 1987.60,170.62 L 2002.84,158.50 L 2018.08,148.77 L 2033.32,143.33 L 2048.56,140.86 L 2063.80,141.67 L 2079.04,145.66 L 2094.28,151.75 L 2109.52,160.88 L 2124.76,170.87 L 2140.00,183.44 L 2155.24,197.08 L 2170.48,209.81 L 2185.72,223.97 L 2200.96,236.34 L 2216.20,249.22 L 2231.44,259.69 L 2246.68,269.74 L 2261.92,277.12 L 2277.16,283.25 L 2292.40,286.78 L 2307.64,288.43 L 2322.88,287.88 L 2338.12,285.09 L 2353.36,280.77 L 2368.60,274.17 L 2383.84,266.87 L 2399.08,257.60 L 2414.32,248.54 L 2429.56,238.11 L 2444.80,227.78 L 2460.04,218.97 L 2475.28,210.18 L 2490.52,203.57 L 2505.76,198.06 L 2521.00,195.09 L 2536.24,194.34 L 2551.48,196.18 L 2566.72,201.24 L 2581.96,208.61 L 2597.20,219.99 L 2612.44,233.07 L 2627.68,250.68 L 2642.92,269.11 L 2658.16,292.21 L 2673.40,315.07 L 2688.64,342.36 L 2703.88,368.25 L 2719.12,397.97 L 2734.36,425.13 L 2749.60,455.20 L 2764.84,484.56 L 2780.08,509.89 L 2795.32,536.25 L 2810.56,557.93 L 2825.80,579.28 L 2841.04,595.66 L 2856.28,610.35 L 2871.52,620.17 L 2886.76,627.08 L 2902.00,629.61 L 2917.24,628.26 L 2932.48,623.34 L 2947.72,613.91 L 2962.96,602.03 L 2978.20,585.35 L 2993.44,567.53 L 3008.68,545.03 L 3023.92,522.78 L 3039.16,496.34 L 3054.40,468.68 L 3069.64,443.25 L 3084.88,414.98 L 3100.12,390.01 L 3115.36,363.32 L 3130.60,340.68 L 3145.84,317.54 L 3161.08,298.86 L 3176.32,280.83 L 3191.56,267.28 L 3200.00,260.69"
    stroke="#1a1a1a" stroke-width="2.0"
    fill="none" stroke-linecap="round" stroke-linejoin="round"/>
  <path d="M 0.00,260.69 L 6.80,255.38 L 22.04,247.60 L 37.28,242.25 L 52.52,240.33 L 67.76,241.27 L 83.00,244.70 L 98.24,251.10 L 113.48,258.89 L 128.72,269.40 L 143.96,280.15 L 159.20,293.06 L 174.44,306.47 L 189.68,318.55 L 204.92,331.48 L 220.16,342.28 L 235.40,352.94 L 250.64,360.99 L 265.88,367.90 L 281.12,372.05 L 296.36,374.18 L 311.60,373.75 L 326.84,370.63 L 342.08,365.47 L 357.32,357.24 L 372.56,347.74 L 387.80,335.13 L 403.04,322.20 L 418.28,306.46 L 433.52,291.42 L 448.76,274.20 L 464.00,256.95 L 479.24,241.84 L 494.48,226.00 L 509.72,213.01 L 524.96,200.43 L 540.20,191.14 L 555.44,183.43 L 570.68,179.10 L 585.92,177.43 L 601.16,178.89 L 616.40,183.88 L 631.64,191.42 L 646.88,203.09 L 662.12,216.42 L 677.36,234.13 L 692.60,252.41 L 707.84,274.95 L 723.08,296.85 L 738.32,322.52 L 753.56,346.35 L 768.80,373.12 L 784.04,399.60 L 799.28,422.69 L 814.52,446.98 L 829.76,467.17 L 845.00,487.29 L 860.24,502.94 L 875.48,517.25 L 890.72,527.10 L 905.96,534.46 L 921.20,537.76 L 936.44,537.68 L 951.68,534.26 L 966.92,526.87 L 982.16,517.16 L 997.40,503.26 L 1012.64,488.25 L 1027.88,469.20 L 1043.12,450.32 L 1058.36,427.93 L 1073.60,404.61 L 1088.84,383.31 L 1104.08,359.86 L 1119.32,339.41 L 1134.56,317.92 L 1149.80,300.13 L 1165.04,282.49 L 1180.28,268.88 L 1195.52,256.56 L 1210.76,248.21 L 1226.00,242.13 L 1241.24,239.62 L 1256.48,240.09 L 1271.72,243.39 L 1286.96,250.09 L 1302.20,258.63 L 1317.44,270.60 L 1332.68,283.30 L 1347.92,299.12 L 1363.16,314.50 L 1378.40,332.37 L 1393.64,350.54 L 1408.88,366.70 L 1424.12,383.93 L 1439.36,398.38 L 1454.60,412.83 L 1469.84,424.04 L 1485.08,434.17 L 1500.32,440.95 L 1515.56,445.68 L 1530.80,447.32 L 1546.04,446.17 L 1561.28,442.48 L 1576.52,435.56 L 1591.76,426.94 L 1607.00,414.96 L 1622.24,402.30 L 1637.48,386.52 L 1652.72,371.14 L 1667.96,353.22 L 1683.20,334.92 L 1698.44,318.58 L 1713.68,301.06 L 1728.92,286.29 L 1744.16,271.44 L 1759.40,259.85 L 1774.64,249.31 L 1789.88,242.21 L 1805.12,237.21 L 1820.36,235.46 L 1835.60,236.68 L 1850.84,240.63 L 1866.08,248.14 L 1881.32,257.56 L 1896.56,270.79 L 1911.80,284.91 L 1927.04,302.72 L 1942.28,320.28 L 1957.52,341.03 L 1972.76,360.39 L 1988.00,382.15 L 2003.24,403.60 L 2018.48,422.15 L 2033.72,441.43 L 2048.96,457.14 L 2064.20,472.33 L 2079.44,483.61 L 2094.68,493.15 L 2109.92,498.80 L 2125.16,501.63 L 2140.40,500.98 L 2155.64,496.66 L 2170.88,489.58 L 2186.12,478.31 L 2201.36,465.29 L 2216.60,447.92 L 2231.84,430.00 L 2247.08,407.95 L 2262.32,386.60 L 2277.56,361.72 L 2292.80,336.18 L 2308.04,313.14 L 2323.28,288.04 L 2338.52,266.36 L 2353.76,243.81 L 2369.00,225.32 L 2384.24,207.21 L 2399.48,193.45 L 2414.72,181.26 L 2429.96,173.31 L 2445.20,167.98 L 2460.44,166.40 L 2475.68,168.21 L 2490.92,172.98 L 2506.16,181.59 L 2521.40,192.10 L 2536.64,206.54 L 2551.88,221.70 L 2567.12,240.50 L 2582.36,258.79 L 2597.60,280.12 L 2612.84,301.99 L 2628.08,321.65 L 2643.32,342.97 L 2658.56,361.26 L 2673.80,380.14 L 2689.04,395.47 L 2704.28,410.30 L 2719.52,421.42 L 2734.76,431.07 L 2750.00,437.19 L 2765.24,441.09 L 2780.48,441.98 L 2795.72,440.17 L 2810.96,436.14 L 2826.20,429.26 L 2841.44,421.14 L 2856.68,410.36 L 2871.92,399.42 L 2887.16,386.32 L 2902.40,372.72 L 2917.64,360.49 L 2932.88,347.39 L 2948.12,336.44 L 2963.36,325.65 L 2978.60,317.53 L 2993.84,310.62 L 3009.08,306.57 L 3024.32,304.71 L 3039.56,305.55 L 3054.80,309.37 L 3070.04,315.40 L 3085.28,324.91 L 3100.52,335.86 L 3115.76,350.46 L 3131.00,365.53 L 3146.24,384.04 L 3161.48,401.93 L 3176.72,422.71 L 3191.96,441.78 L 3200.00,452.91"
    stroke="#1a1a1a" stroke-width="2.0"
    fill="none" stroke-linecap="round" stroke-linejoin="round"/>
  <path d="M 0.00,452.91 L 7.20,462.87 L 22.44,483.28 L 37.68,500.59 L 52.92,518.14 L 68.16,531.99 L 83.40,544.77 L 98.64,553.60 L 113.88,560.09 L 129.12,562.72 L 144.36,561.90 L 159.60,557.70 L 174.84,549.16 L 190.08,538.06 L 205.32,522.08 L 220.56,504.62 L 235.80,482.12 L 251.04,459.40 L 266.28,431.86 L 281.52,405.44 L 296.76,374.80 L 312.00,343.41 L 327.24,315.03 L 342.48,283.94 L 357.72,256.85 L 372.96,228.29 L 388.20,204.41 L 403.44,180.37 L 418.68,161.32 L 433.92,143.38 L 449.16,130.35 L 464.40,119.53 L 479.64,113.17 L 494.88,109.87 L 510.12,110.24 L 525.36,114.20 L 540.60,120.78 L 555.84,131.13 L 571.08,142.88 L 586.32,158.22 L 601.56,173.71 L 616.80,192.30 L 632.04,211.81 L 647.28,229.70 L 662.52,249.46 L 677.76,266.72 L 693.00,284.87 L 708.24,299.93 L 723.48,314.90 L 738.72,326.53 L 753.96,337.19 L 769.20,344.62 L 784.44,350.39 L 799.68,353.37 L 814.92,354.28 L 830.16,353.10 L 845.40,349.76 L 860.64,345.20 L 875.88,338.75 L 891.12,332.03 L 906.36,323.96 L 921.60,315.75 L 936.84,308.64 L 952.08,301.50 L 967.32,296.16 L 982.56,291.82 L 997.80,289.70 L 1013.04,289.63 L 1028.28,291.87 L 1043.52,297.12 L 1058.76,304.45 L 1074.00,315.52 L 1089.24,328.10 L 1104.48,344.89 L 1119.72,362.35 L 1134.96,384.12 L 1150.20,405.53 L 1165.44,430.97 L 1180.68,454.93 L 1195.92,482.26 L 1211.16,507.02 L 1226.40,534.16 L 1241.64,560.31 L 1256.88,582.51 L 1272.12,605.13 L 1287.36,623.20 L 1302.60,640.29 L 1317.84,652.60 L 1333.08,662.52 L 1348.32,667.83 L 1363.56,669.50 L 1378.80,667.10 L 1394.04,660.05 L 1409.28,649.82 L 1424.52,634.29 L 1439.76,616.76 L 1455.00,593.63 L 1470.24,569.86 L 1485.48,540.63 L 1500.72,512.21 L 1515.96,478.81 L 1531.20,444.12 L 1546.44,412.32 L 1561.68,376.93 L 1576.92,345.55 L 1592.16,311.76 L 1607.40,282.78 L 1622.64,252.66 L 1637.88,227.79 L 1653.12,203.02 L 1668.36,183.55 L 1683.60,165.26 L 1698.84,151.94 L 1714.08,140.67 L 1729.32,133.68 L 1744.56,129.31 L 1759.80,128.27 L 1775.04,130.07 L 1790.28,134.07 L 1805.52,140.81 L 1820.76,148.57 L 1836.00,158.65 L 1851.24,169.76 L 1866.48,180.24 L 1881.72,191.95 L 1896.96,202.17 L 1912.20,212.76 L 1927.44,221.30 L 1942.68,229.36 L 1957.92,235.10 L 1973.16,239.64 L 1988.40,241.95 L 2003.64,242.50 L 2018.88,241.22 L 2034.12,237.94 L 2049.36,233.46 L 2064.60,227.03 L 2079.84,220.21 L 2095.08,211.84 L 2110.32,203.94 L 2125.56,195.20 L 2140.80,186.96 L 2156.04,180.39 L 2171.28,174.50 L 2186.52,170.84 L 2201.76,169.00 L 2217.00,169.67 L 2232.24,173.33 L 2247.48,179.45 L 2262.72,189.59 L 2277.96,201.82 L 2293.20,218.87 L 2308.44,237.29 L 2323.68,261.04 L 2338.92,285.18 L 2354.16,314.78 L 2369.40,343.60 L 2384.64,377.60 L 2399.88,409.55 L 2415.12,446.02 L 2430.36,479.22 L 2445.60,515.91 L 2460.84,551.76 L 2476.08,582.77 L 2491.32,615.22 L 2506.56,642.16 L 2521.80,669.03 L 2537.04,690.07 L 2552.28,709.55 L 2567.52,723.29 L 2582.76,734.10 L 2598.00,739.68 L 2613.24,741.18 L 2628.48,738.32 L 2643.72,730.57 L 2658.96,719.64 L 2674.20,703.38 L 2689.44,685.33 L 2704.68,661.90 L 2719.92,638.19 L 2735.16,609.42 L 2750.40,578.69 L 2765.64,549.87 L 2780.88,517.13 L 2796.12,487.51 L 2811.36,454.98 L 2826.60,426.50 L 2841.84,396.22 L 2857.08,370.57 L 2872.32,344.20 L 2887.56,322.66 L 2902.80,301.37 L 2918.04,284.72 L 2933.28,269.08 L 2948.52,257.56 L 2963.76,247.52 L 2979.00,240.82 L 2994.24,235.75 L 3009.48,233.08 L 3024.72,231.86 L 3039.96,232.04 L 3055.20,233.22 L 3070.44,235.03 L 3085.68,236.79 L 3100.92,238.51 L 3116.16,239.49 L 3131.40,239.59 L 3146.64,238.52 L 3161.88,235.79 L 3177.12,231.76 L 3192.36,225.41 L 3200.00,221.67"
    stroke="#1a1a1a" stroke-width="2.0"
    fill="none" stroke-linecap="round" stroke-linejoin="round"/>
  <path d="M 0.00,221.67 L 7.60,217.94 L 22.84,207.73 L 38.08,196.87 L 53.32,183.13 L 68.56,169.46 L 83.80,153.10 L 99.04,137.64 L 114.28,120.06 L 129.52,104.25 L 144.76,87.19 L 160.00,71.18 L 175.24,58.12 L 190.48,45.59 L 205.72,36.52 L 220.96,29.34 L 236.20,25.81 L 251.44,25.51 L 266.68,28.73 L 281.92,36.38 L 297.16,47.06 L 312.40,63.16 L 327.64,81.43 L 342.88,105.80 L 358.12,131.19 L 373.36,162.97 L 388.60,194.43 L 403.84,232.13 L 419.08,268.09 L 434.32,309.73 L 449.56,348.21 L 464.80,391.45 L 480.04,434.52 L 495.28,472.58 L 510.52,513.45 L 525.76,548.43 L 541.00,584.75 L 556.24,614.69 L 571.48,644.47 L 586.72,667.80 L 601.96,689.57 L 617.20,705.23 L 632.44,718.14 L 647.68,725.69 L 662.92,729.59 L 678.16,729.18 L 693.40,724.58 L 708.64,716.96 L 723.88,704.99 L 739.12,691.41 L 754.36,673.66 L 769.60,653.64 L 784.84,634.14 L 800.08,611.35 L 815.32,590.28 L 830.56,566.76 L 845.80,545.89 L 861.04,523.48 L 876.28,504.35 L 891.52,484.57 L 906.76,468.33 L 922.00,452.22 L 937.24,439.54 L 952.48,427.55 L 967.72,418.60 L 982.96,410.60 L 998.20,405.01 L 1013.44,400.34 L 1028.68,397.27 L 1043.92,394.80 L 1059.16,393.09 L 1074.40,391.38 L 1089.64,389.43 L 1104.88,387.11 L 1120.12,383.52 L 1135.36,379.06 L 1150.60,372.40 L 1165.84,364.63 L 1181.08,353.80 L 1196.32,341.94 L 1211.56,326.31 L 1226.80,310.03 L 1242.04,289.54 L 1257.28,269.05 L 1272.52,244.22 L 1287.76,220.27 L 1303.00,192.22 L 1318.24,166.06 L 1333.48,136.41 L 1348.72,109.66 L 1363.96,80.40 L 1379.20,52.20 L 1394.44,28.24 L 1409.68,3.75 L 1424.92,-15.91 L 1440.16,-34.61 L 1455.40,-48.23 L 1470.64,-59.38 L 1485.88,-65.55 L 1501.12,-67.86 L 1516.36,-65.69 L 1531.60,-58.47 L 1546.84,-47.66 L 1562.08,-30.93 L 1577.32,-11.79 L 1592.56,13.75 L 1607.80,40.28 L 1623.04,73.27 L 1638.28,105.70 L 1653.52,144.25 L 1668.76,180.70 L 1684.00,222.52 L 1699.24,265.09 L 1714.48,303.45 L 1729.72,345.52 L 1744.96,382.35 L 1760.20,421.56 L 1775.44,454.85 L 1790.68,489.16 L 1805.92,517.28 L 1821.16,545.14 L 1836.40,566.94 L 1851.64,587.38 L 1866.88,602.30 L 1882.12,615.02 L 1897.36,623.07 L 1912.60,628.42 L 1927.84,630.19 L 1943.08,629.10 L 1958.32,625.66 L 1973.56,619.52 L 1988.80,611.40 L 2004.04,602.80 L 2019.28,592.29 L 2034.52,582.36 L 2049.76,571.25 L 2065.00,561.54 L 2080.24,551.45 L 2095.48,543.29 L 2110.72,535.50 L 2125.96,529.82 L 2141.20,525.12 L 2156.44,522.39 L 2171.68,521.03 L 2186.92,521.22 L 2202.16,522.87 L 2217.40,525.44 L 2232.64,529.22 L 2247.88,533.19 L 2263.12,537.83 L 2278.36,541.88 L 2293.60,545.80 L 2308.84,548.67 L 2324.08,549.96 L 2339.32,549.55 L 2354.56,547.20 L 2369.80,542.03 L 2385.04,534.83 L 2400.28,523.78 L 2415.52,510.93 L 2430.76,493.36 L 2446.00,474.57 L 2461.24,450.45 L 2476.48,425.97 L 2491.72,395.92 L 2506.96,366.57 L 2522.20,331.80 L 2537.44,298.95 L 2552.68,261.20 L 2567.92,226.60 L 2583.16,188.03 L 2598.40,149.95 L 2613.64,116.67 L 2628.88,81.37 L 2644.12,51.64 L 2659.36,21.41 L 2674.60,-2.83 L 2689.84,-25.99 L 2705.08,-43.13 L 2720.32,-57.71 L 2735.56,-66.63 L 2750.80,-71.73 L 2766.04,-71.91 L 2781.28,-67.28 L 2796.52,-58.85 L 2811.76,-44.96 L 2827.00,-28.63 L 2842.24,-6.62 L 2857.48,16.30 L 2872.72,44.75 L 2887.96,72.57 L 2903.20,105.37 L 2918.44,139.54 L 2933.68,170.93 L 2948.92,205.92 L 2964.16,237.03 L 2979.40,270.62 L 2994.64,299.55 L 3009.88,329.81 L 3025.12,355.01 L 3040.36,380.44 L 3055.60,400.82 L 3070.84,420.51 L 3086.08,435.52 L 3101.32,449.17 L 3116.56,458.83 L 3131.80,466.78 L 3147.04,471.63 L 3162.28,474.74 L 3177.52,475.79 L 3192.76,475.38 L 3200.00,474.60"
    stroke="#1a1a1a" stroke-width="2.0"
    fill="none" stroke-linecap="round" stroke-linejoin="round"/>
  <path d="M 0.00,474.60 L 8.00,473.74 L 23.24,471.60 L 38.48,468.90 L 53.72,466.56 L 68.96,464.45 L 84.20,463.31 L 99.44,463.22 L 114.68,464.44 L 129.92,467.46 L 145.16,471.79 L 160.40,478.49 L 175.64,486.22 L 190.88,496.63 L 206.12,507.51 L 221.36,521.07 L 236.60,534.35 L 251.84,549.97 L 267.08,564.47 L 282.32,580.64 L 297.56,594.85 L 312.80,609.76 L 328.04,623.26 L 343.28,633.76 L 358.52,643.13 L 373.76,649.14 L 389.00,652.73 L 404.24,652.90 L 419.48,649.41 L 434.72,642.80 L 449.96,631.46 L 465.20,617.65 L 480.44,598.33 L 495.68,577.49 L 510.92,550.71 L 526.16,523.60 L 541.40,490.52 L 556.64,458.46 L 571.88,420.80 L 587.12,385.55 L 602.36,345.46 L 617.60,305.05 L 632.84,268.95 L 648.08,229.79 L 663.32,195.90 L 678.56,160.36 L 693.80,130.72 L 709.04,100.90 L 724.28,77.23 L 739.52,54.78 L 754.76,38.31 L 770.00,24.32 L 785.24,15.71 L 800.48,10.58 L 815.72,9.90 L 830.96,13.35 L 846.20,20.04 L 861.44,31.14 L 876.68,44.11 L 891.92,61.39 L 907.16,79.10 L 922.40,100.69 L 937.64,123.70 L 952.88,145.15 L 968.12,169.28 L 983.36,190.79 L 998.60,214.00 L 1013.84,233.86 L 1029.08,254.41 L 1044.32,271.24 L 1059.56,287.82 L 1074.80,300.68 L 1090.04,312.55 L 1105.28,321.02 L 1120.52,328.02 L 1135.76,332.24 L 1151.00,334.80 L 1166.24,335.42 L 1181.48,334.53 L 1196.72,332.61 L 1211.96,329.64 L 1227.20,326.21 L 1242.44,323.12 L 1257.68,320.12 L 1272.92,318.17 L 1288.16,317.23 L 1303.40,317.80 L 1318.64,320.33 L 1333.88,324.54 L 1349.12,331.56 L 1364.36,340.09 L 1379.60,352.09 L 1394.84,365.13 L 1410.08,382.02 L 1425.32,399.23 L 1440.56,420.33 L 1455.80,440.82 L 1471.04,464.87 L 1486.28,487.32 L 1501.52,512.65 L 1516.76,535.38 L 1532.00,560.02 L 1547.24,583.45 L 1562.48,603.03 L 1577.72,622.61 L 1592.96,637.85 L 1608.20,651.71 L 1623.44,661.08 L 1638.68,667.74 L 1653.92,670.13 L 1669.16,668.62 L 1684.40,663.44 L 1699.64,653.45 L 1714.88,640.72 L 1730.12,622.59 L 1745.36,602.92 L 1760.60,577.67 L 1775.84,552.24 L 1791.08,521.45 L 1806.32,491.90 L 1821.56,457.60 L 1836.80,422.35 L 1852.04,390.37 L 1867.28,355.15 L 1882.52,324.25 L 1897.76,291.37 L 1913.00,263.54 L 1928.24,235.06 L 1943.48,211.99 L 1958.72,189.56 L 1973.96,172.50 L 1989.20,157.21 L 2004.44,146.84 L 2019.68,139.13 L 2034.92,135.56 L 2050.16,135.22 L 2065.40,137.96 L 2080.64,144.13 L 2095.88,152.19 L 2111.12,163.50 L 2126.36,175.44 L 2141.60,190.16 L 2156.84,205.89 L 2172.08,220.46 L 2187.32,236.61 L 2202.56,250.70 L 2217.80,265.40 L 2233.04,277.43 L 2248.28,289.11 L 2263.52,297.85 L 2278.76,305.37 L 2294.00,310.03 L 2309.24,312.81 L 2324.48,313.14 L 2339.72,311.18 L 2354.96,307.47 L 2370.20,301.39 L 2385.44,294.41 L 2400.68,285.34 L 2415.92,276.31 L 2431.16,265.76 L 2446.40,255.12 L 2461.64,245.90 L 2476.88,236.49 L 2492.12,229.18 L 2507.36,222.74 L 2522.60,218.81 L 2537.84,216.85 L 2553.08,217.48 L 2568.32,221.07 L 2583.56,227.01 L 2598.80,236.70 L 2614.04,248.18 L 2629.28,263.90 L 2644.52,280.57 L 2659.76,301.64 L 2675.00,322.63 L 2690.24,347.80 L 2705.48,371.74 L 2720.72,399.28 L 2735.96,424.47 L 2751.20,452.36 L 2766.44,479.56 L 2781.68,502.96 L 2796.92,527.23 L 2812.16,547.07 L 2827.40,566.44 L 2842.64,581.11 L 2857.88,593.98 L 2873.12,602.25 L 2888.36,607.56 L 2903.60,608.73 L 2918.84,606.00 L 2934.08,599.97 L 2949.32,589.43 L 2964.56,576.68 L 2979.80,559.18 L 2995.04,540.77 L 3010.28,517.77 L 3025.52,495.21 L 3040.76,468.59 L 3056.00,440.92 L 3071.24,415.63 L 3086.48,387.68 L 3101.72,363.13 L 3116.96,337.08 L 3132.20,315.16 L 3147.44,292.96 L 3162.68,275.25 L 3177.92,258.44 L 3193.16,246.11 L 3200.00,241.44"
    stroke="#1a1a1a" stroke-width="2.0"
    fill="none" stroke-linecap="round" stroke-linejoin="round"/>
  <path d="M 0.00,241.44 L 8.40,235.70 L 23.64,229.36 L 38.88,225.71 L 54.12,225.41 L 69.36,228.24 L 84.60,233.44 L 99.84,241.88 L 115.08,251.54 L 130.32,264.18 L 145.56,276.88 L 160.80,291.96 L 176.04,307.57 L 191.28,321.60 L 206.52,336.69 L 221.76,349.42 L 237.00,362.17 L 252.24,372.05 L 267.48,380.93 L 282.72,386.79 L 297.96,390.72 L 313.20,391.83 L 328.44,390.31 L 343.68,386.49 L 358.92,379.62 L 374.16,371.23 L 389.40,359.71 L 404.64,347.64 L 419.88,332.70 L 435.12,318.24 L 450.36,301.51 L 465.60,284.57 L 480.84,269.60 L 496.08,253.75 L 511.32,240.60 L 526.56,227.69 L 541.80,217.96 L 557.04,209.59 L 572.28,204.54 L 587.52,201.91 L 602.76,202.38 L 618.00,206.14 L 633.24,212.44 L 648.48,222.62 L 663.72,234.50 L 678.96,250.49 L 694.20,267.14 L 709.44,287.78 L 724.68,307.91 L 739.92,331.54 L 755.16,353.49 L 770.40,378.12 L 785.64,402.44 L 800.88,423.56 L 816.12,445.67 L 831.36,463.90 L 846.60,481.86 L 861.84,495.59 L 877.08,507.81 L 892.32,515.84 L 907.56,521.24 L 922.80,522.84 L 938.04,520.96 L 953.28,516.01 L 968.52,507.03 L 983.76,496.00 L 999.00,480.75 L 1014.24,464.64 L 1029.48,444.51 L 1044.72,424.80 L 1059.96,401.63 L 1075.20,377.68 L 1090.44,355.97 L 1105.68,332.21 L 1120.92,311.64 L 1136.16,290.18 L 1151.40,272.56 L 1166.64,255.27 L 1181.88,242.12 L 1197.12,230.47 L 1212.36,222.86 L 1227.60,217.76 L 1242.84,216.24 L 1258.08,217.97 L 1273.32,222.52 L 1288.56,230.72 L 1303.80,240.72 L 1319.04,254.41 L 1334.28,268.75 L 1349.52,286.47 L 1364.76,303.64 L 1380.00,323.56 L 1395.24,343.83 L 1410.48,361.91 L 1425.72,381.31 L 1440.96,397.73 L 1456.20,414.36 L 1471.44,427.53 L 1486.68,439.81 L 1501.92,448.51 L 1517.16,455.32 L 1532.40,458.78 L 1547.64,459.58 L 1562.88,457.59 L 1578.12,452.45 L 1593.36,445.34 L 1608.60,434.94 L 1623.84,423.60 L 1639.08,409.16 L 1654.32,394.87 L 1669.56,378.00 L 1684.80,360.62 L 1700.04,344.96 L 1715.28,328.04 L 1730.52,313.67 L 1745.76,299.11 L 1761.00,287.63 L 1776.24,277.04 L 1791.48,269.75 L 1806.72,264.38 L 1821.96,262.16 L 1837.20,262.69 L 1852.44,265.89 L 1867.68,272.41 L 1882.92,280.82 L 1898.16,292.78 L 1913.40,305.65 L 1928.64,321.93 L 1943.88,338.02 L 1959.12,357.04 L 1974.36,374.75 L 1989.60,394.60 L 2004.84,414.05 L 2020.08,430.76 L 2035.32,447.93 L 2050.56,461.71 L 2065.80,474.73 L 2081.04,484.04 L 2096.28,491.40 L 2111.52,495.09 L 2126.76,495.77 L 2142.00,493.21 L 2157.24,486.81 L 2172.48,477.92 L 2187.72,464.70 L 2202.96,450.01 L 2218.20,430.86 L 2233.44,411.43 L 2248.68,387.81 L 2263.92,365.16 L 2279.16,338.95 L 2294.40,312.24 L 2309.64,288.26 L 2324.88,262.26 L 2340.12,239.91 L 2355.36,216.78 L 2370.60,197.90 L 2385.84,179.53 L 2401.08,165.67 L 2416.32,153.55 L 2431.56,145.80 L 2446.80,140.85 L 2462.04,139.76 L 2477.28,142.28 L 2492.52,147.81 L 2507.76,157.42 L 2523.00,168.97 L 2538.24,184.69 L 2553.48,201.11 L 2568.72,221.45 L 2583.96,241.21 L 2599.20,264.29 L 2614.44,288.00 L 2629.68,309.40 L 2644.92,332.72 L 2660.16,352.86 L 2675.40,373.85 L 2690.64,391.11 L 2705.88,408.11 L 2721.12,421.20 L 2736.36,433.03 L 2751.60,441.12 L 2766.84,447.16 L 2782.08,449.96 L 2797.32,450.21 L 2812.56,448.00 L 2827.80,443.05 L 2843.04,436.61 L 2858.28,427.60 L 2873.52,418.15 L 2888.76,406.61 L 2904.00,394.44 L 2919.24,383.38 L 2934.48,371.45 L 2949.72,361.42 L 2964.96,351.51 L 2980.20,344.04 L 2995.44,337.70 L 3010.68,334.02 L 3025.92,332.41 L 3041.16,333.33 L 3056.40,337.07 L 3071.64,342.88 L 3086.88,351.99 L 3102.12,362.44 L 3117.36,376.32 L 3132.60,390.60 L 3147.84,408.09 L 3163.08,424.94 L 3178.32,444.43 L 3193.56,462.22 L 3200.00,470.48"
    stroke="#1a1a1a" stroke-width="2.0"
    fill="none" stroke-linecap="round" stroke-linejoin="round"/>
  <path d="M 0.00,470.48 L 8.80,481.76 L 24.04,500.51 L 39.28,516.24 L 54.52,531.93 L 69.76,544.04 L 85.00,554.82 L 100.24,561.79 L 115.48,566.16 L 130.72,566.86 L 145.96,563.87 L 161.20,557.70 L 176.44,546.98 L 191.68,533.92 L 206.92,515.79 L 222.16,496.43 L 237.40,471.87 L 252.64,447.35 L 267.88,417.88 L 283.12,389.79 L 298.36,357.40 L 313.60,324.35 L 328.84,294.59 L 344.08,262.08 L 359.32,233.84 L 374.56,204.12 L 389.80,179.33 L 405.04,154.43 L 420.28,134.75 L 435.52,116.25 L 450.76,102.87 L 466.00,91.82 L 481.24,85.39 L 496.48,82.19 L 511.72,82.79 L 526.96,87.17 L 542.20,94.26 L 557.44,105.35 L 572.68,117.90 L 587.92,134.28 L 603.16,150.82 L 618.40,170.72 L 633.64,191.67 L 648.88,210.97 L 664.12,232.40 L 679.36,251.26 L 694.60,271.27 L 709.84,288.08 L 725.08,305.06 L 740.32,318.55 L 755.56,331.33 L 770.80,340.69 L 786.04,348.64 L 801.28,353.59 L 816.52,356.69 L 831.76,357.45 L 847.00,356.26 L 862.24,353.60 L 877.48,349.20 L 892.72,344.27 L 907.96,338.14 L 923.20,331.76 L 938.44,326.21 L 953.68,320.71 L 968.92,316.74 L 984.16,313.81 L 999.40,312.83 L 1014.64,313.90 L 1029.88,317.04 L 1045.12,323.14 L 1060.36,331.08 L 1075.60,342.69 L 1090.84,355.62 L 1106.08,372.62 L 1121.32,390.13 L 1136.56,411.78 L 1151.80,432.95 L 1167.04,457.95 L 1182.28,481.38 L 1197.52,507.96 L 1212.76,531.90 L 1228.00,558.00 L 1243.24,582.95 L 1258.48,603.95 L 1273.72,625.11 L 1288.96,641.77 L 1304.20,657.18 L 1319.44,667.89 L 1334.68,675.94 L 1349.92,679.49 L 1365.16,679.14 L 1380.40,674.86 L 1395.64,665.70 L 1410.88,653.53 L 1426.12,635.82 L 1441.36,616.32 L 1456.60,591.01 L 1471.84,565.29 L 1487.08,533.92 L 1502.32,503.60 L 1517.56,468.16 L 1532.80,431.48 L 1548.04,397.96 L 1563.28,360.74 L 1578.52,327.80 L 1593.76,292.39 L 1609.00,262.05 L 1624.24,230.54 L 1639.48,204.54 L 1654.72,178.64 L 1669.96,158.29 L 1685.20,139.17 L 1700.44,125.24 L 1715.68,113.45 L 1730.92,106.14 L 1746.16,101.57 L 1761.40,100.49 L 1776.64,102.42 L 1791.88,106.69 L 1807.12,113.88 L 1822.36,122.20 L 1837.60,133.04 L 1852.84,145.08 L 1868.08,156.52 L 1883.32,169.44 L 1898.56,180.87 L 1913.80,192.93 L 1929.04,202.89 L 1944.28,212.64 L 1959.52,220.00 L 1974.76,226.42 L 1990.00,230.49 L 2005.24,233.07 L 2020.48,233.67 L 2035.72,232.51 L 2050.96,229.97 L 2066.20,225.72 L 2081.44,220.86 L 2096.68,214.68 L 2111.92,208.73 L 2127.16,202.12"
    stroke="#1a1a1a" stroke-width="2.0"
    fill="none" stroke-linecap="round" stroke-linejoin="round"/>
</svg>
