<?xml version="1.0" encoding="UTF-8"?>
<svg xmlns="http://www.w3.org/2000/svg"
     width="3200" height="800"
     viewBox="0 0 3200 800">
  <rect width="3200" height="800" fill="white"/>
  <polyline points="0.00,350.00 11.52,324.29 23.04,298.39 34.56,272.20 46.08,245.75 57.60,215.51 69.12,189.57 80.64,164.85 92.16,142.27 103.68,122.89 115.20,106.13 126.72,97.43 138.24,95.34 149.76,100.62 161.28,113.74 172.80,138.44 184.32,168.16 195.84,204.64 207.36,246.71 218.88,292.85 230.40,348.33 241.92,397.13 253.44,444.17 264.96,487.61 276.48,525.85 288.00,557.58 299.52,584.70 311.04,599.87 322.56,606.99 334.08,606.41 345.60,598.81 357.12,582.76 368.64,563.51 380.16,540.64 391.68,515.29 403.20,488.49 414.72,457.14 426.24,429.75 437.76,402.76 449.28,376.31 460.80,350.34 472.32,321.06 483.84,295.57 495.36,270.04 506.88,244.45 518.40,218.95 529.92,190.39 541.44,166.60 552.96,144.79 564.48,125.95 576.00,111.18 587.52,100.68 599.04,98.20 610.56,102.84 622.08,115.11 633.60,135.20 645.12,167.41 656.64,202.95 668.16,244.23 679.68,289.82 691.20,338.01 702.72,393.87 714.24,441.27 725.76,485.34 737.28,524.41 748.80,557.11 760.32,585.38 771.84,601.49 783.36,609.41 794.88,609.41 806.40,602.11 817.92,586.03 829.44,566.44 840.96,542.96 852.48,516.79 864.00,489.03 875.52,456.53 887.04,428.19 898.56,400.39 910.08,373.34 921.60,347.05 933.12,317.77 944.64,292.60 956.16,267.67 967.68,242.89 979.20,214.86 990.72,190.93 1002.24,168.10 1013.76,147.11 1025.28,128.89 1036.80,112.77 1048.32,103.98 1059.84,101.20 1071.36,105.26 1082.88,116.74 1094.40,139.24 1105.92,166.94 1117.44,201.52 1128.96,241.96 1140.48,286.92 1152.00,341.71 1163.52,390.56 1175.04,438.24 1186.56,482.86 1198.08,522.72 1209.60,560.58 1221.12,585.77 1232.64,602.86 1244.16,611.63 1255.68,612.27 1267.20,603.80 1278.72,589.35 1290.24,569.50 1301.76,545.48 1313.28,518.55 1324.80,485.68 1336.32,456.21 1347.84,426.88 1359.36,398.23 1370.88,370.52 1382.40,340.09 1393.92,314.44 1405.44,289.51 1416.96,265.10 1428.48,241.07 1440.00,214.11 1451.52,191.19 1463.04,169.34 1474.56,149.22 1486.08,131.67 1497.60,116.01 1509.12,107.31 1520.64,104.31 1532.16,107.88 1543.68,118.61 1555.20,140.06 1566.72,166.76 1578.24,200.35 1589.76,239.91 1601.28,284.18 1612.80,338.49 1624.32,387.23 1635.84,435.10 1647.36,480.21 1658.88,520.79 1670.40,559.69 1681.92,585.88 1693.44,603.96 1704.96,613.62 1716.48,614.97 1728.00,607.01 1739.52,592.69 1751.04,572.66 1762.56,548.18 1774.08,520.54 1785.60,486.64 1797.12,456.17 1808.64,425.85 1820.16,396.29 1831.68,367.86 1843.20,336.90 1854.72,311.11 1866.24,286.33 1877.76,262.35 1889.28,239.02 1900.80,213.08 1912.32,191.15 1923.84,170.30 1935.36,151.09 1946.88,134.29 1958.40,119.18 1969.92,110.65 1981.44,107.52 1992.96,110.66 2004.48,120.72 2016.00,141.16 2027.52,166.87 2039.04,199.46 2050.56,238.10 2062.08,281.61 2073.60,335.35 2085.12,383.89 2096.64,431.87 2108.16,477.38 2119.68,518.63 2131.20,558.52 2142.72,585.70 2154.24,604.79 2165.76,615.37 2177.28,617.49 2188.80,610.13 2200.32,596.02 2211.84,575.91 2223.36,551.04 2234.88,522.75 2246.40,487.87 2257.92,456.42 2269.44,425.10 2280.96,394.60 2292.48,365.38 2304.00,333.81 2315.52,307.78 2327.04,283.06 2338.56,259.46 2350.08,236.75 2361.60,211.77 2373.12,190.82 2384.64,170.98 2396.16,152.72 2407.68,136.71 2419.20,122.24 2430.72,113.97 2442.24,110.80 2453.76,113.59 2465.28,123.04 2476.80,142.53 2488.32,167.27 2499.84,198.84 2511.36,236.54 2522.88,279.24 2534.40,332.31 2545.92,380.58 2557.44,428.58 2568.96,474.41 2580.48,516.25 2592.00,557.09 2603.52,585.23 2615.04,605.33 2626.56,616.87 2638.08,619.82 2649.60,613.13 2661.12,599.32 2672.64,579.21 2684.16,554.04 2695.68,525.18 2707.20,489.37 2718.72,456.96 2730.24,424.63 2741.76,393.17 2753.28,363.11 2764.80,330.85 2776.32,304.49 2787.84,279.75 2799.36,256.42 2810.88,234.28 2822.40,210.21 2833.92,190.21 2845.44,171.38 2856.96,154.09 2868.48,138.93 2880.00,125.17 2891.52,117.24 2903.04,114.12 2914.56,116.65 2926.08,125.56 2937.60,144.16 2949.12,167.95 2960.64,198.52 2972.16,235.23 2983.68,277.08 2995.20,329.42 3006.72,377.32 3018.24,425.25 3029.76,471.33 3041.28,513.68 3052.80,555.40 3064.32,584.48 3075.84,605.58 3087.36,618.11 3098.88,621.92 3110.40,615.99 3121.92,602.57 3133.44,582.54 3144.96,557.16 3156.48,527.79 3168.00,491.13 3179.52,457.79 3191.04,424.45 3200.00,399.21"
    stroke="#1a1a1a" stroke-width="2.0"
    fill="none" stroke-linecap="round" stroke-linejoin="round"/>
  <polyline points="0.00,399.21 2.56,392.00 14.08,361.06 25.60,328.02 37.12,301.26 48.64,276.42 60.16,253.28 71.68,231.62 83.20,208.40 94.72,189.32 106.24,171.49 117.76,155.19 129.28,140.92 140.80,127.95 152.32,120.45 163.84,117.46 175.36,119.82 186.88,128.27 198.40,146.03 209.92,168.91 221.44,198.48 232.96,234.20 244.48,275.14 256.00,326.67 267.52,374.13 279.04,421.91 290.56,468.14 302.08,510.94 313.60,553.46 325.12,583.45 336.64,605.54 348.16,619.07 359.68,623.80 371.20,618.69 382.72,605.73 394.24,585.88 405.76,560.37 417.28,530.58 428.80,493.12 440.32,458.89 451.84,424.56 463.36,391.10 474.88,359.25 486.40,325.37 497.92,298.12 509.44,273.08 520.96,250.06 532.48,228.80 544.00,206.35 555.52,188.15 567.04,171.31 578.56,156.02 590.08,142.67 601.60,130.57 613.12,123.57 624.64,120.79 636.16,123.06 647.68,131.13 659.20,148.14 670.72,170.15 682.24,198.74 693.76,233.45 705.28,273.45 716.80,317.55 728.32,371.04 739.84,418.59 751.36,464.88 762.88,508.04 774.40,546.32 785.92,582.15 797.44,605.22 808.96,619.76 820.48,625.42 832.00,622.34 843.52,608.79 855.04,589.20 866.56,563.64 878.08,533.51 889.60,500.26 901.12,460.26 912.64,424.95 924.16,390.49 935.68,357.69 947.20,327.07 958.72,295.09 970.24,269.77 981.76,246.77 993.28,225.83 1004.80,206.68 1016.32,186.72 1027.84,170.84 1039.36,156.56 1050.88,144.17 1062.40,134.19 1073.92,126.57 1085.44,124.09 1096.96,126.36 1108.48,134.13 1120.00,147.96 1131.52,171.65 1143.04,199.28 1154.56,232.98 1166.08,272.02 1177.60,315.28 1189.12,368.07 1200.64,415.30 1212.16,461.57 1223.68,505.01 1235.20,543.85 1246.72,580.58 1258.24,604.61 1269.76,620.15 1281.28,626.79 1292.80,624.56 1304.32,611.73 1315.84,592.48 1327.36,566.96 1338.88,536.57 1350.40,502.78 1361.92,461.88 1373.44,425.64 1384.96,390.17 1396.48,356.38 1408.00,324.91 1419.52,292.19 1431.04,266.51 1442.56,243.44 1454.08,222.74 1465.60,204.11 1477.12,185.03 1488.64,170.09 1500.16,156.81 1511.68,145.41 1523.20,136.29 1534.72,129.43 1546.24,127.34 1557.76,129.70 1569.28,137.24 1580.80,150.58 1592.32,173.40 1603.84,200.10 1615.36,232.80 1626.88,270.85 1638.40,313.23 1649.92,365.25 1661.44,412.07 1672.96,458.23 1684.48,501.87 1696.00,541.19 1707.52,578.77 1719.04,603.71 1730.56,620.26 1742.08,627.89 1753.60,626.55 1765.12,614.51 1776.64,595.69 1788.16,570.30 1799.68,539.74 1811.20,505.48 1822.72,463.76 1834.24,426.60 1845.76,390.13 1857.28,355.35 1868.80,322.97 1880.32,289.45 1891.84,263.32 1903.36,240.10 1914.88,219.55 1926.40,201.37 1937.92,183.09 1949.44,169.05 1960.96,156.77 1972.48,146.37 1984.00,138.17 1995.52,132.13 2007.04,130.50 2018.56,133.04 2030.08,140.45 2041.60,153.36 2053.12,175.39 2064.64,201.20 2076.16,232.91 2087.68,269.95 2099.20,311.42 2110.72,362.59 2122.24,408.93 2133.76,454.89 2145.28,498.64 2156.80,538.37 2168.32,576.72 2179.84,602.55 2191.36,620.08 2202.88,628.72 2214.40,628.30 2225.92,617.13 2237.44,598.80 2248.96,573.64 2260.48,542.98 2272.00,508.34 2283.52,465.86 2295.04,427.83 2306.56,390.38 2318.08,354.60 2329.60,321.28 2341.12,286.88 2352.64,260.23 2364.16,236.77 2375.68,216.29 2387.20,198.47 2398.72,180.93 2410.24,167.75 2421.76,156.45 2433.28,147.05 2444.80,139.79 2456.32,134.65 2467.84,133.56 2479.36,136.36 2490.88,143.73 2502.40,156.30 2513.92,177.61 2525.44,202.57 2536.96,233.30 2548.48,269.34 2560.00,309.86 2571.52,360.12 2583.04,405.90 2594.56,451.58 2606.08,495.35 2617.60,535.40 2629.12,574.45 2640.64,601.11 2652.16,619.61 2663.68,629.26 2675.20,629.80 2686.72,619.55 2698.24,601.80 2709.76,576.94 2721.28,546.28 2732.80,511.34 2744.32,468.19 2755.84,429.33 2767.36,390.92 2778.88,354.13 2790.40,319.85 2801.92,284.51 2813.44,257.26 2824.96,233.48 2836.48,212.98 2848.00,195.44 2859.52,178.56 2871.04,166.19 2882.56,155.84 2894.08,147.45 2905.60,141.16 2917.12,136.98 2928.64,136.49 2940.16,139.63 2951.68,147.05 2963.20,159.36 2974.72,180.03 2986.24,204.20 2997.76,233.99 3009.28,269.02 3020.80,308.55 3032.32,357.85 3043.84,403.00 3055.36,448.32 3066.88,492.03 3078.40,532.31 3089.92,571.97 3101.44,599.42 3112.96,618.86 3124.48,629.51 3136.00,631.04 3147.52,621.77 3159.04,604.66 3170.56,580.18 3182.08,549.61 3193.60,514.46 3200.00,490.15"
    stroke="#1a1a1a" stroke-width="2.0"
    fill="none" stroke-linecap="round" stroke-linejoin="round"/>
  <polyline points="0.00,490.15 5.12,470.71 16.64,431.09 28.16,391.75 39.68,353.95 51.20,318.68 62.72,282.34 74.24,254.44 85.76,230.26 97.28,209.64 108.80,192.30 120.32,175.99 131.84,164.37 143.36,154.94 154.88,147.56 166.40,142.26 177.92,139.08 189.44,139.28 200.96,142.84 212.48,150.39 224.00,162.52 235.52,182.65 247.04,206.07 258.56,234.95 270.08,268.98 281.60,307.52 293.12,355.80 304.64,400.26 316.16,445.13 327.68,488.69 339.20,529.12 350.72,569.32 362.24,597.49 373.76,617.83 385.28,629.48 396.80,632.00 408.32,623.76 419.84,607.36 431.36,583.35 442.88,552.95 454.40,517.67 465.92,473.41 477.44,433.08 488.96,392.85 500.48,354.06 512.00,317.79 523.52,280.41 535.04,251.78 546.56,227.12 558.08,206.31 569.60,189.07 581.12,173.24 592.64,162.32 604.16,153.77 615.68,147.38 627.20,143.09 638.72,140.96 650.24,141.89 661.76,145.96 673.28,153.72 684.80,165.77 696.32,185.43 707.84,208.18 719.36,236.19 730.88,269.24 742.40,306.77 753.92,353.98 765.44,397.69 776.96,442.04 788.48,485.36 800.00,525.86 811.52,566.49 823.04,595.32 834.56,616.52 846.08,629.15 857.60,632.68 869.12,625.51 880.64,609.89 892.16,586.41 903.68,556.27 915.20,520.94 926.72,476.27 938.24,435.30 949.76,394.22 961.28,354.45 972.80,317.17 984.32,278.72 995.84,249.31 1007.36,224.09 1018.88,203.00 1030.40,185.78 1041.92,170.35 1053.44,160.05 1064.96,152.34 1076.48,146.91 1088.00,143.63 1099.52,142.58 1111.04,144.32 1122.56,148.96 1134.08,157.02 1145.60,169.07 1157.12,188.37 1168.64,210.50 1180.16,237.69 1191.68,269.78 1203.20,306.30 1214.72,352.42 1226.24,395.31 1237.76,439.08 1249.28,482.07 1260.80,522.55 1272.32,563.52 1283.84,592.95 1295.36,614.96 1306.88,628.54 1318.40,633.08 1329.92,627.01 1341.44,612.21 1352.96,589.34 1364.48,559.55 1376.00,524.26 1387.52,479.27 1399.04,437.72 1410.56,395.85 1422.08,355.14 1433.60,316.85 1445.12,277.28 1456.64,247.04 1468.16,221.19 1479.68,199.73 1491.20,182.45 1502.72,167.31 1514.24,157.58 1525.76,150.65 1537.28,146.16 1548.80,143.88 1560.32,143.95 1571.84,146.53 1583.36,151.82 1594.88,160.26 1606.40,172.40 1617.92,191.43 1629.44,213.02 1640.96,239.44 1652.48,270.60 1664.00,306.12 1675.52,351.12 1687.04,393.15 1698.56,436.25 1710.08,478.84 1721.60,519.22 1733.12,560.44 1744.64,590.38 1756.16,613.14 1767.68,627.65 1779.20,633.19 1790.72,628.25 1802.24,614.31 1813.76,592.12 1825.28,562.76 1836.80,527.60 1848.32,482.39 1859.84,440.33 1871.36,397.72 1882.88,356.10 1894.40,316.81 1905.92,276.12 1917.44,244.99 1928.96,218.44 1940.48,196.55 1952.00,179.11 1963.52,164.17 1975.04,154.92 1986.56,148.71 1998.08,145.12 2009.60,143.84 2021.12,145.05 2032.64,148.53 2044.16,154.52 2055.68,163.43 2067.20,175.74 2078.72,194.59 2090.24,215.72 2101.76,241.43 2113.28,271.70 2124.80,306.23 2136.32,350.08 2147.84,391.22 2159.36,433.60 2170.88,475.70 2182.40,515.88 2193.92,557.25 2205.44,587.64 2216.96,611.10 2228.48,626.48 2240.00,633.01 2251.52,629.21 2263.04,616.19 2274.56,594.74 2286.08,565.87 2297.60,530.93 2309.12,485.60 2320.64,443.12 2332.16,399.83 2343.68,357.34 2355.20,317.07 2366.72,275.22 2378.24,243.17 2389.76,215.87 2401.28,193.46 2412.80,175.79 2424.32,160.95 2435.84,152.10 2447.36,146.55 2458.88,143.82 2470.40,143.52 2481.92,145.88 2493.44,150.28 2504.96,157.04 2516.48,166.49 2528.00,179.06 2539.52,197.84 2551.04,218.59 2562.56,243.65 2574.08,273.07 2585.60,306.62 2597.12,349.33 2608.64,389.53 2620.16,431.12 2631.68,472.67 2643.20,512.57 2654.72,553.99 2666.24,584.74 2677.76,608.83 2689.28,625.04 2700.80,632.54 2712.32,629.89 2723.84,617.82 2735.36,597.16 2746.88,568.87 2758.40,534.23 2769.92,488.87 2781.44,446.05 2792.96,402.15 2804.48,358.84 2816.00,317.61 2827.52,274.61 2839.04,241.61 2850.56,213.50 2862.08,190.49 2873.60,172.50 2885.12,157.66 2896.64,149.13 2908.16,144.18 2919.68,142.26 2931.20,142.91 2942.72,146.42 2954.24,151.78 2965.76,159.36 2977.28,169.42 2988.80,182.33 3000.32,201.14 3011.84,221.59 3023.36,246.07 3034.88,274.70 3046.40,307.31 3057.92,348.86 3069.44,388.09 3080.96,428.85 3092.48,469.77 3104.00,509.31 3115.52,550.68 3127.04,581.71 3138.56,606.35 3150.08,623.35 3161.60,631.79 3173.12,630.29 3184.64,619.19 3196.16,599.38 3200.00,590.16"
    stroke="#1a1a1a" stroke-width="2.0"
    fill="none" stroke-linecap="round" stroke-linejoin="round"/>
  <polyline points="0.00,590.16 7.68,571.73 19.20,537.48 30.72,492.19 42.24,449.11 53.76,404.67 65.28,360.59 76.80,318.43 88.32,274.29 99.84,240.31 111.36,211.34 122.88,187.67 134.40,169.27 145.92,154.33 157.44,146.04 168.96,141.61 180.48,140.44 192.00,142.01 203.52,146.67 215.04,153.01 226.56,161.47 238.08,172.21 249.60,185.54 261.12,204.47 272.64,224.70 284.16,248.69 295.68,276.57 307.20,308.27 318.72,348.68 330.24,386.92 341.76,426.80 353.28,467.03 364.80,506.12 376.32,547.34 387.84,578.57 399.36,603.69 410.88,621.42 422.40,630.75 433.92,630.40 445.44,620.29 456.96,601.37 468.48,574.44 480.00,540.64 491.52,495.53 503.04,452.28 514.56,407.37 526.08,362.58 537.60,319.53 549.12,274.25 560.64,239.28 572.16,209.41 583.68,185.01 595.20,166.13 606.72,150.99 618.24,142.85 629.76,138.87 641.28,138.39 652.80,140.85 664.32,146.63 675.84,153.98 687.36,163.34 698.88,174.82 710.40,188.66 721.92,207.81 733.44,227.91 744.96,251.47 756.48,278.68 768.00,309.51 779.52,348.79 791.04,386.03 802.56,424.99 814.08,464.46 825.60,503.03 837.12,544.00 848.64,575.34 860.16,600.87 871.68,619.26 883.20,629.45 894.72,630.22 906.24,621.11 917.76,603.12 929.28,576.96 940.80,543.70 952.32,498.86 963.84,455.52 975.36,410.23 986.88,364.80 998.40,320.90 1009.92,274.50 1021.44,238.52 1032.96,207.71 1044.48,182.54 1056.00,163.10 1067.52,147.66 1079.04,139.59 1090.56,135.97 1102.08,136.12 1113.60,139.41 1125.12,146.31 1136.64,154.66 1148.16,164.97 1159.68,177.25 1171.20,191.66 1182.72,211.13 1194.24,231.18 1205.76,254.40 1217.28,281.00 1228.80,311.01 1240.32,349.19 1251.84,385.42 1263.36,423.42 1274.88,462.09 1286.40,500.06 1297.92,540.69 1309.44,572.05 1320.96,597.90 1332.48,616.88 1344.00,627.89 1355.52,629.75 1367.04,621.65 1378.56,604.62 1390.08,579.28 1401.60,546.64 1413.12,502.16 1424.64,458.82 1436.16,413.23 1447.68,367.22 1459.20,322.53 1470.72,275.04 1482.24,238.05 1493.76,206.28 1505.28,180.27 1516.80,160.20 1528.32,144.37 1539.84,136.28 1551.36,132.94 1562.88,133.65 1574.40,137.72 1585.92,145.70 1597.44,155.06 1608.96,166.34 1620.48,179.46 1632.00,194.52 1643.52,214.40 1655.04,234.50 1666.56,257.46 1678.08,283.52 1689.60,312.76 1701.12,349.87 1712.64,385.09 1724.16,422.12 1735.68,459.92 1747.20,497.24 1758.72,537.43 1770.24,568.72 1781.76,594.81 1793.28,614.31 1804.80,626.07 1816.32,629.00 1827.84,621.90 1839.36,605.86 1850.88,581.39 1862.40,549.42 1873.92,505.41 1885.44,462.16 1896.96,416.35 1908.48,369.84 1920.00,324.40 1931.52,275.87 1943.04,237.87 1954.56,205.11 1966.08,178.22 1977.60,157.46 1989.12,141.15 2000.64,132.95 2012.16,129.80 2023.68,130.99 2035.20,135.79 2046.72,144.80 2058.24,155.17 2069.76,167.44 2081.28,181.45 2092.80,197.22 2104.32,217.61 2115.84,237.84 2127.36,260.63 2138.88,286.22 2150.40,314.75 2161.92,350.83 2173.44,385.06 2184.96,421.09 2196.48,457.99 2208.00,494.58 2219.52,534.24 2231.04,565.38 2242.56,591.63 2254.08,611.57 2265.60,624.02 2277.12,627.96 2288.64,621.87 2300.16,606.82 2311.68,583.26 2323.20,552.04 2334.72,508.57 2346.24,465.50 2357.76,419.56 2369.28,372.62 2380.80,326.51 2392.32,276.97 2403.84,237.98 2415.36,204.22 2426.88,176.40 2438.40,154.89 2449.92,138.01 2461.44,129.61 2472.96,126.57 2484.48,128.17 2496.00,133.62 2507.52,143.64 2519.04,154.99 2530.56,168.26 2542.08,183.21 2553.60,199.74 2565.12,220.73 2576.64,241.18 2588.16,263.87 2599.68,289.08 2611.20,316.97 2622.72,352.07 2634.24,385.31 2645.76,420.34 2657.28,456.30 2668.80,492.11 2680.32,531.15 2691.84,562.06 2703.36,588.36 2714.88,608.67 2726.40,621.75 2737.92,626.66 2749.44,621.54 2760.96,607.51 2772.48,584.89 2784.00,554.46 2795.52,511.63 2807.04,468.82 2818.56,422.83 2830.08,375.55 2841.60,328.83 2853.12,278.34 2864.64,238.38 2876.16,203.61 2887.68,174.84 2899.20,152.51 2910.72,134.97 2922.24,126.30 2933.76,123.28 2945.28,125.20 2956.80,131.25 2968.32,142.20 2979.84,154.52 2991.36,168.80 3002.88,184.71 3014.40,202.07 3025.92,223.73 3037.44,244.48 3048.96,267.18 3060.48,292.08 3072.00,319.39 3083.52,353.57 3095.04,385.85 3106.56,419.87 3118.08,454.87 3129.60,489.84 3141.12,528.19 3152.64,558.77 3164.16,585.05 3175.68,605.64 3187.20,619.28 3198.72,625.10 3200.00,624.63"
    stroke="#1a1a1a" stroke-width="2.0"
    fill="none" stroke-linecap="round" stroke-linejoin="round"/>
  <polyline points="0.00,624.63 10.24,620.93 21.76,607.90 33.28,586.26 44.80,556.68 56.32,514.57 67.84,472.09 79.36,426.15 90.88,378.61 102.40,331.35 113.92,279.96 125.44,239.06 136.96,203.28 148.48,173.53 160.00,150.35 171.52,132.08 183.04,123.04 194.56,119.95 206.08,122.11 217.60,128.68 229.12,140.51 240.64,153.76 252.16,169.06 263.68,185.94 275.20,204.17 286.72,226.59 298.24,247.72 309.76,270.51 321.28,295.20 332.80,322.01 344.32,355.32 355.84,386.67 367.36,419.69 378.88,453.70 390.40,487.79 401.92,525.36 413.44,555.54 424.96,581.72 436.48,602.50 448.00,616.62 459.52,623.28 471.04,620.04 482.56,608.01 494.08,587.36 505.60,558.67 517.12,517.35 528.64,475.30 540.16,429.49 551.68,381.78 563.20,334.05 574.72,281.84 586.24,240.02 597.76,203.24 609.28,172.50 620.80,148.42 632.32,129.33 643.84,119.85 655.36,116.61 666.88,118.92 678.40,125.94 689.92,138.58 701.44,152.73 712.96,169.02 724.48,186.91 736.00,206.05 747.52,229.29 759.04,250.89 770.56,273.85 782.08,298.41 793.60,324.79 805.12,357.31 816.64,387.78 828.16,419.79 839.68,452.80 851.20,485.97 862.72,522.71 874.24,552.40 885.76,578.38 897.28,599.27 908.80,613.80 920.32,621.23 931.84,618.87 943.36,607.83 954.88,588.18 966.40,560.42 977.92,519.97 989.44,478.41 1000.96,432.82 1012.48,385.02 1024.00,336.92 1035.52,283.94 1047.04,241.26 1058.56,203.50 1070.08,171.75 1081.60,146.73 1093.12,126.76 1104.64,116.76 1116.16,113.29 1127.68,115.66 1139.20,123.04 1150.72,136.41 1162.24,151.43 1173.76,168.70 1185.28,187.59 1196.80,207.67 1208.32,231.81 1219.84,253.95 1231.36,277.17 1242.88,301.68 1254.40,327.72 1265.92,359.53 1277.44,389.14 1288.96,420.19 1300.48,452.19 1312.00,484.41 1323.52,520.23 1335.04,549.37 1346.56,575.07 1358.08,595.98 1369.60,610.83 1381.12,618.96 1392.64,617.43 1404.16,607.36 1415.68,588.72 1427.20,561.92 1438.72,522.39 1450.24,481.41 1461.76,436.13 1473.28,388.32 1484.80,339.91 1496.32,286.27 1507.84,242.76 1519.36,204.04 1530.88,171.28 1542.40,145.29 1553.92,124.39 1565.44,113.79 1576.96,110.00 1588.48,112.35 1600.00,120.01 1611.52,134.04 1623.04,149.86 1634.56,168.09 1646.08,187.99 1657.60,209.04 1669.12,234.14 1680.64,256.88 1692.16,280.44 1703.68,305.00 1715.20,330.78 1726.72,361.95 1738.24,390.77 1749.76,420.87 1761.28,451.87 1772.80,483.11 1784.32,517.96 1795.84,546.47 1807.36,571.81 1818.88,592.66 1830.40,607.74 1841.92,616.49 1853.44,615.74 1864.96,606.61 1876.48,588.97 1888.00,563.16 1899.52,524.61 1911.04,484.28 1922.56,439.37 1934.08,391.66 1945.60,343.03 1957.12,288.79 1968.64,244.51 1980.16,204.86 1991.68,171.10 2003.20,144.13 2014.72,122.23 2026.24,110.97 2037.76,106.77 2049.28,109.01 2060.80,116.87 2072.32,131.47 2083.84,148.05 2095.36,167.19 2106.88,188.09 2118.40,210.14 2129.92,236.24 2141.44,259.67 2152.96,283.65 2164.48,308.34 2176.00,333.95 2187.52,364.57 2199.04,392.65 2210.56,421.84 2222.08,451.83 2233.60,482.07 2245.12,515.91 2256.64,543.73 2268.16,568.62 2279.68,589.32 2291.20,604.55 2302.72,613.83 2314.24,613.81 2325.76,605.58 2337.28,588.94 2348.80,564.12 2360.32,526.60 2371.84,486.98 2383.36,442.54 2394.88,395.00 2406.40,346.24 2417.92,291.49 2429.44,246.50 2440.96,205.96 2452.48,171.21 2464.00,143.23 2475.52,120.30 2487.04,108.31 2498.56,103.63 2510.08,105.68 2521.60,113.64 2533.12,128.73 2544.64,146.00 2556.16,166.02 2567.68,187.91 2579.20,210.97 2590.72,238.12 2602.24,262.28 2613.76,286.77 2625.28,311.68 2636.80,340.90 2648.32,367.35 2659.84,394.75 2671.36,423.07 2682.88,452.08 2694.40,485.48 2705.92,514.10 2717.44,541.16 2728.96,565.53 2740.48,585.99 2752.00,602.99 2763.52,611.01 2775.04,611.65 2786.56,604.27 2798.08,588.61 2809.60,560.76 2821.12,528.35 2832.64,489.50 2844.16,445.60 2855.68,398.32 2867.20,342.53 2878.72,294.35 2890.24,248.72 2901.76,207.33 2913.28,171.61 2924.80,139.07 2936.32,118.60 2947.84,105.84 2959.36,100.60 2970.88,102.37 2982.40,111.94 2993.92,125.83 3005.44,143.73 3016.96,164.59 3028.48,187.44 3040.00,215.01 3051.52,239.74 3063.04,264.70 3074.56,289.77 3086.08,314.98 3097.60,344.18 3109.12,370.29 3120.64,397.08 3132.16,424.57 3143.68,452.62 3155.20,484.87 3166.72,512.53 3178.24,538.78 3189.76,562.56 3200.00,580.46"
    stroke="#1a1a1a" stroke-width="2.0"
    fill="none" stroke-linecap="round" stroke-linejoin="round"/>
  <polyline points="0.00,580.46 1.28,582.70 12.80,599.70 24.32,608.04 35.84,609.27 47.36,602.71 58.88,588.00 70.40,561.30 81.92,529.85 93.44,491.82 104.96,448.53 116.48,401.59 128.00,345.83 139.52,297.35 151.04,251.15 162.56,208.96 174.08,172.29 185.60,138.61 197.12,117.17 208.64,103.57 220.16,97.70 231.68,99.11 243.20,108.63 254.72,122.80 266.24,141.26 277.76,162.90 289.28,186.69 300.80,215.40 312.32,241.11 323.84,266.92 335.36,292.63 346.88,318.22 358.40,347.50 369.92,373.35 381.44,399.60 392.96,426.33 404.48,453.45 416.00,484.54 427.52,511.23 439.04,536.62 450.56,559.74 462.08,579.47 473.60,596.37 485.12,604.95 496.64,606.70 508.16,600.90 519.68,587.11 531.20,561.56 542.72,531.09 554.24,493.93 565.76,451.31 577.28,404.80 588.80,349.16 600.32,300.47 611.84,253.76 623.36,210.83 634.88,173.25 646.40,138.42 657.92,116.00 669.44,101.52 680.96,94.96 692.48,95.92 704.00,105.30 715.52,119.66 727.04,138.60 738.56,160.96 750.08,185.66 761.60,215.51 773.12,242.21 784.64,268.91 796.16,295.33 807.68,321.39 819.20,350.84 830.72,376.51 842.24,402.30 853.76,428.32 865.28,454.55 876.80,484.51 888.32,510.20 899.84,534.69 911.36,557.08 922.88,576.33 934.40,593.03 945.92,601.76 957.44,603.96 968.96,598.85 980.48,585.94 992.00,561.52 1003.52,532.05 1015.04,495.80 1026.56,453.93 1038.08,407.92 1049.60,352.50 1061.12,303.68 1072.64,256.54 1084.16,212.94 1095.68,174.49 1107.20,138.53 1118.72,115.11 1130.24,99.70 1141.76,92.39 1153.28,92.83 1164.80,101.96 1176.32,116.43 1187.84,135.77 1199.36,158.80 1210.88,184.36 1222.40,215.33 1233.92,243.04 1245.44,270.67 1256.96,297.85 1268.48,324.45 1280.00,354.17 1291.52,379.76 1303.04,405.16 1314.56,430.53 1326.08,455.92 1337.60,484.76 1349.12,509.45 1360.64,533.00 1372.16,554.61 1383.68,573.30 1395.20,589.71 1406.72,598.50 1418.24,601.06 1429.76,596.58 1441.28,584.51 1452.80,561.20 1464.32,532.73 1475.84,497.43 1487.36,456.35 1498.88,410.92 1510.40,355.82 1521.92,306.95 1533.44,259.48 1544.96,215.26 1556.48,175.99 1568.00,138.93 1579.52,114.50 1591.04,98.14 1602.56,90.01 1614.08,89.86 1625.60,98.65 1637.12,113.14 1648.64,132.81 1660.16,156.43 1671.68,182.79 1683.20,214.86 1694.72,243.58 1706.24,272.17 1717.76,300.17 1729.28,327.38 1740.80,357.47 1752.32,383.06 1763.84,408.16 1775.36,432.96 1786.88,457.54 1798.40,485.30 1809.92,508.98 1821.44,531.56 1832.96,552.34 1844.48,570.40 1856.00,586.42 1867.52,595.19 1879.04,598.03 1890.56,594.10 1902.08,582.81 1913.60,560.58 1925.12,533.13 1936.64,498.80 1948.16,458.57 1959.68,413.78 1971.20,359.10 1982.72,310.27 1994.24,262.54 2005.76,217.78 2017.28,177.74 2028.80,139.61 2040.32,114.17 2051.84,96.84 2063.36,87.85 2074.88,87.04 2086.40,95.39 2097.92,109.81 2109.44,129.72 2120.96,153.86 2132.48,180.98 2144.00,214.11 2155.52,243.83 2167.04,273.40 2178.56,302.28 2190.08,330.16 2201.60,360.71 2213.12,386.39 2224.64,411.28 2236.16,435.57 2247.68,459.42 2259.20,486.12 2270.72,508.80 2282.24,530.40 2293.76,550.29 2305.28,567.66 2316.80,583.19 2328.32,591.86 2339.84,594.89 2351.36,591.44 2362.88,580.88 2374.40,559.69 2385.92,533.24 2397.44,499.90 2408.96,460.56 2420.48,416.48 2432.00,362.31 2443.52,313.61 2455.04,265.70 2466.56,220.49 2478.08,179.73 2489.60,140.58 2501.12,114.13 2512.64,95.80 2524.16,85.92 2535.68,84.38 2547.20,92.20 2558.72,106.47 2570.24,126.53 2581.76,151.12 2593.28,178.93 2604.80,213.08 2616.32,243.79 2627.84,274.36 2639.36,304.15 2650.88,332.78 2662.40,363.88 2673.92,389.73 2685.44,414.48 2696.96,438.36 2708.48,461.53 2720.00,487.22 2731.52,508.90 2743.04,529.50 2754.56,548.48 2766.08,565.09 2777.60,580.05 2789.12,588.52 2800.64,591.66 2812.16,588.62 2823.68,578.72 2835.20,558.52 2846.72,533.06 2858.24,500.72 2869.76,462.31 2881.28,419.00 2892.80,365.42 2904.32,316.94 2915.84,268.95 2927.36,223.35 2938.88,181.95 2950.40,141.81 2961.92,114.39 2973.44,95.05 2984.96,84.23 2996.48,81.91 3008.00,89.11 3019.52,103.15 3031.04,123.27 3042.56,148.22 3054.08,176.66 3065.60,211.77 3077.12,243.47 3088.64,275.05 3100.16,305.78 3111.68,335.20 3123.20,366.94 3134.72,393.05 3146.24,417.76 3157.76,441.29 3169.28,463.85 3180.80,488.59 3192.32,509.30 3200.00,522.36"
    stroke="#1a1a1a" stroke-width="2.0"
    fill="none" stroke-linecap="round" stroke-linejoin="round"/>
  <polyline points="0.00,522.36 3.84,528.89 15.36,546.91 26.88,562.72 38.40,577.02 49.92,585.21 61.44,588.37 72.96,585.65 84.48,576.34 96.00,557.09 107.52,532.59 119.04,501.26 130.56,463.81 142.08,421.32 153.60,368.42 165.12,320.24 176.64,272.25 188.16,226.35 199.68,184.37 211.20,143.31 222.72,114.93 234.24,94.58 245.76,82.79 257.28,79.64 268.80,86.14 280.32,99.86 291.84,119.96 303.36,145.19 314.88,174.19 326.40,210.21 337.92,242.86 349.44,275.44 360.96,307.15 372.48,337.42 384.00,369.87 395.52,396.32 407.04,421.08 418.56,444.35 430.08,466.37 441.60,490.22 453.12,509.98 464.64,528.57 476.16,545.61 487.68,560.55 499.20,574.12 510.72,581.95 522.24,585.05 533.76,582.56 545.28,573.78 556.80,555.40 568.32,531.84 579.84,501.52 591.36,465.05 602.88,423.43 614.40,371.28 625.92,323.49 637.44,275.58 648.96,229.46 660.48,186.99 672.00,145.06 683.52,115.75 695.04,94.40 706.56,81.62 718.08,77.59 729.60,83.32 741.12,96.63 752.64,116.62 764.16,142.05 775.68,171.53 787.20,208.40 798.72,241.96 810.24,275.55 821.76,308.25 833.28,339.41 844.80,372.66 856.32,399.53 867.84,424.42 879.36,447.52 890.88,469.07 902.40,492.09 913.92,510.95 925.44,528.53 936.96,544.58 948.48,558.62 960.00,571.38 971.52,578.76 983.04,581.71 994.56,579.38 1006.08,571.03 1017.60,553.46 1029.12,530.80 1040.64,501.48 1052.16,466.01 1063.68,425.30 1075.20,373.99 1086.72,326.65 1098.24,278.92 1109.76,232.67 1121.28,189.77 1132.80,147.06 1144.32,116.85 1155.84,94.51 1167.36,80.73 1178.88,75.77 1190.40,80.66 1201.92,93.49 1213.44,113.29 1224.96,138.82 1236.48,168.70 1248.00,206.35 1259.52,240.80 1271.04,275.37 1282.56,309.08 1294.08,341.16 1305.60,375.27 1317.12,402.65 1328.64,427.75 1340.16,450.76 1351.68,471.93 1363.20,494.20 1374.72,512.18 1386.24,528.78 1397.76,543.82 1409.28,556.93 1420.80,568.81 1432.32,575.67 1443.84,578.38 1455.36,576.12 1466.88,568.13 1478.40,551.30 1489.92,529.50 1501.44,501.16 1512.96,466.70 1524.48,426.93 1536.00,376.51 1547.52,329.71 1559.04,282.24 1570.56,235.95 1582.08,192.70 1593.60,149.27 1605.12,118.22 1616.64,94.91 1628.16,80.12 1639.68,74.21 1651.20,78.19 1662.72,90.46 1674.24,109.97 1685.76,135.53 1697.28,165.74 1708.80,204.08 1720.32,239.36 1731.84,274.90 1743.36,309.62 1754.88,342.66 1766.40,377.70 1777.92,405.65 1789.44,431.05 1800.96,454.06 1812.48,474.93 1824.00,496.52 1835.52,513.68 1847.04,529.32 1858.56,543.35 1870.08,555.49 1881.60,566.43 1893.12,572.70 1904.64,575.09 1916.16,572.80 1927.68,565.10 1939.20,548.93 1950.72,527.94 1962.24,500.54 1973.76,467.09 1985.28,428.30 1996.80,378.83 2008.32,332.65 2019.84,285.52 2031.36,239.27 2042.88,195.77 2054.40,151.70 2065.92,119.85 2077.44,95.59 2088.96,79.79 2100.48,72.91 2112.00,75.92 2123.52,87.56 2135.04,106.71 2146.56,132.20 2158.08,162.65 2169.60,201.60 2181.12,237.67 2192.64,274.15 2204.16,309.87 2215.68,343.90 2227.20,379.91 2238.72,408.51 2250.24,434.30 2261.76,457.39 2273.28,478.05 2284.80,499.05 2296.32,515.44 2307.84,530.15 2319.36,543.17 2330.88,554.33 2342.40,564.27 2353.92,569.88 2365.44,571.86 2376.96,569.47 2388.48,561.96 2400.00,546.36 2411.52,526.12 2423.04,499.65 2434.56,467.20 2446.08,429.40 2457.60,380.94 2469.12,335.43 2480.64,288.72 2492.16,242.61 2503.68,198.93 2515.20,154.31 2526.72,121.72 2538.24,96.55 2549.76,79.76 2561.28,71.87 2572.80,73.87 2584.32,84.82 2595.84,103.53 2607.36,128.86 2618.88,159.46 2630.40,198.94 2641.92,235.74 2653.44,273.12 2664.96,309.83 2676.48,344.86 2688.00,381.90 2699.52,411.21 2711.04,437.46 2722.56,460.73 2734.08,481.26 2745.60,501.75 2757.12,517.43 2768.64,531.25 2780.16,543.28 2791.68,553.43 2803.20,562.34 2814.72,567.22 2826.24,568.72 2837.76,566.13 2849.28,558.74 2860.80,543.61 2872.32,524.07 2883.84,498.48 2895.36,467.02 2906.88,430.22 2918.40,382.81 2929.92,338.05 2941.44,291.84 2952.96,245.94 2964.48,202.18 2976.00,157.10 2987.52,123.83 2999.04,97.79 3010.56,80.01 3022.08,71.12 3033.60,72.05 3045.12,82.25 3056.64,100.44 3068.16,125.54 3079.68,156.20 3091.20,196.12 3102.72,233.57 3114.24,271.81 3125.76,309.51 3137.28,345.55 3148.80,383.66 3160.32,413.73 3171.84,440.52 3183.36,464.05 3194.88,484.53 3200.00,493.46"
    stroke="#1a1a1a" stroke-width="2.0"
    fill="none" stroke-linecap="round" stroke-linejoin="round"/>
  <polyline points="0.00,493.46 6.40,504.61 17.92,519.64 29.44,532.62 40.96,543.68 52.48,552.82 64.00,560.65 75.52,564.75 87.04,565.69 98.56,562.82 110.08,555.45 121.60,540.72 133.12,521.80 144.64,497.05 156.16,466.55 167.68,430.76 179.20,384.44 190.72,340.47 202.24,294.84 213.76,249.24 225.28,205.48 236.80,160.03 248.32,126.15 259.84,99.29 271.36,80.55 282.88,70.65 294.40,70.49 305.92,79.87 317.44,97.47 328.96,122.25 340.48,152.89 352.00,193.15 363.52,231.20 375.04,270.25 386.56,308.90 398.08,345.94 409.60,385.16 421.12,416.06 432.64,443.46 444.16,467.33 455.68,487.85 467.20,507.61 478.72,522.07 490.24,534.24 501.76,544.36 513.28,552.50 524.80,559.21 536.32,562.48 547.84,562.79 559.36,559.56 570.88,552.12 582.40,537.69 593.92,519.33 605.44,495.36 616.96,465.80 628.48,431.02 3200.00,431.02"
    stroke="#1a1a1a" stroke-width="2.0"
    fill="none" stroke-linecap="round" stroke-linejoin="round"/>
</svg>
